ISO-10303-21;
HEADER;
FILE_DESCRIPTION(('Open CASCADE Model'),'2;1');
FILE_NAME('Open CASCADE Shape Model','2026-09-29T03:15:36',('Author'),(
    'Open CASCADE'),'Open CASCADE STEP processor 7.9','Open CASCADE 7.9'
  ,'Unknown');
FILE_SCHEMA(('AUTOMOTIVE_DESIGN { 1 0 10303 214 1 1 1 1 }'));
ENDSEC;
DATA;
#1 = APPLICATION_PROTOCOL_DEFINITION('international standard',
  'automotive_design',2000,#2);
#2 = APPLICATION_CONTEXT(
  'core data for automotive mechanical design processes');
#3 = SHAPE_DEFINITION_REPRESENTATION(#4,#10);
#4 = PRODUCT_DEFINITION_SHAPE('','',#5);
#5 = PRODUCT_DEFINITION('design','',#6,#9);
#6 = PRODUCT_DEFINITION_FORMATION('','',#7);
#7 = PRODUCT('Open CASCADE STEP translator 7.9 16',
  'Open CASCADE STEP translator 7.9 16','',(#8));
#8 = PRODUCT_CONTEXT('',#2,'mechanical');
#9 = PRODUCT_DEFINITION_CONTEXT('part definition',#2,'design');
#10 = ADVANCED_BREP_SHAPE_REPRESENTATION('',(#11,#15),#1310);
#11 = AXIS2_PLACEMENT_3D('',#12,#13,#14);
#12 = CARTESIAN_POINT('',(0.,0.,0.));
#13 = DIRECTION('',(0.,0.,1.));
#14 = DIRECTION('',(1.,0.,-0.));
#15 = MANIFOLD_SOLID_BREP('',#16);
#16 = CLOSED_SHELL('',(#17,#385,#529,#740,#847,#918,#1131,#1138,#1146,
    #1302));
#17 = ADVANCED_FACE('',(#18),#33,.T.);
#18 = FACE_BOUND('',#19,.T.);
#19 = EDGE_LOOP('',(#20,#90,#128,#150,#151,#184,#247,#316));
#20 = ORIENTED_EDGE('',*,*,#21,.T.);
#21 = EDGE_CURVE('',#22,#24,#26,.T.);
#22 = VERTEX_POINT('',#23);
#23 = CARTESIAN_POINT('',(33.,-21.93973703538,-3.494717740116));
#24 = VERTEX_POINT('',#25);
#25 = CARTESIAN_POINT('',(33.,-18.09450075203,-2.638441522725));
#26 = SURFACE_CURVE('',#27,(#32,#78),.PCURVE_S1.);
#27 = CIRCLE('',#28,3.708099243548);
#28 = AXIS2_PLACEMENT_3D('',#29,#30,#31);
#29 = CARTESIAN_POINT('',(33.,-20.7,0.));
#30 = DIRECTION('',(1.,-0.,0.));
#31 = DIRECTION('',(0.,0.207911690818,-0.978147600734));
#32 = PCURVE('',#33,#38);
#33 = SPHERICAL_SURFACE('',#34,4.);
#34 = AXIS2_PLACEMENT_3D('',#35,#36,#37);
#35 = CARTESIAN_POINT('',(31.5,-20.7,0.));
#36 = DIRECTION('',(0.,0.207911690818,-0.978147600734));
#37 = DIRECTION('',(0.,0.978147600734,0.207911690818));
#38 = DEFINITIONAL_REPRESENTATION('',(#39),#77);
#39 = B_SPLINE_CURVE_WITH_KNOTS('',8,(#40,#41,#42,#43,#44,#45,#46,#47,
    #48,#49,#50,#51,#52,#53,#54,#55,#56,#57,#58,#59,#60,#61,#62,#63,#64,
    #65,#66,#67,#68,#69,#70,#71,#72,#73,#74,#75,#76),.UNSPECIFIED.,.F.,
  .F.,(9,7,7,7,7,9),(5.732849214253,5.998346923917,6.211975711364,
    6.372197301949,6.612529687827,6.852862073705),.UNSPECIFIED.);
#40 = CARTESIAN_POINT('',(2.483220706723,0.911051220813));
#41 = CARTESIAN_POINT('',(2.457044320432,0.937301950568));
#42 = CARTESIAN_POINT('',(2.428234011133,0.962945259923));
#43 = CARTESIAN_POINT('',(2.396449422803,0.98788247486));
#44 = CARTESIAN_POINT('',(2.361297633399,1.011992695502));
#45 = CARTESIAN_POINT('',(2.322336321981,1.035128494899));
#46 = CARTESIAN_POINT('',(2.279075097074,1.057105041583));
#47 = CARTESIAN_POINT('',(2.231035097038,1.07769316887));
#48 = CARTESIAN_POINT('',(2.135194310451,1.111861670455));
#49 = CARTESIAN_POINT('',(2.089180489093,1.12602541334));
#50 = CARTESIAN_POINT('',(2.039733918646,1.138979434621));
#51 = CARTESIAN_POINT('',(1.98678619108,1.150571625026));
#52 = CARTESIAN_POINT('',(1.930397068284,1.160636592745));
#53 = CARTESIAN_POINT('',(1.87086236552,1.169011005507));
#54 = CARTESIAN_POINT('',(1.808771519562,1.175556468919));
#55 = CARTESIAN_POINT('',(1.696999213207,1.183651593057));
#56 = CARTESIAN_POINT('',(1.648096088805,1.186041067413));
#57 = CARTESIAN_POINT('',(1.598520157207,1.187312306921));
#58 = CARTESIAN_POINT('',(1.548659097509,1.187441201621));
#59 = CARTESIAN_POINT('',(1.498938444972,1.186423079654));
#60 = CARTESIAN_POINT('',(1.449773351557,1.184273725561));
#61 = CARTESIAN_POINT('',(1.401523613784,1.181026799749));
#62 = CARTESIAN_POINT('',(1.283918459316,1.170280349758));
#63 = CARTESIAN_POINT('',(1.216072668718,1.161466295613));
#64 = CARTESIAN_POINT('',(1.151929112171,1.150441171745));
#65 = CARTESIAN_POINT('',(1.09213159197,1.137424144927));
#66 = CARTESIAN_POINT('',(1.036839738118,1.122659921608));
#67 = CARTESIAN_POINT('',(0.98594735968,1.106372376228));
#68 = CARTESIAN_POINT('',(0.939216251791,1.08876200706));
#69 = CARTESIAN_POINT('',(0.853477152836,1.051242063605));
#70 = CARTESIAN_POINT('',(0.814469245032,1.031332487465));
#71 = CARTESIAN_POINT('',(0.779023415721,1.010446765276));
#72 = CARTESIAN_POINT('',(0.746781044102,0.98873129886));
#73 = CARTESIAN_POINT('',(0.717398171217,0.966305669018));
#74 = CARTESIAN_POINT('',(0.69056715124,0.943267488942));
#75 = CARTESIAN_POINT('',(0.666014237825,0.919698032446));
#76 = CARTESIAN_POINT('',(0.643501108793,0.895664793858));
#77 = ( GEOMETRIC_REPRESENTATION_CONTEXT(2) 
PARAMETRIC_REPRESENTATION_CONTEXT() REPRESENTATION_CONTEXT('2D SPACE',''
  ) );
#78 = PCURVE('',#79,#84);
#79 = PLANE('',#80);
#80 = AXIS2_PLACEMENT_3D('',#81,#82,#83);
#81 = CARTESIAN_POINT('',(33.,-22.65629520146,-0.415823381636));
#82 = DIRECTION('',(1.,0.,0.));
#83 = DIRECTION('',(0.,0.207911690818,-0.978147600734));
#84 = DEFINITIONAL_REPRESENTATION('',(#85),#89);
#85 = CIRCLE('',#86,3.708099243548);
#86 = AXIS2_PLACEMENT_2D('',#87,#88);
#87 = CARTESIAN_POINT('',(5.551115123126E-17,2.));
#88 = DIRECTION('',(1.,0.));
#89 = ( GEOMETRIC_REPRESENTATION_CONTEXT(2) 
PARAMETRIC_REPRESENTATION_CONTEXT() REPRESENTATION_CONTEXT('2D SPACE',''
  ) );
#90 = ORIENTED_EDGE('',*,*,#91,.T.);
#91 = EDGE_CURVE('',#24,#92,#94,.T.);
#92 = VERTEX_POINT('',#93);
#93 = CARTESIAN_POINT('',(31.5,-18.02347757456,-2.97257930191));
#94 = SURFACE_CURVE('',#95,(#100,#116),.PCURVE_S1.);
#95 = CIRCLE('',#96,3.464101615138);
#96 = AXIS2_PLACEMENT_3D('',#97,#98,#99);
#97 = CARTESIAN_POINT('',(31.5,-18.74370479853,0.415823381636));
#98 = DIRECTION('',(0.,0.978147600734,0.207911690818));
#99 = DIRECTION('',(0.,0.207911690818,-0.978147600734));
#100 = PCURVE('',#33,#101);
#101 = DEFINITIONAL_REPRESENTATION('',(#102),#115);
#102 = B_SPLINE_CURVE_WITH_KNOTS('',6,(#103,#104,#105,#106,#107,#108,
    #109,#110,#111,#112,#113,#114),.UNSPECIFIED.,.F.,.F.,(7,5,7),(
    5.835352910251,6.059269108715,6.28318530718),.UNSPECIFIED.);
#103 = CARTESIAN_POINT('',(0.643501108793,0.895664793858));
#104 = CARTESIAN_POINT('',(0.606211609827,0.918056413704));
#105 = CARTESIAN_POINT('',(0.56561663688,0.939112115217));
#106 = CARTESIAN_POINT('',(0.521481813042,0.958627554409));
#107 = CARTESIAN_POINT('',(0.473627788745,0.976366376397));
#108 = CARTESIAN_POINT('',(0.422065727444,0.992057753019));
#109 = CARTESIAN_POINT('',(0.312257653997,1.018850650673));
#110 = CARTESIAN_POINT('',(0.254011286152,1.029951981016));
#111 = CARTESIAN_POINT('',(0.19278498839,1.038512436278));
#112 = CARTESIAN_POINT('',(0.12927767766,1.044303015623));
#113 = CARTESIAN_POINT('',(6.463903872969E-02,1.047197551197));
#114 = CARTESIAN_POINT('',(4.2423009549E-16,1.047197551197));
#115 = ( GEOMETRIC_REPRESENTATION_CONTEXT(2) 
PARAMETRIC_REPRESENTATION_CONTEXT() REPRESENTATION_CONTEXT('2D SPACE',''
  ) );
#116 = PCURVE('',#117,#122);
#117 = PLANE('',#118);
#118 = AXIS2_PLACEMENT_3D('',#119,#120,#121);
#119 = CARTESIAN_POINT('',(30.,-18.74370479853,0.415823381636));
#120 = DIRECTION('',(0.,0.978147600734,0.207911690818));
#121 = DIRECTION('',(0.,0.207911690818,-0.978147600734));
#122 = DEFINITIONAL_REPRESENTATION('',(#123),#127);
#123 = CIRCLE('',#124,3.464101615138);
#124 = AXIS2_PLACEMENT_2D('',#125,#126);
#125 = CARTESIAN_POINT('',(0.,-1.5));
#126 = DIRECTION('',(1.,0.));
#127 = ( GEOMETRIC_REPRESENTATION_CONTEXT(2) 
PARAMETRIC_REPRESENTATION_CONTEXT() REPRESENTATION_CONTEXT('2D SPACE',''
  ) );
#128 = ORIENTED_EDGE('',*,*,#129,.F.);
#129 = EDGE_CURVE('',#130,#92,#132,.T.);
#130 = VERTEX_POINT('',#131);
#131 = CARTESIAN_POINT('',(31.5,-21.53164676327,3.912590402935));
#132 = SEAM_CURVE('',#133,(#138,#144),.PCURVE_S1.);
#133 = CIRCLE('',#134,4.);
#134 = AXIS2_PLACEMENT_3D('',#135,#136,#137);
#135 = CARTESIAN_POINT('',(31.5,-20.7,0.));
#136 = DIRECTION('',(-1.,-2.395770656665E-16,-5.092367733306E-17));
#137 = DIRECTION('',(-2.449293598295E-16,0.978147600734,0.207911690818)
  );
#138 = PCURVE('',#33,#139);
#139 = DEFINITIONAL_REPRESENTATION('',(#140),#143);
#140 = B_SPLINE_CURVE_WITH_KNOTS('',1,(#141,#142),.UNSPECIFIED.,.F.,.F.,
  (2,2),(4.712388980385,7.330382858376),.PIECEWISE_BEZIER_KNOTS.);
#141 = CARTESIAN_POINT('',(6.28318530718,-1.570796326795));
#142 = CARTESIAN_POINT('',(6.28318530718,1.047197551197));
#143 = ( GEOMETRIC_REPRESENTATION_CONTEXT(2) 
PARAMETRIC_REPRESENTATION_CONTEXT() REPRESENTATION_CONTEXT('2D SPACE',''
  ) );
#144 = PCURVE('',#33,#145);
#145 = DEFINITIONAL_REPRESENTATION('',(#146),#149);
#146 = B_SPLINE_CURVE_WITH_KNOTS('',1,(#147,#148),.UNSPECIFIED.,.F.,.F.,
  (2,2),(4.712388980385,7.330382858376),.PIECEWISE_BEZIER_KNOTS.);
#147 = CARTESIAN_POINT('',(0.,-1.570796326795));
#148 = CARTESIAN_POINT('',(0.,1.047197551197));
#149 = ( GEOMETRIC_REPRESENTATION_CONTEXT(2) 
PARAMETRIC_REPRESENTATION_CONTEXT() REPRESENTATION_CONTEXT('2D SPACE',''
  ) );
#150 = ORIENTED_EDGE('',*,*,#129,.T.);
#151 = ORIENTED_EDGE('',*,*,#152,.T.);
#152 = EDGE_CURVE('',#92,#153,#155,.T.);
#153 = VERTEX_POINT('',#154);
#154 = CARTESIAN_POINT('',(30.,-18.09450075203,-2.638441522725));
#155 = SURFACE_CURVE('',#156,(#161,#177),.PCURVE_S1.);
#156 = CIRCLE('',#157,3.464101615138);
#157 = AXIS2_PLACEMENT_3D('',#158,#159,#160);
#158 = CARTESIAN_POINT('',(31.5,-18.74370479853,0.415823381636));
#159 = DIRECTION('',(0.,0.978147600734,0.207911690818));
#160 = DIRECTION('',(0.,0.207911690818,-0.978147600734));
#161 = PCURVE('',#33,#162);
#162 = DEFINITIONAL_REPRESENTATION('',(#163),#176);
#163 = B_SPLINE_CURVE_WITH_KNOTS('',6,(#164,#165,#166,#167,#168,#169,
    #170,#171,#172,#173,#174,#175),.UNSPECIFIED.,.F.,.F.,(7,5,7),(0.,
    0.223916198464,0.447832396929),.UNSPECIFIED.);
#164 = CARTESIAN_POINT('',(6.28318530718,1.047197551197));
#165 = CARTESIAN_POINT('',(6.21854626845,1.047197551197));
#166 = CARTESIAN_POINT('',(6.15390762952,1.044303015623));
#167 = CARTESIAN_POINT('',(6.090400318789,1.038512436278));
#168 = CARTESIAN_POINT('',(6.029174021027,1.029951981016));
#169 = CARTESIAN_POINT('',(5.970927653183,1.018850650673));
#170 = CARTESIAN_POINT('',(5.861119579735,0.992057753019));
#171 = CARTESIAN_POINT('',(5.809557518435,0.976366376397));
#172 = CARTESIAN_POINT('',(5.761703494138,0.958627554409));
#173 = CARTESIAN_POINT('',(5.7175686703,0.939112115217));
#174 = CARTESIAN_POINT('',(5.676973697352,0.918056413704));
#175 = CARTESIAN_POINT('',(5.639684198386,0.895664793858));
#176 = ( GEOMETRIC_REPRESENTATION_CONTEXT(2) 
PARAMETRIC_REPRESENTATION_CONTEXT() REPRESENTATION_CONTEXT('2D SPACE',''
  ) );
#177 = PCURVE('',#117,#178);
#178 = DEFINITIONAL_REPRESENTATION('',(#179),#183);
#179 = CIRCLE('',#180,3.464101615138);
#180 = AXIS2_PLACEMENT_2D('',#181,#182);
#181 = CARTESIAN_POINT('',(0.,-1.5));
#182 = DIRECTION('',(1.,0.));
#183 = ( GEOMETRIC_REPRESENTATION_CONTEXT(2) 
PARAMETRIC_REPRESENTATION_CONTEXT() REPRESENTATION_CONTEXT('2D SPACE',''
  ) );
#184 = ORIENTED_EDGE('',*,*,#185,.F.);
#185 = EDGE_CURVE('',#186,#153,#188,.T.);
#186 = VERTEX_POINT('',#187);
#187 = CARTESIAN_POINT('',(30.,-21.93973703538,-3.494717740116));
#188 = SURFACE_CURVE('',#189,(#194,#235),.PCURVE_S1.);
#189 = CIRCLE('',#190,3.708099243548);
#190 = AXIS2_PLACEMENT_3D('',#191,#192,#193);
#191 = CARTESIAN_POINT('',(30.,-20.7,0.));
#192 = DIRECTION('',(1.,-0.,0.));
#193 = DIRECTION('',(0.,0.207911690818,-0.978147600734));
#194 = PCURVE('',#33,#195);
#195 = DEFINITIONAL_REPRESENTATION('',(#196),#234);
#196 = B_SPLINE_CURVE_WITH_KNOTS('',8,(#197,#198,#199,#200,#201,#202,
    #203,#204,#205,#206,#207,#208,#209,#210,#211,#212,#213,#214,#215,
    #216,#217,#218,#219,#220,#221,#222,#223,#224,#225,#226,#227,#228,
    #229,#230,#231,#232,#233),.UNSPECIFIED.,.F.,.F.,(9,7,7,7,7,9),(
    5.732849214253,5.998346923917,6.211975711364,6.372197301949,
    6.612529687827,6.852862073705),.UNSPECIFIED.);
#197 = CARTESIAN_POINT('',(3.799964600456,0.911051220813));
#198 = CARTESIAN_POINT('',(3.826140986747,0.937301950568));
#199 = CARTESIAN_POINT('',(3.854951296047,0.962945259923));
#200 = CARTESIAN_POINT('',(3.886735884377,0.98788247486));
#201 = CARTESIAN_POINT('',(3.921887673781,1.011992695502));
#202 = CARTESIAN_POINT('',(3.960848985199,1.035128494899));
#203 = CARTESIAN_POINT('',(4.004110210106,1.057105041583));
#204 = CARTESIAN_POINT('',(4.052150210141,1.07769316887));
#205 = CARTESIAN_POINT('',(4.147990996728,1.111861670455));
#206 = CARTESIAN_POINT('',(4.194004818087,1.12602541334));
#207 = CARTESIAN_POINT('',(4.243451388532,1.138979434621));
#208 = CARTESIAN_POINT('',(4.2963991161,1.150571625026));
#209 = CARTESIAN_POINT('',(4.352788238897,1.160636592745));
#210 = CARTESIAN_POINT('',(4.41232294166,1.169011005507));
#211 = CARTESIAN_POINT('',(4.474413787617,1.175556468919));
#212 = CARTESIAN_POINT('',(4.586186093973,1.183651593057));
#213 = CARTESIAN_POINT('',(4.635089218374,1.186041067413));
#214 = CARTESIAN_POINT('',(4.684665149973,1.187312306921));
#215 = CARTESIAN_POINT('',(4.734526209671,1.187441201621));
#216 = CARTESIAN_POINT('',(4.784246862207,1.186423079654));
#217 = CARTESIAN_POINT('',(4.833411955623,1.184273725561));
#218 = CARTESIAN_POINT('',(4.881661693395,1.181026799749));
#219 = CARTESIAN_POINT('',(4.999266847864,1.170280349758));
#220 = CARTESIAN_POINT('',(5.067112638466,1.161466295613));
#221 = CARTESIAN_POINT('',(5.131256194976,1.150441171745));
#222 = CARTESIAN_POINT('',(5.191053715225,1.137424144927));
#223 = CARTESIAN_POINT('',(5.246345569034,1.122659921608));
#224 = CARTESIAN_POINT('',(5.2972379475,1.106372376228));
#225 = CARTESIAN_POINT('',(5.343969055388,1.08876200706));
#226 = CARTESIAN_POINT('',(5.429708154343,1.051242063605));
#227 = CARTESIAN_POINT('',(5.468716062148,1.031332487465));
#228 = CARTESIAN_POINT('',(5.504161891457,1.010446765276));
#229 = CARTESIAN_POINT('',(5.536404263078,0.98873129886));
#230 = CARTESIAN_POINT('',(5.565787135964,0.966305669018));
#231 = CARTESIAN_POINT('',(5.592618155939,0.943267488942));
#232 = CARTESIAN_POINT('',(5.617171069355,0.919698032446));
#233 = CARTESIAN_POINT('',(5.639684198386,0.895664793858));
#234 = ( GEOMETRIC_REPRESENTATION_CONTEXT(2) 
PARAMETRIC_REPRESENTATION_CONTEXT() REPRESENTATION_CONTEXT('2D SPACE',''
  ) );
#235 = PCURVE('',#236,#241);
#236 = PLANE('',#237);
#237 = AXIS2_PLACEMENT_3D('',#238,#239,#240);
#238 = CARTESIAN_POINT('',(30.,-22.65629520146,-0.415823381636));
#239 = DIRECTION('',(1.,0.,0.));
#240 = DIRECTION('',(0.,0.207911690818,-0.978147600734));
#241 = DEFINITIONAL_REPRESENTATION('',(#242),#246);
#242 = CIRCLE('',#243,3.708099243548);
#243 = AXIS2_PLACEMENT_2D('',#244,#245);
#244 = CARTESIAN_POINT('',(5.551115123126E-17,2.));
#245 = DIRECTION('',(1.,0.));
#246 = ( GEOMETRIC_REPRESENTATION_CONTEXT(2) 
PARAMETRIC_REPRESENTATION_CONTEXT() REPRESENTATION_CONTEXT('2D SPACE',''
  ) );
#247 = ORIENTED_EDGE('',*,*,#248,.F.);
#248 = EDGE_CURVE('',#249,#186,#251,.T.);
#249 = VERTEX_POINT('',#250);
#250 = CARTESIAN_POINT('',(31.5,-23.32423611596,3.018838320891));
#251 = SURFACE_CURVE('',#252,(#257,#305),.PCURVE_S1.);
#252 = CIRCLE('',#253,3.498478828558);
#253 = AXIS2_PLACEMENT_3D('',#254,#255,#256);
#254 = CARTESIAN_POINT('',(31.5,-22.59686146742,-0.403190351481));
#255 = DIRECTION('',(-0.,-0.978147600734,-0.207911690818));
#256 = DIRECTION('',(0.,-0.207911690818,0.978147600734));
#257 = PCURVE('',#33,#258);
#258 = DEFINITIONAL_REPRESENTATION('',(#259),#304);
#259 = B_SPLINE_CURVE_WITH_KNOTS('',8,(#260,#261,#262,#263,#264,#265,
    #266,#267,#268,#269,#270,#271,#272,#273,#274,#275,#276,#277,#278,
    #279,#280,#281,#282,#283,#284,#285,#286,#287,#288,#289,#290,#291,
    #292,#293,#294,#295,#296,#297,#298,#299,#300,#301,#302,#303),
  .UNSPECIFIED.,.F.,.F.,(9,7,7,7,7,7,9),(0.,0.196349540849,
    0.576776776245,0.933427309428,1.602147059147,2.187276840151,
    2.698475351222),.UNSPECIFIED.);
#260 = CARTESIAN_POINT('',(3.14159265359,-1.064650843717));
#261 = CARTESIAN_POINT('',(3.185870647142,-1.064650843717));
#262 = CARTESIAN_POINT('',(3.230148490719,-1.063408904046));
#263 = CARTESIAN_POINT('',(3.274121788961,-1.060924761739));
#264 = CARTESIAN_POINT('',(3.317483594474,-1.057216033841));
#265 = CARTESIAN_POINT('',(3.359955559254,-1.052316934482));
#266 = CARTESIAN_POINT('',(3.401307426048,-1.046275560021));
#267 = CARTESIAN_POINT('',(3.441364859643,-1.039149742268));
#268 = CARTESIAN_POINT('',(3.554872087569,-1.015214191865));
#269 = CARTESIAN_POINT('',(3.624420422888,-0.995588986484));
#270 = CARTESIAN_POINT('',(3.687757972399,-0.972578270846));
#271 = CARTESIAN_POINT('',(3.744728311103,-0.946706855149));
#272 = CARTESIAN_POINT('',(3.795781518123,-0.918449376577));
#273 = CARTESIAN_POINT('',(3.841440871849,-0.888193027032));
#274 = CARTESIAN_POINT('',(3.882278413357,-0.856259282849));
#275 = CARTESIAN_POINT('',(3.953079579329,-0.791644624432));
#276 = CARTESIAN_POINT('',(3.98356341454,-0.759135171297));
#277 = CARTESIAN_POINT('',(4.010708669858,-0.725597379405));
#278 = CARTESIAN_POINT('',(4.034922355515,-0.691201896757));
#279 = CARTESIAN_POINT('',(4.056550996741,-0.656084238125));
#280 = CARTESIAN_POINT('',(4.075882968061,-0.620353928464));
#281 = CARTESIAN_POINT('',(4.093162177863,-0.584101585203));
#282 = CARTESIAN_POINT('',(4.137519574479,-0.47859289615));
#283 = CARTESIAN_POINT('',(4.159942612822,-0.408213867718));
#284 = CARTESIAN_POINT('',(4.177196519822,-0.336764655276));
#285 = CARTESIAN_POINT('',(4.19011894048,-0.264564990794));
#286 = CARTESIAN_POINT('',(4.199237087532,-0.191854843417));
#287 = CARTESIAN_POINT('',(4.204866750063,-0.118834643904));
#288 = CARTESIAN_POINT('',(4.207146910038,-4.568207293147E-02));
#289 = CARTESIAN_POINT('',(4.205062183906,9.138227439938E-02));
#290 = CARTESIAN_POINT('',(4.201492297168,0.155306222724));
#291 = CARTESIAN_POINT('',(4.19529695365,0.219067656187));
#292 = CARTESIAN_POINT('',(4.186341070729,0.282541495286));
#293 = CARTESIAN_POINT('',(4.174379272463,0.345586390049));
#294 = CARTESIAN_POINT('',(4.159032658608,0.408033784449));
#295 = CARTESIAN_POINT('',(4.139735882365,0.469665597137));
#296 = CARTESIAN_POINT('',(4.094596925759,0.583021749052));
#297 = CARTESIAN_POINT('',(4.069889950671,0.63501402349));
#298 = CARTESIAN_POINT('',(4.040959598253,0.685931172459));
#299 = CARTESIAN_POINT('',(4.007085460158,0.735506903747));
#300 = CARTESIAN_POINT('',(3.967324238863,0.783383479758));
#301 = CARTESIAN_POINT('',(3.92051886539,0.829095600686));
#302 = CARTESIAN_POINT('',(3.865124190219,0.871955406962));
#303 = CARTESIAN_POINT('',(3.799964595792,0.911051223638));
#304 = ( GEOMETRIC_REPRESENTATION_CONTEXT(2) 
PARAMETRIC_REPRESENTATION_CONTEXT() REPRESENTATION_CONTEXT('2D SPACE',''
  ) );
#305 = PCURVE('',#306,#311);
#306 = CONICAL_SURFACE('',#307,0.,1.064650843717);
#307 = AXIS2_PLACEMENT_3D('',#308,#309,#310);
#308 = CARTESIAN_POINT('',(31.5,-20.7,0.));
#309 = DIRECTION('',(0.,-0.978147600734,-0.207911690818));
#310 = DIRECTION('',(0.,-0.207911690818,0.978147600734));
#311 = DEFINITIONAL_REPRESENTATION('',(#312),#315);
#312 = B_SPLINE_CURVE_WITH_KNOTS('',1,(#313,#314),.UNSPECIFIED.,.F.,.F.,
  (2,2),(0.,2.698475351222),.PIECEWISE_BEZIER_KNOTS.);
#313 = CARTESIAN_POINT('',(0.,1.939238480985));
#314 = CARTESIAN_POINT('',(2.698475351222,1.939238480985));
#315 = ( GEOMETRIC_REPRESENTATION_CONTEXT(2) 
PARAMETRIC_REPRESENTATION_CONTEXT() REPRESENTATION_CONTEXT('2D SPACE',''
  ) );
#316 = ORIENTED_EDGE('',*,*,#317,.F.);
#317 = EDGE_CURVE('',#22,#249,#318,.T.);
#318 = SURFACE_CURVE('',#319,(#324,#379),.PCURVE_S1.);
#319 = CIRCLE('',#320,3.498478828558);
#320 = AXIS2_PLACEMENT_3D('',#321,#322,#323);
#321 = CARTESIAN_POINT('',(31.5,-22.59686146742,-0.403190351481));
#322 = DIRECTION('',(-0.,-0.978147600734,-0.207911690818));
#323 = DIRECTION('',(0.,-0.207911690818,0.978147600734));
#324 = PCURVE('',#33,#325);
#325 = DEFINITIONAL_REPRESENTATION('',(#326),#378);
#326 = B_SPLINE_CURVE_WITH_KNOTS('',8,(#327,#328,#329,#330,#331,#332,
    #333,#334,#335,#336,#337,#338,#339,#340,#341,#342,#343,#344,#345,
    #346,#347,#348,#349,#350,#351,#352,#353,#354,#355,#356,#357,#358,
    #359,#360,#361,#362,#363,#364,#365,#366,#367,#368,#369,#370,#371,
    #372,#373,#374,#375,#376,#377),.UNSPECIFIED.,.F.,.F.,(9,7,7,7,7,7,7,
    9),(3.584709955957,3.699258676264,4.022249505128,4.587483455641,
    5.43533438141,5.859259844295,6.071222575737,6.28318530718),
  .UNSPECIFIED.);
#327 = CARTESIAN_POINT('',(2.483220713969,0.911051223316));
#328 = CARTESIAN_POINT('',(2.46861982825,0.902290683405));
#329 = CARTESIAN_POINT('',(2.454509248654,0.893341152207));
#330 = CARTESIAN_POINT('',(2.440875754202,0.884212878948));
#331 = CARTESIAN_POINT('',(2.427705193219,0.874915557658));
#332 = CARTESIAN_POINT('',(2.41498290295,0.865458320079));
#333 = CARTESIAN_POINT('',(2.402694017119,0.855849751117));
#334 = CARTESIAN_POINT('',(2.390823680423,0.846097912364));
#335 = CARTESIAN_POINT('',(2.347025769781,0.808330593049));
#336 = CARTESIAN_POINT('',(2.31790585752,0.779371794709));
#337 = CARTESIAN_POINT('',(2.291669174086,0.7495034729));
#338 = CARTESIAN_POINT('',(2.268000540982,0.718863445259));
#339 = CARTESIAN_POINT('',(2.246623075797,0.687563683826));
#340 = CARTESIAN_POINT('',(2.227299843376,0.655696259879));
#341 = CARTESIAN_POINT('',(2.209826540627,0.623338305859));
#342 = CARTESIAN_POINT('',(2.166385179906,0.533183989002));
#343 = CARTESIAN_POINT('',(2.143874779452,0.474510216219));
#344 = CARTESIAN_POINT('',(2.125566627494,0.414882510331));
#345 = CARTESIAN_POINT('',(2.110812720948,0.354539100705));
#346 = CARTESIAN_POINT('',(2.099162895354,0.293660042684));
#347 = CARTESIAN_POINT('',(2.090306895705,0.232391876751));
#348 = CARTESIAN_POINT('',(2.084042165056,0.170859181155));
#349 = CARTESIAN_POINT('',(2.074599217965,1.665562761753E-02));
#350 = CARTESIAN_POINT('',(2.074530005485,-7.620113822745E-02));
#351 = CARTESIAN_POINT('',(2.079708707364,-0.169002814334));
#352 = CARTESIAN_POINT('',(2.090268260588,-0.261404676171));
#353 = CARTESIAN_POINT('',(2.106780396839,-0.353032871111));
#354 = CARTESIAN_POINT('',(2.130279775679,-0.443399911539));
#355 = CARTESIAN_POINT('',(2.162662931045,-0.531842198832));
#356 = CARTESIAN_POINT('',(2.229708743493,-0.659678473839));
#357 = CARTESIAN_POINT('',(2.255135735323,-0.701486043011));
#358 = CARTESIAN_POINT('',(2.284069232703,-0.742327226257));
#359 = CARTESIAN_POINT('',(2.317031241628,-0.782001412072));
#360 = CARTESIAN_POINT('',(2.35465468931,-0.820251951281));
#361 = CARTESIAN_POINT('',(2.397687687464,-0.856752711238));
#362 = CARTESIAN_POINT('',(2.446987988064,-0.891063792813));
#363 = CARTESIAN_POINT('',(2.53127558002,-0.938431240627));
#364 = CARTESIAN_POINT('',(2.561094486134,-0.95353721416));
#365 = CARTESIAN_POINT('',(2.592713668774,-0.967892062786));
#366 = CARTESIAN_POINT('',(2.626197991649,-0.981421678257));
#367 = CARTESIAN_POINT('',(2.661585960314,-0.994045712055));
#368 = CARTESIAN_POINT('',(2.698875208089,-1.0056793966));
#369 = CARTESIAN_POINT('',(2.738007455361,-1.016237268827));
#370 = CARTESIAN_POINT('',(2.819698429182,-1.035040323502));
#371 = CARTESIAN_POINT('',(2.862257323232,-1.043285416564));
#372 = CARTESIAN_POINT('',(2.906401153274,-1.050294061572));
#373 = CARTESIAN_POINT('',(2.951933429309,-1.055989932941));
#374 = CARTESIAN_POINT('',(2.998579501308,-1.06030856825));
#375 = CARTESIAN_POINT('',(3.045995133246,-1.063203571366));
#376 = CARTESIAN_POINT('',(3.093793792357,-1.064650843717));
#377 = CARTESIAN_POINT('',(3.14159265359,-1.064650843717));
#378 = ( GEOMETRIC_REPRESENTATION_CONTEXT(2) 
PARAMETRIC_REPRESENTATION_CONTEXT() REPRESENTATION_CONTEXT('2D SPACE',''
  ) );
#379 = PCURVE('',#306,#380);
#380 = DEFINITIONAL_REPRESENTATION('',(#381),#384);
#381 = B_SPLINE_CURVE_WITH_KNOTS('',1,(#382,#383),.UNSPECIFIED.,.F.,.F.,
  (2,2),(3.584709955957,6.28318530718),.PIECEWISE_BEZIER_KNOTS.);
#382 = CARTESIAN_POINT('',(3.584709955957,1.939238480985));
#383 = CARTESIAN_POINT('',(6.28318530718,1.939238480985));
#384 = ( GEOMETRIC_REPRESENTATION_CONTEXT(2) 
PARAMETRIC_REPRESENTATION_CONTEXT() REPRESENTATION_CONTEXT('2D SPACE',''
  ) );
#385 = ADVANCED_FACE('',(#386),#79,.T.);
#386 = FACE_BOUND('',#387,.T.);
#387 = EDGE_LOOP('',(#388,#411,#412,#440,#468));
#388 = ORIENTED_EDGE('',*,*,#389,.F.);
#389 = EDGE_CURVE('',#24,#390,#392,.T.);
#390 = VERTEX_POINT('',#391);
#391 = CARTESIAN_POINT('',(33.,-15.23467502867,-16.09286372868));
#392 = SURFACE_CURVE('',#393,(#397,#404),.PCURVE_S1.);
#393 = LINE('',#394,#395);
#394 = CARTESIAN_POINT('',(33.,-18.74370479853,0.415823381636));
#395 = VECTOR('',#396,1.);
#396 = DIRECTION('',(0.,0.207911690818,-0.978147600734));
#397 = PCURVE('',#79,#398);
#398 = DEFINITIONAL_REPRESENTATION('',(#399),#403);
#399 = LINE('',#400,#401);
#400 = CARTESIAN_POINT('',(1.110223024625E-16,4.));
#401 = VECTOR('',#402,1.);
#402 = DIRECTION('',(1.,0.));
#403 = ( GEOMETRIC_REPRESENTATION_CONTEXT(2) 
PARAMETRIC_REPRESENTATION_CONTEXT() REPRESENTATION_CONTEXT('2D SPACE',''
  ) );
#404 = PCURVE('',#117,#405);
#405 = DEFINITIONAL_REPRESENTATION('',(#406),#410);
#406 = LINE('',#407,#408);
#407 = CARTESIAN_POINT('',(0.,-3.));
#408 = VECTOR('',#409,1.);
#409 = DIRECTION('',(1.,0.));
#410 = ( GEOMETRIC_REPRESENTATION_CONTEXT(2) 
PARAMETRIC_REPRESENTATION_CONTEXT() REPRESENTATION_CONTEXT('2D SPACE',''
  ) );
#411 = ORIENTED_EDGE('',*,*,#21,.F.);
#412 = ORIENTED_EDGE('',*,*,#413,.T.);
#413 = EDGE_CURVE('',#22,#414,#416,.T.);
#414 = VERTEX_POINT('',#415);
#415 = CARTESIAN_POINT('',(33.,-21.97402947281,-3.625631271324));
#416 = SURFACE_CURVE('',#417,(#422,#429),.PCURVE_S1.);
#417 = HYPERBOLA('',#418,0.831463577179,1.5);
#418 = AXIS2_PLACEMENT_3D('',#419,#420,#421);
#419 = CARTESIAN_POINT('',(33.,-20.7,0.));
#420 = DIRECTION('',(1.,0.,0.));
#421 = DIRECTION('',(0.,-0.978147600734,-0.207911690818));
#422 = PCURVE('',#79,#423);
#423 = DEFINITIONAL_REPRESENTATION('',(#424),#428);
#424 = HYPERBOLA('',#425,0.831463577179,1.5);
#425 = AXIS2_PLACEMENT_2D('',#426,#427);
#426 = CARTESIAN_POINT('',(5.551115123126E-17,2.));
#427 = DIRECTION('',(0.,-1.));
#428 = ( GEOMETRIC_REPRESENTATION_CONTEXT(2) 
PARAMETRIC_REPRESENTATION_CONTEXT() REPRESENTATION_CONTEXT('2D SPACE',''
  ) );
#429 = PCURVE('',#306,#430);
#430 = DEFINITIONAL_REPRESENTATION('',(#431),#439);
#431 = B_SPLINE_CURVE_WITH_KNOTS('',6,(#432,#433,#434,#435,#436,#437,
    #438),.UNSPECIFIED.,.F.,.F.,(7,7),(1.490515144244,1.524549722489),
  .PIECEWISE_BEZIER_KNOTS.);
#432 = CARTESIAN_POINT('',(3.584709972901,1.939238493245));
#433 = CARTESIAN_POINT('',(3.58227787402,1.949176282261));
#434 = CARTESIAN_POINT('',(3.579860731151,1.959188948551));
#435 = CARTESIAN_POINT('',(3.57745845523,1.969277067695));
#436 = CARTESIAN_POINT('',(3.575070957048,1.979441222506));
#437 = CARTESIAN_POINT('',(3.572698147306,1.98968200314));
#438 = CARTESIAN_POINT('',(3.570339936653,2.000000007208));
#439 = ( GEOMETRIC_REPRESENTATION_CONTEXT(2) 
PARAMETRIC_REPRESENTATION_CONTEXT() REPRESENTATION_CONTEXT('2D SPACE',''
  ) );
#440 = ORIENTED_EDGE('',*,*,#441,.T.);
#441 = EDGE_CURVE('',#414,#442,#444,.T.);
#442 = VERTEX_POINT('',#443);
#443 = CARTESIAN_POINT('',(33.,-19.14726543161,-16.92451049195));
#444 = SURFACE_CURVE('',#445,(#449,#456),.PCURVE_S1.);
#445 = LINE('',#446,#447);
#446 = CARTESIAN_POINT('',(33.,-22.65629520146,-0.415823381636));
#447 = VECTOR('',#448,1.);
#448 = DIRECTION('',(0.,0.207911690818,-0.978147600734));
#449 = PCURVE('',#79,#450);
#450 = DEFINITIONAL_REPRESENTATION('',(#451),#455);
#451 = LINE('',#452,#453);
#452 = CARTESIAN_POINT('',(0.,0.));
#453 = VECTOR('',#454,1.);
#454 = DIRECTION('',(1.,0.));
#455 = ( GEOMETRIC_REPRESENTATION_CONTEXT(2) 
PARAMETRIC_REPRESENTATION_CONTEXT() REPRESENTATION_CONTEXT('2D SPACE',''
  ) );
#456 = PCURVE('',#457,#462);
#457 = PLANE('',#458);
#458 = AXIS2_PLACEMENT_3D('',#459,#460,#461);
#459 = CARTESIAN_POINT('',(30.,-22.65629520146,-0.415823381636));
#460 = DIRECTION('',(0.,0.978147600734,0.207911690818));
#461 = DIRECTION('',(0.,0.207911690818,-0.978147600734));
#462 = DEFINITIONAL_REPRESENTATION('',(#463),#467);
#463 = LINE('',#464,#465);
#464 = CARTESIAN_POINT('',(0.,-3.));
#465 = VECTOR('',#466,1.);
#466 = DIRECTION('',(1.,0.));
#467 = ( GEOMETRIC_REPRESENTATION_CONTEXT(2) 
PARAMETRIC_REPRESENTATION_CONTEXT() REPRESENTATION_CONTEXT('2D SPACE',''
  ) );
#468 = ORIENTED_EDGE('',*,*,#469,.F.);
#469 = EDGE_CURVE('',#390,#442,#470,.T.);
#470 = SURFACE_CURVE('',#471,(#476,#483),.PCURVE_S1.);
#471 = CIRCLE('',#472,3.708099243548);
#472 = AXIS2_PLACEMENT_3D('',#473,#474,#475);
#473 = CARTESIAN_POINT('',(33.,-16.54176618364,-19.56295201467));
#474 = DIRECTION('',(1.,-0.,0.));
#475 = DIRECTION('',(0.,0.207911690818,-0.978147600734));
#476 = PCURVE('',#79,#477);
#477 = DEFINITIONAL_REPRESENTATION('',(#478),#482);
#478 = CIRCLE('',#479,3.708099243548);
#479 = AXIS2_PLACEMENT_2D('',#480,#481);
#480 = CARTESIAN_POINT('',(20.,2.));
#481 = DIRECTION('',(1.,0.));
#482 = ( GEOMETRIC_REPRESENTATION_CONTEXT(2) 
PARAMETRIC_REPRESENTATION_CONTEXT() REPRESENTATION_CONTEXT('2D SPACE',''
  ) );
#483 = PCURVE('',#484,#489);
#484 = SPHERICAL_SURFACE('',#485,4.);
#485 = AXIS2_PLACEMENT_3D('',#486,#487,#488);
#486 = CARTESIAN_POINT('',(31.5,-16.54176618364,-19.56295201467));
#487 = DIRECTION('',(0.,0.207911690818,-0.978147600734));
#488 = DIRECTION('',(0.,0.978147600734,0.207911690818));
#489 = DEFINITIONAL_REPRESENTATION('',(#490),#528);
#490 = B_SPLINE_CURVE_WITH_KNOTS('',8,(#491,#492,#493,#494,#495,#496,
    #497,#498,#499,#500,#501,#502,#503,#504,#505,#506,#507,#508,#509,
    #510,#511,#512,#513,#514,#515,#516,#517,#518,#519,#520,#521,#522,
    #523,#524,#525,#526,#527),.UNSPECIFIED.,.F.,.F.,(9,7,7,7,7,9),(
    2.571915887065,2.856754270327,3.070383057774,3.230604648359,
    3.470937034237,3.711269420115),.UNSPECIFIED.);
#491 = CARTESIAN_POINT('',(0.643501108793,-0.895664793858));
#492 = CARTESIAN_POINT('',(0.670183335793,-0.924148632184));
#493 = CARTESIAN_POINT('',(0.699730828681,-0.951980968988));
#494 = CARTESIAN_POINT('',(0.732540005537,-0.979049704909));
#495 = CARTESIAN_POINT('',(0.769078347311,-1.005214657184));
#496 = CARTESIAN_POINT('',(0.809877965075,-1.030303727047));
#497 = CARTESIAN_POINT('',(0.855545325355,-1.054096701617));
#498 = CARTESIAN_POINT('',(0.906688796669,-1.076313905063));
#499 = CARTESIAN_POINT('',(1.006398343138,-1.111861670455));
#500 = CARTESIAN_POINT('',(1.052412164497,-1.12602541334));
#501 = CARTESIAN_POINT('',(1.101858734943,-1.138979434621));
#502 = CARTESIAN_POINT('',(1.15480646251,-1.150571625026));
#503 = CARTESIAN_POINT('',(1.211195585307,-1.160636592746));
#504 = CARTESIAN_POINT('',(1.27073028807,-1.169011005507));
#505 = CARTESIAN_POINT('',(1.332821134028,-1.175556468919));
#506 = CARTESIAN_POINT('',(1.444593440383,-1.183651593057));
#507 = CARTESIAN_POINT('',(1.493496564784,-1.186041067413));
#508 = CARTESIAN_POINT('',(1.543072496384,-1.187312306921));
#509 = CARTESIAN_POINT('',(1.592933556081,-1.187441201621));
#510 = CARTESIAN_POINT('',(1.642654208617,-1.186423079654));
#511 = CARTESIAN_POINT('',(1.691819302033,-1.184273725561));
#512 = CARTESIAN_POINT('',(1.740069039806,-1.181026799749));
#513 = CARTESIAN_POINT('',(1.857674194274,-1.170280349758));
#514 = CARTESIAN_POINT('',(1.92551998487,-1.161466295616));
#515 = CARTESIAN_POINT('',(1.989663541421,-1.150441171736));
#516 = CARTESIAN_POINT('',(2.04946106161,-1.137424144936));
#517 = CARTESIAN_POINT('',(2.104752915472,-1.122659921597));
#518 = CARTESIAN_POINT('',(2.155645293908,-1.10637237623));
#519 = CARTESIAN_POINT('',(2.202376401798,-1.08876200706));
#520 = CARTESIAN_POINT('',(2.288115500754,-1.051242063605));
#521 = CARTESIAN_POINT('',(2.327123408558,-1.031332487466));
#522 = CARTESIAN_POINT('',(2.362569237868,-1.010446765275));
#523 = CARTESIAN_POINT('',(2.394811609488,-0.98873129886));
#524 = CARTESIAN_POINT('',(2.424194482373,-0.966305669018));
#525 = CARTESIAN_POINT('',(2.45102550235,-0.943267488942));
#526 = CARTESIAN_POINT('',(2.475578415765,-0.919698032446));
#527 = CARTESIAN_POINT('',(2.498091544797,-0.895664793858));
#528 = ( GEOMETRIC_REPRESENTATION_CONTEXT(2) 
PARAMETRIC_REPRESENTATION_CONTEXT() REPRESENTATION_CONTEXT('2D SPACE',''
  ) );
#529 = ADVANCED_FACE('',(#530),#306,.F.);
#530 = FACE_BOUND('',#531,.F.);
#531 = EDGE_LOOP('',(#532,#533,#554,#684,#685,#686,#687,#714));
#532 = ORIENTED_EDGE('',*,*,#248,.F.);
#533 = ORIENTED_EDGE('',*,*,#534,.F.);
#534 = EDGE_CURVE('',#535,#249,#537,.T.);
#535 = VERTEX_POINT('',#536);
#536 = CARTESIAN_POINT('',(31.5,-22.30734462102,1.849038471546));
#537 = SEAM_CURVE('',#538,(#542,#548),.PCURVE_S1.);
#538 = LINE('',#539,#540);
#539 = CARTESIAN_POINT('',(31.5,-20.7,0.));
#540 = VECTOR('',#541,1.);
#541 = DIRECTION('',(2.142200449639E-16,-0.656059028991,0.754709580223)
  );
#542 = PCURVE('',#306,#543);
#543 = DEFINITIONAL_REPRESENTATION('',(#544),#547);
#544 = B_SPLINE_CURVE_WITH_KNOTS('',1,(#545,#546),.UNSPECIFIED.,.F.,.F.,
  (2,2),(2.45,4.),.PIECEWISE_BEZIER_KNOTS.);
#545 = CARTESIAN_POINT('',(6.28318530718,1.187783569604));
#546 = CARTESIAN_POINT('',(6.28318530718,1.939238480985));
#547 = ( GEOMETRIC_REPRESENTATION_CONTEXT(2) 
PARAMETRIC_REPRESENTATION_CONTEXT() REPRESENTATION_CONTEXT('2D SPACE',''
  ) );
#548 = PCURVE('',#306,#549);
#549 = DEFINITIONAL_REPRESENTATION('',(#550),#553);
#550 = B_SPLINE_CURVE_WITH_KNOTS('',1,(#551,#552),.UNSPECIFIED.,.F.,.F.,
  (2,2),(2.45,4.),.PIECEWISE_BEZIER_KNOTS.);
#551 = CARTESIAN_POINT('',(0.,1.187783569604));
#552 = CARTESIAN_POINT('',(0.,1.939238480985));
#553 = ( GEOMETRIC_REPRESENTATION_CONTEXT(2) 
PARAMETRIC_REPRESENTATION_CONTEXT() REPRESENTATION_CONTEXT('2D SPACE',''
  ) );
#554 = ORIENTED_EDGE('',*,*,#555,.T.);
#555 = EDGE_CURVE('',#535,#535,#556,.T.);
#556 = SURFACE_CURVE('',#557,(#562,#568),.PCURVE_S1.);
#557 = CIRCLE('',#558,2.142818282492);
#558 = AXIS2_PLACEMENT_3D('',#559,#560,#561);
#559 = CARTESIAN_POINT('',(31.5,-21.86182764879,-0.246954090282));
#560 = DIRECTION('',(-0.,-0.978147600734,-0.207911690818));
#561 = DIRECTION('',(0.,-0.207911690818,0.978147600734));
#562 = PCURVE('',#306,#563);
#563 = DEFINITIONAL_REPRESENTATION('',(#564),#567);
#564 = B_SPLINE_CURVE_WITH_KNOTS('',1,(#565,#566),.UNSPECIFIED.,.F.,.F.,
  (2,2),(0.,6.28318530718),.PIECEWISE_BEZIER_KNOTS.);
#565 = CARTESIAN_POINT('',(0.,1.187783569604));
#566 = CARTESIAN_POINT('',(6.28318530718,1.187783569604));
#567 = ( GEOMETRIC_REPRESENTATION_CONTEXT(2) 
PARAMETRIC_REPRESENTATION_CONTEXT() REPRESENTATION_CONTEXT('2D SPACE',''
  ) );
#568 = PCURVE('',#569,#574);
#569 = SPHERICAL_SURFACE('',#570,2.45);
#570 = AXIS2_PLACEMENT_3D('',#571,#572,#573);
#571 = CARTESIAN_POINT('',(31.5,-20.7,0.));
#572 = DIRECTION('',(0.,0.207911690818,-0.978147600734));
#573 = DIRECTION('',(0.,0.978147600734,0.207911690818));
#574 = DEFINITIONAL_REPRESENTATION('',(#575),#683);
#575 = B_SPLINE_CURVE_WITH_KNOTS('',8,(#576,#577,#578,#579,#580,#581,
    #582,#583,#584,#585,#586,#587,#588,#589,#590,#591,#592,#593,#594,
    #595,#596,#597,#598,#599,#600,#601,#602,#603,#604,#605,#606,#607,
    #608,#609,#610,#611,#612,#613,#614,#615,#616,#617,#618,#619,#620,
    #621,#622,#623,#624,#625,#626,#627,#628,#629,#630,#631,#632,#633,
    #634,#635,#636,#637,#638,#639,#640,#641,#642,#643,#644,#645,#646,
    #647,#648,#649,#650,#651,#652,#653,#654,#655,#656,#657,#658,#659,
    #660,#661,#662,#663,#664,#665,#666,#667,#668,#669,#670,#671,#672,
    #673,#674,#675,#676,#677,#678,#679,#680,#681,#682),.UNSPECIFIED.,.F.
  ,.F.,(9,7,7,7,7,7,7,7,7,7,7,7,7,7,7,9),(0.,0.196349540849,
    0.576776776245,0.933427309428,1.602147059147,2.187276840151,
    2.69926539853,2.923260392821,3.133255699968,3.330126300419,
    3.699258676264,4.345240333993,5.314212820586,5.798699063883,
    6.040942185531,6.28318530718),.UNSPECIFIED.);
#576 = CARTESIAN_POINT('',(3.14159265359,-1.064650843717));
#577 = CARTESIAN_POINT('',(3.185870647142,-1.064650843717));
#578 = CARTESIAN_POINT('',(3.230148490719,-1.063408904046));
#579 = CARTESIAN_POINT('',(3.274121788961,-1.060924761739));
#580 = CARTESIAN_POINT('',(3.317483594474,-1.057216033841));
#581 = CARTESIAN_POINT('',(3.359955559254,-1.052316934482));
#582 = CARTESIAN_POINT('',(3.401307426048,-1.046275560021));
#583 = CARTESIAN_POINT('',(3.441364859643,-1.039149742268));
#584 = CARTESIAN_POINT('',(3.554872087569,-1.015214191865));
#585 = CARTESIAN_POINT('',(3.624420422888,-0.995588986482));
#586 = CARTESIAN_POINT('',(3.687757972399,-0.972578270849));
#587 = CARTESIAN_POINT('',(3.744728311103,-0.946706855145));
#588 = CARTESIAN_POINT('',(3.795781518123,-0.918449376584));
#589 = CARTESIAN_POINT('',(3.841440871849,-0.888193027031));
#590 = CARTESIAN_POINT('',(3.882278413357,-0.856259282849));
#591 = CARTESIAN_POINT('',(3.953079579329,-0.791644624432));
#592 = CARTESIAN_POINT('',(3.98356341454,-0.759135171297));
#593 = CARTESIAN_POINT('',(4.010708669858,-0.725597379405));
#594 = CARTESIAN_POINT('',(4.034922355516,-0.691201896757));
#595 = CARTESIAN_POINT('',(4.056550996742,-0.656084238125));
#596 = CARTESIAN_POINT('',(4.075882968061,-0.620353928464));
#597 = CARTESIAN_POINT('',(4.093162177863,-0.584101585203));
#598 = CARTESIAN_POINT('',(4.137519574479,-0.47859289615));
#599 = CARTESIAN_POINT('',(4.159942612821,-0.408213867718));
#600 = CARTESIAN_POINT('',(4.177196519824,-0.336764655276));
#601 = CARTESIAN_POINT('',(4.19011894048,-0.264564990794));
#602 = CARTESIAN_POINT('',(4.19923708753,-0.191854843417));
#603 = CARTESIAN_POINT('',(4.204866750063,-0.118834643904));
#604 = CARTESIAN_POINT('',(4.207146910038,-4.568207293147E-02));
#605 = CARTESIAN_POINT('',(4.205062183906,9.138227439938E-02));
#606 = CARTESIAN_POINT('',(4.201492297168,0.155306222724));
#607 = CARTESIAN_POINT('',(4.19529695365,0.219067656187));
#608 = CARTESIAN_POINT('',(4.186341070729,0.282541495286));
#609 = CARTESIAN_POINT('',(4.174379272463,0.345586390049));
#610 = CARTESIAN_POINT('',(4.159032658608,0.408033784449));
#611 = CARTESIAN_POINT('',(4.139735882365,0.469665597137));
#612 = CARTESIAN_POINT('',(4.094564397262,0.583103436922));
#613 = CARTESIAN_POINT('',(4.069813573637,0.635174727515));
#614 = CARTESIAN_POINT('',(4.040825434105,0.686167239129));
#615 = CARTESIAN_POINT('',(4.006875982024,0.735813357816));
#616 = CARTESIAN_POINT('',(3.967016847262,0.783753400723));
#617 = CARTESIAN_POINT('',(3.92008459219,0.829519406241));
#618 = CARTESIAN_POINT('',(3.864524479476,0.872418936755));
#619 = CARTESIAN_POINT('',(3.77056062444,0.928647337954));
#620 = CARTESIAN_POINT('',(3.74008578131,0.945036066653));
#621 = CARTESIAN_POINT('',(3.707636145932,0.96062360902));
#622 = CARTESIAN_POINT('',(3.673125367612,0.975325326135));
#623 = CARTESIAN_POINT('',(3.636494754182,0.98904827616));
#624 = CARTESIAN_POINT('',(3.597731517582,1.001693173763));
#625 = CARTESIAN_POINT('',(3.556888899965,1.013158896303));
#626 = CARTESIAN_POINT('',(3.474001255586,1.032903262265));
#627 = CARTESIAN_POINT('',(3.432190672185,1.041336234852));
#628 = CARTESIAN_POINT('',(3.388791713481,1.048569946633));
#629 = CARTESIAN_POINT('',(3.343983566414,1.054528847252));
#630 = CARTESIAN_POINT('',(3.298021034775,1.059147920349));
#631 = CARTESIAN_POINT('',(3.251228259852,1.062378653804));
#632 = CARTESIAN_POINT('',(3.2039744484,1.06419340379));
#633 = CARTESIAN_POINT('',(3.112247695007,1.064958229686));
#634 = CARTESIAN_POINT('',(3.067785843302,1.064080231915));
#635 = CARTESIAN_POINT('',(3.023552238486,1.061950230927));
#636 = CARTESIAN_POINT('',(2.979860437749,1.058582298802));
#637 = CARTESIAN_POINT('',(2.936998998215,1.054007686131));
#638 = CARTESIAN_POINT('',(2.895210518515,1.048272357401));
#639 = CARTESIAN_POINT('',(2.854682093513,1.041432883738));
#640 = CARTESIAN_POINT('',(2.7421692235,1.018771585358));
#641 = CARTESIAN_POINT('',(2.673690585553,1.000326926366));
#642 = CARTESIAN_POINT('',(2.610994992888,0.978623087921));
#643 = CARTESIAN_POINT('',(2.554309442796,0.954138636344));
#644 = CARTESIAN_POINT('',(2.503281194937,0.927317323183));
#645 = CARTESIAN_POINT('',(2.457452816576,0.89852613905));
#646 = CARTESIAN_POINT('',(2.416307621742,0.868072936632));
#647 = CARTESIAN_POINT('',(2.314694238866,0.78045083271));
#648 = CARTESIAN_POINT('',(2.262878272552,0.720375033501));
#649 = CARTESIAN_POINT('',(2.221277239356,0.657340150753));
#650 = CARTESIAN_POINT('',(2.187492200019,0.592191163832));
#651 = CARTESIAN_POINT('',(2.160100577418,0.525464479125));
#652 = CARTESIAN_POINT('',(2.137964902456,0.457561890844));
#653 = CARTESIAN_POINT('',(2.120344428535,0.388777194075));
#654 = CARTESIAN_POINT('',(2.086259163943,0.215209537679));
#655 = CARTESIAN_POINT('',(2.074778597228,0.109623567758));
#656 = CARTESIAN_POINT('',(2.070503443346,3.396724503887E-03));
#657 = CARTESIAN_POINT('',(2.072876411175,-0.102953630962));
#658 = CARTESIAN_POINT('',(2.081974901576,-0.20894681453));
#659 = CARTESIAN_POINT('',(2.098561971164,-0.314027609268));
#660 = CARTESIAN_POINT('',(2.124275385145,-0.417512792081));
#661 = CARTESIAN_POINT('',(2.182057395255,-0.568277535949));
#662 = CARTESIAN_POINT('',(2.204519889713,-0.617788595542));
#663 = CARTESIAN_POINT('',(2.230644714408,-0.666382848126));
#664 = CARTESIAN_POINT('',(2.261015043567,-0.713844598743));
#665 = CARTESIAN_POINT('',(2.296385424484,-0.759891161963));
#666 = CARTESIAN_POINT('',(2.337681661439,-0.804156042259));
#667 = CARTESIAN_POINT('',(2.38612002977,-0.846117859811));
#668 = CARTESIAN_POINT('',(2.471126355269,-0.904556052572));
#669 = CARTESIAN_POINT('',(2.501520111325,-0.92328476175));
#670 = CARTESIAN_POINT('',(2.534107522067,-0.941175049484));
#671 = CARTESIAN_POINT('',(2.569018004016,-0.958128932773));
#672 = CARTESIAN_POINT('',(2.606358697381,-0.974036141501));
#673 = CARTESIAN_POINT('',(2.646191493964,-0.988775608691));
#674 = CARTESIAN_POINT('',(2.688503445321,-1.002220488184));
#675 = CARTESIAN_POINT('',(2.777837657066,-1.026272911268));
#676 = CARTESIAN_POINT('',(2.824860356584,-1.036880264195));
#677 = CARTESIAN_POINT('',(2.874115364134,-1.045946080995));
#678 = CARTESIAN_POINT('',(2.925377277378,-1.05334793935));
#679 = CARTESIAN_POINT('',(2.978283078253,-1.058979076813));
#680 = CARTESIAN_POINT('',(3.032338374766,-1.062760649349));
#681 = CARTESIAN_POINT('',(3.08696538361,-1.064650843717));
#682 = CARTESIAN_POINT('',(3.14159265359,-1.064650843717));
#683 = ( GEOMETRIC_REPRESENTATION_CONTEXT(2) 
PARAMETRIC_REPRESENTATION_CONTEXT() REPRESENTATION_CONTEXT('2D SPACE',''
  ) );
#684 = ORIENTED_EDGE('',*,*,#534,.T.);
#685 = ORIENTED_EDGE('',*,*,#317,.F.);
#686 = ORIENTED_EDGE('',*,*,#413,.T.);
#687 = ORIENTED_EDGE('',*,*,#688,.F.);
#688 = EDGE_CURVE('',#689,#414,#691,.T.);
#689 = VERTEX_POINT('',#690);
#690 = CARTESIAN_POINT('',(30.,-21.97402947281,-3.625631271324));
#691 = SURFACE_CURVE('',#692,(#697,#703),.PCURVE_S1.);
#692 = CIRCLE('',#693,3.608095510543);
#693 = AXIS2_PLACEMENT_3D('',#694,#695,#696);
#694 = CARTESIAN_POINT('',(31.5,-22.65629520146,-0.415823381636));
#695 = DIRECTION('',(-0.,-0.978147600734,-0.207911690818));
#696 = DIRECTION('',(0.,-0.207911690818,0.978147600734));
#697 = PCURVE('',#306,#698);
#698 = DEFINITIONAL_REPRESENTATION('',(#699),#702);
#699 = B_SPLINE_CURVE_WITH_KNOTS('',1,(#700,#701),.UNSPECIFIED.,.F.,.F.,
  (2,2),(2.712845381797,3.570339925383),.PIECEWISE_BEZIER_KNOTS.);
#700 = CARTESIAN_POINT('',(2.712845381797,2.));
#701 = CARTESIAN_POINT('',(3.570339925383,2.));
#702 = ( GEOMETRIC_REPRESENTATION_CONTEXT(2) 
PARAMETRIC_REPRESENTATION_CONTEXT() REPRESENTATION_CONTEXT('2D SPACE',''
  ) );
#703 = PCURVE('',#457,#704);
#704 = DEFINITIONAL_REPRESENTATION('',(#705),#713);
#705 = ( BOUNDED_CURVE() B_SPLINE_CURVE(2,(#706,#707,#708,#709,#710,#711
,#712),.UNSPECIFIED.,.T.,.F.) B_SPLINE_CURVE_WITH_KNOTS((1,2,2,2,2,1),(
    -2.094395102393,0.,2.094395102393,4.188790204786,6.28318530718,
8.377580409573),.UNSPECIFIED.) CURVE() GEOMETRIC_REPRESENTATION_ITEM() 
RATIONAL_B_SPLINE_CURVE((1.,0.5,1.,0.5,1.,0.5,1.)) REPRESENTATION_ITEM(
  '') );
#706 = CARTESIAN_POINT('',(-3.608095510543,-1.5));
#707 = CARTESIAN_POINT('',(-3.608095510543,4.749404742821));
#708 = CARTESIAN_POINT('',(1.804047755271,1.624702371411));
#709 = CARTESIAN_POINT('',(7.216191021086,-1.5));
#710 = CARTESIAN_POINT('',(1.804047755271,-4.624702371411));
#711 = CARTESIAN_POINT('',(-3.608095510543,-7.749404742821));
#712 = CARTESIAN_POINT('',(-3.608095510543,-1.5));
#713 = ( GEOMETRIC_REPRESENTATION_CONTEXT(2) 
PARAMETRIC_REPRESENTATION_CONTEXT() REPRESENTATION_CONTEXT('2D SPACE',''
  ) );
#714 = ORIENTED_EDGE('',*,*,#715,.F.);
#715 = EDGE_CURVE('',#186,#689,#716,.T.);
#716 = SURFACE_CURVE('',#717,(#722,#733),.PCURVE_S1.);
#717 = HYPERBOLA('',#718,0.831463577179,1.5);
#718 = AXIS2_PLACEMENT_3D('',#719,#720,#721);
#719 = CARTESIAN_POINT('',(30.,-20.7,0.));
#720 = DIRECTION('',(1.,0.,0.));
#721 = DIRECTION('',(0.,-0.978147600734,-0.207911690818));
#722 = PCURVE('',#306,#723);
#723 = DEFINITIONAL_REPRESENTATION('',(#724),#732);
#724 = B_SPLINE_CURVE_WITH_KNOTS('',6,(#725,#726,#727,#728,#729,#730,
    #731),.UNSPECIFIED.,.F.,.F.,(7,7),(1.490515144244,1.524549722489),
  .PIECEWISE_BEZIER_KNOTS.);
#725 = CARTESIAN_POINT('',(2.698475334278,1.939238493245));
#726 = CARTESIAN_POINT('',(2.700907433159,1.949176282261));
#727 = CARTESIAN_POINT('',(2.703324576028,1.959188948551));
#728 = CARTESIAN_POINT('',(2.705726851949,1.969277067695));
#729 = CARTESIAN_POINT('',(2.708114350131,1.979441222506));
#730 = CARTESIAN_POINT('',(2.710487159874,1.98968200314));
#731 = CARTESIAN_POINT('',(2.712845370526,2.000000007208));
#732 = ( GEOMETRIC_REPRESENTATION_CONTEXT(2) 
PARAMETRIC_REPRESENTATION_CONTEXT() REPRESENTATION_CONTEXT('2D SPACE',''
  ) );
#733 = PCURVE('',#236,#734);
#734 = DEFINITIONAL_REPRESENTATION('',(#735),#739);
#735 = HYPERBOLA('',#736,0.831463577179,1.5);
#736 = AXIS2_PLACEMENT_2D('',#737,#738);
#737 = CARTESIAN_POINT('',(5.551115123126E-17,2.));
#738 = DIRECTION('',(0.,-1.));
#739 = ( GEOMETRIC_REPRESENTATION_CONTEXT(2) 
PARAMETRIC_REPRESENTATION_CONTEXT() REPRESENTATION_CONTEXT('2D SPACE',''
  ) );
#740 = ADVANCED_FACE('',(#741),#236,.F.);
#741 = FACE_BOUND('',#742,.F.);
#742 = EDGE_LOOP('',(#743,#766,#767,#768,#791));
#743 = ORIENTED_EDGE('',*,*,#744,.F.);
#744 = EDGE_CURVE('',#153,#745,#747,.T.);
#745 = VERTEX_POINT('',#746);
#746 = CARTESIAN_POINT('',(30.,-15.23467502867,-16.09286372868));
#747 = SURFACE_CURVE('',#748,(#752,#759),.PCURVE_S1.);
#748 = LINE('',#749,#750);
#749 = CARTESIAN_POINT('',(30.,-18.74370479853,0.415823381636));
#750 = VECTOR('',#751,1.);
#751 = DIRECTION('',(0.,0.207911690818,-0.978147600734));
#752 = PCURVE('',#236,#753);
#753 = DEFINITIONAL_REPRESENTATION('',(#754),#758);
#754 = LINE('',#755,#756);
#755 = CARTESIAN_POINT('',(1.110223024625E-16,4.));
#756 = VECTOR('',#757,1.);
#757 = DIRECTION('',(1.,0.));
#758 = ( GEOMETRIC_REPRESENTATION_CONTEXT(2) 
PARAMETRIC_REPRESENTATION_CONTEXT() REPRESENTATION_CONTEXT('2D SPACE',''
  ) );
#759 = PCURVE('',#117,#760);
#760 = DEFINITIONAL_REPRESENTATION('',(#761),#765);
#761 = LINE('',#762,#763);
#762 = CARTESIAN_POINT('',(0.,0.));
#763 = VECTOR('',#764,1.);
#764 = DIRECTION('',(1.,0.));
#765 = ( GEOMETRIC_REPRESENTATION_CONTEXT(2) 
PARAMETRIC_REPRESENTATION_CONTEXT() REPRESENTATION_CONTEXT('2D SPACE',''
  ) );
#766 = ORIENTED_EDGE('',*,*,#185,.F.);
#767 = ORIENTED_EDGE('',*,*,#715,.T.);
#768 = ORIENTED_EDGE('',*,*,#769,.T.);
#769 = EDGE_CURVE('',#689,#770,#772,.T.);
#770 = VERTEX_POINT('',#771);
#771 = CARTESIAN_POINT('',(30.,-19.14726543161,-16.92451049195));
#772 = SURFACE_CURVE('',#773,(#777,#784),.PCURVE_S1.);
#773 = LINE('',#774,#775);
#774 = CARTESIAN_POINT('',(30.,-22.65629520146,-0.415823381636));
#775 = VECTOR('',#776,1.);
#776 = DIRECTION('',(0.,0.207911690818,-0.978147600734));
#777 = PCURVE('',#236,#778);
#778 = DEFINITIONAL_REPRESENTATION('',(#779),#783);
#779 = LINE('',#780,#781);
#780 = CARTESIAN_POINT('',(0.,0.));
#781 = VECTOR('',#782,1.);
#782 = DIRECTION('',(1.,0.));
#783 = ( GEOMETRIC_REPRESENTATION_CONTEXT(2) 
PARAMETRIC_REPRESENTATION_CONTEXT() REPRESENTATION_CONTEXT('2D SPACE',''
  ) );
#784 = PCURVE('',#457,#785);
#785 = DEFINITIONAL_REPRESENTATION('',(#786),#790);
#786 = LINE('',#787,#788);
#787 = CARTESIAN_POINT('',(0.,0.));
#788 = VECTOR('',#789,1.);
#789 = DIRECTION('',(1.,0.));
#790 = ( GEOMETRIC_REPRESENTATION_CONTEXT(2) 
PARAMETRIC_REPRESENTATION_CONTEXT() REPRESENTATION_CONTEXT('2D SPACE',''
  ) );
#791 = ORIENTED_EDGE('',*,*,#792,.F.);
#792 = EDGE_CURVE('',#745,#770,#793,.T.);
#793 = SURFACE_CURVE('',#794,(#799,#806),.PCURVE_S1.);
#794 = CIRCLE('',#795,3.708099243548);
#795 = AXIS2_PLACEMENT_3D('',#796,#797,#798);
#796 = CARTESIAN_POINT('',(30.,-16.54176618364,-19.56295201467));
#797 = DIRECTION('',(1.,-0.,0.));
#798 = DIRECTION('',(0.,0.207911690818,-0.978147600734));
#799 = PCURVE('',#236,#800);
#800 = DEFINITIONAL_REPRESENTATION('',(#801),#805);
#801 = CIRCLE('',#802,3.708099243548);
#802 = AXIS2_PLACEMENT_2D('',#803,#804);
#803 = CARTESIAN_POINT('',(20.,2.));
#804 = DIRECTION('',(1.,0.));
#805 = ( GEOMETRIC_REPRESENTATION_CONTEXT(2) 
PARAMETRIC_REPRESENTATION_CONTEXT() REPRESENTATION_CONTEXT('2D SPACE',''
  ) );
#806 = PCURVE('',#484,#807);
#807 = DEFINITIONAL_REPRESENTATION('',(#808),#846);
#808 = B_SPLINE_CURVE_WITH_KNOTS('',8,(#809,#810,#811,#812,#813,#814,
    #815,#816,#817,#818,#819,#820,#821,#822,#823,#824,#825,#826,#827,
    #828,#829,#830,#831,#832,#833,#834,#835,#836,#837,#838,#839,#840,
    #841,#842,#843,#844,#845),.UNSPECIFIED.,.F.,.F.,(9,7,7,7,7,9),(
    2.571915887065,2.856754270327,3.070383057774,3.230604648359,
    3.470937034237,3.711269420115),.UNSPECIFIED.);
#809 = CARTESIAN_POINT('',(5.639684198386,-0.895664793858));
#810 = CARTESIAN_POINT('',(5.613001971386,-0.924148632184));
#811 = CARTESIAN_POINT('',(5.583454478498,-0.951980968988));
#812 = CARTESIAN_POINT('',(5.550645301642,-0.979049704909));
#813 = CARTESIAN_POINT('',(5.514106959869,-1.005214657184));
#814 = CARTESIAN_POINT('',(5.473307342106,-1.030303727047));
#815 = CARTESIAN_POINT('',(5.427639981824,-1.054096701617));
#816 = CARTESIAN_POINT('',(5.376496510511,-1.076313905063));
#817 = CARTESIAN_POINT('',(5.276786964041,-1.111861670455));
#818 = CARTESIAN_POINT('',(5.230773142682,-1.12602541334));
#819 = CARTESIAN_POINT('',(5.181326572237,-1.138979434621));
#820 = CARTESIAN_POINT('',(5.12837884467,-1.150571625026));
#821 = CARTESIAN_POINT('',(5.071989721873,-1.160636592746));
#822 = CARTESIAN_POINT('',(5.01245501911,-1.169011005507));
#823 = CARTESIAN_POINT('',(4.950364173152,-1.175556468919));
#824 = CARTESIAN_POINT('',(4.838591866796,-1.183651593057));
#825 = CARTESIAN_POINT('',(4.789688742396,-1.186041067413));
#826 = CARTESIAN_POINT('',(4.740112810794,-1.187312306921));
#827 = CARTESIAN_POINT('',(4.690251751098,-1.187441201621));
#828 = CARTESIAN_POINT('',(4.640531098563,-1.186423079654));
#829 = CARTESIAN_POINT('',(4.591366005146,-1.184273725561));
#830 = CARTESIAN_POINT('',(4.543116267374,-1.181026799749));
#831 = CARTESIAN_POINT('',(4.425511112906,-1.170280349758));
#832 = CARTESIAN_POINT('',(4.357665322304,-1.161466295616));
#833 = CARTESIAN_POINT('',(4.293521765767,-1.150441171736));
#834 = CARTESIAN_POINT('',(4.233724245543,-1.137424144936));
#835 = CARTESIAN_POINT('',(4.178432391716,-1.122659921597));
#836 = CARTESIAN_POINT('',(4.127540013265,-1.10637237623));
#837 = CARTESIAN_POINT('',(4.080808905381,-1.08876200706));
#838 = CARTESIAN_POINT('',(3.995069806426,-1.051242063605));
#839 = CARTESIAN_POINT('',(3.956061898623,-1.031332487466));
#840 = CARTESIAN_POINT('',(3.92061606931,-1.010446765275));
#841 = CARTESIAN_POINT('',(3.888373697691,-0.98873129886));
#842 = CARTESIAN_POINT('',(3.858990824807,-0.966305669018));
#843 = CARTESIAN_POINT('',(3.832159804829,-0.943267488942));
#844 = CARTESIAN_POINT('',(3.807606891414,-0.919698032446));
#845 = CARTESIAN_POINT('',(3.785093762383,-0.895664793858));
#846 = ( GEOMETRIC_REPRESENTATION_CONTEXT(2) 
PARAMETRIC_REPRESENTATION_CONTEXT() REPRESENTATION_CONTEXT('2D SPACE',''
  ) );
#847 = ADVANCED_FACE('',(#848),#117,.T.);
#848 = FACE_BOUND('',#849,.T.);
#849 = EDGE_LOOP('',(#850,#851,#852,#853,#854,#887));
#850 = ORIENTED_EDGE('',*,*,#744,.F.);
#851 = ORIENTED_EDGE('',*,*,#152,.F.);
#852 = ORIENTED_EDGE('',*,*,#91,.F.);
#853 = ORIENTED_EDGE('',*,*,#389,.T.);
#854 = ORIENTED_EDGE('',*,*,#855,.F.);
#855 = EDGE_CURVE('',#856,#390,#858,.T.);
#856 = VERTEX_POINT('',#857);
#857 = CARTESIAN_POINT('',(31.5,-15.30569820614,-15.75872594949));
#858 = SURFACE_CURVE('',#859,(#864,#871),.PCURVE_S1.);
#859 = CIRCLE('',#860,3.464101615138);
#860 = AXIS2_PLACEMENT_3D('',#861,#862,#863);
#861 = CARTESIAN_POINT('',(31.5,-14.58547098217,-19.14712863304));
#862 = DIRECTION('',(0.,0.978147600734,0.207911690818));
#863 = DIRECTION('',(0.,0.207911690818,-0.978147600734));
#864 = PCURVE('',#117,#865);
#865 = DEFINITIONAL_REPRESENTATION('',(#866),#870);
#866 = CIRCLE('',#867,3.464101615138);
#867 = AXIS2_PLACEMENT_2D('',#868,#869);
#868 = CARTESIAN_POINT('',(20.,-1.5));
#869 = DIRECTION('',(1.,0.));
#870 = ( GEOMETRIC_REPRESENTATION_CONTEXT(2) 
PARAMETRIC_REPRESENTATION_CONTEXT() REPRESENTATION_CONTEXT('2D SPACE',''
  ) );
#871 = PCURVE('',#484,#872);
#872 = DEFINITIONAL_REPRESENTATION('',(#873),#886);
#873 = B_SPLINE_CURVE_WITH_KNOTS('',6,(#874,#875,#876,#877,#878,#879,
    #880,#881,#882,#883,#884,#885),.UNSPECIFIED.,.F.,.F.,(7,5,7),(
    3.14159265359,3.365508852054,3.589425050519),.UNSPECIFIED.);
#874 = CARTESIAN_POINT('',(0.,-1.047197551197));
#875 = CARTESIAN_POINT('',(6.463903872969E-02,-1.047197551197));
#876 = CARTESIAN_POINT('',(0.12927767766,-1.044303015623));
#877 = CARTESIAN_POINT('',(0.19278498839,-1.038512436278));
#878 = CARTESIAN_POINT('',(0.254011286152,-1.029951981016));
#879 = CARTESIAN_POINT('',(0.312257653997,-1.018850650673));
#880 = CARTESIAN_POINT('',(0.422065727444,-0.992057753019));
#881 = CARTESIAN_POINT('',(0.473627788745,-0.976366376397));
#882 = CARTESIAN_POINT('',(0.521481813042,-0.958627554409));
#883 = CARTESIAN_POINT('',(0.56561663688,-0.939112115217));
#884 = CARTESIAN_POINT('',(0.606211609827,-0.918056413704));
#885 = CARTESIAN_POINT('',(0.643501108793,-0.895664793858));
#886 = ( GEOMETRIC_REPRESENTATION_CONTEXT(2) 
PARAMETRIC_REPRESENTATION_CONTEXT() REPRESENTATION_CONTEXT('2D SPACE',''
  ) );
#887 = ORIENTED_EDGE('',*,*,#888,.F.);
#888 = EDGE_CURVE('',#745,#856,#889,.T.);
#889 = SURFACE_CURVE('',#890,(#895,#902),.PCURVE_S1.);
#890 = CIRCLE('',#891,3.464101615138);
#891 = AXIS2_PLACEMENT_3D('',#892,#893,#894);
#892 = CARTESIAN_POINT('',(31.5,-14.58547098217,-19.14712863304));
#893 = DIRECTION('',(0.,0.978147600734,0.207911690818));
#894 = DIRECTION('',(0.,0.207911690818,-0.978147600734));
#895 = PCURVE('',#117,#896);
#896 = DEFINITIONAL_REPRESENTATION('',(#897),#901);
#897 = CIRCLE('',#898,3.464101615138);
#898 = AXIS2_PLACEMENT_2D('',#899,#900);
#899 = CARTESIAN_POINT('',(20.,-1.5));
#900 = DIRECTION('',(1.,0.));
#901 = ( GEOMETRIC_REPRESENTATION_CONTEXT(2) 
PARAMETRIC_REPRESENTATION_CONTEXT() REPRESENTATION_CONTEXT('2D SPACE',''
  ) );
#902 = PCURVE('',#484,#903);
#903 = DEFINITIONAL_REPRESENTATION('',(#904),#917);
#904 = B_SPLINE_CURVE_WITH_KNOTS('',6,(#905,#906,#907,#908,#909,#910,
    #911,#912,#913,#914,#915,#916),.UNSPECIFIED.,.F.,.F.,(7,5,7),(
    2.693760256661,2.917676455125,3.14159265359),.UNSPECIFIED.);
#905 = CARTESIAN_POINT('',(5.639684198386,-0.895664793858));
#906 = CARTESIAN_POINT('',(5.676973697352,-0.918056413704));
#907 = CARTESIAN_POINT('',(5.7175686703,-0.939112115217));
#908 = CARTESIAN_POINT('',(5.761703494138,-0.958627554409));
#909 = CARTESIAN_POINT('',(5.809557518435,-0.976366376397));
#910 = CARTESIAN_POINT('',(5.861119579735,-0.992057753019));
#911 = CARTESIAN_POINT('',(5.970927653183,-1.018850650673));
#912 = CARTESIAN_POINT('',(6.029174021027,-1.029951981016));
#913 = CARTESIAN_POINT('',(6.090400318789,-1.038512436278));
#914 = CARTESIAN_POINT('',(6.15390762952,-1.044303015623));
#915 = CARTESIAN_POINT('',(6.21854626845,-1.047197551197));
#916 = CARTESIAN_POINT('',(6.28318530718,-1.047197551197));
#917 = ( GEOMETRIC_REPRESENTATION_CONTEXT(2) 
PARAMETRIC_REPRESENTATION_CONTEXT() REPRESENTATION_CONTEXT('2D SPACE',''
  ) );
#918 = ADVANCED_FACE('',(#919,#990),#484,.T.);
#919 = FACE_BOUND('',#920,.T.);
#920 = EDGE_LOOP('',(#921,#922,#944,#945,#946,#947,#989));
#921 = ORIENTED_EDGE('',*,*,#888,.T.);
#922 = ORIENTED_EDGE('',*,*,#923,.T.);
#923 = EDGE_CURVE('',#856,#924,#926,.T.);
#924 = VERTEX_POINT('',#925);
#925 = CARTESIAN_POINT('',(31.5,-15.71011942037,-23.47554241761));
#926 = SEAM_CURVE('',#927,(#932,#938),.PCURVE_S1.);
#927 = CIRCLE('',#928,4.);
#928 = AXIS2_PLACEMENT_3D('',#929,#930,#931);
#929 = CARTESIAN_POINT('',(31.5,-16.54176618364,-19.56295201467));
#930 = DIRECTION('',(-1.,-2.395770656665E-16,-5.092367733306E-17));
#931 = DIRECTION('',(-2.449293598295E-16,0.978147600734,0.207911690818)
  );
#932 = PCURVE('',#484,#933);
#933 = DEFINITIONAL_REPRESENTATION('',(#934),#937);
#934 = B_SPLINE_CURVE_WITH_KNOTS('',1,(#935,#936),.UNSPECIFIED.,.F.,.F.,
  (2,2),(5.235987755983,7.853981633974),.PIECEWISE_BEZIER_KNOTS.);
#935 = CARTESIAN_POINT('',(0.,-1.047197551197));
#936 = CARTESIAN_POINT('',(0.,1.570796326795));
#937 = ( GEOMETRIC_REPRESENTATION_CONTEXT(2) 
PARAMETRIC_REPRESENTATION_CONTEXT() REPRESENTATION_CONTEXT('2D SPACE',''
  ) );
#938 = PCURVE('',#484,#939);
#939 = DEFINITIONAL_REPRESENTATION('',(#940),#943);
#940 = B_SPLINE_CURVE_WITH_KNOTS('',1,(#941,#942),.UNSPECIFIED.,.F.,.F.,
  (2,2),(5.235987755983,7.853981633974),.PIECEWISE_BEZIER_KNOTS.);
#941 = CARTESIAN_POINT('',(6.28318530718,-1.047197551197));
#942 = CARTESIAN_POINT('',(6.28318530718,1.570796326795));
#943 = ( GEOMETRIC_REPRESENTATION_CONTEXT(2) 
PARAMETRIC_REPRESENTATION_CONTEXT() REPRESENTATION_CONTEXT('2D SPACE',''
  ) );
#944 = ORIENTED_EDGE('',*,*,#923,.F.);
#945 = ORIENTED_EDGE('',*,*,#855,.T.);
#946 = ORIENTED_EDGE('',*,*,#469,.T.);
#947 = ORIENTED_EDGE('',*,*,#948,.F.);
#948 = EDGE_CURVE('',#770,#442,#949,.T.);
#949 = SURFACE_CURVE('',#950,(#955,#982),.PCURVE_S1.);
#950 = CIRCLE('',#951,3.464101615138);
#951 = AXIS2_PLACEMENT_3D('',#952,#953,#954);
#952 = CARTESIAN_POINT('',(31.5,-18.49806138511,-19.97877539631));
#953 = DIRECTION('',(0.,0.978147600734,0.207911690818));
#954 = DIRECTION('',(0.,0.207911690818,-0.978147600734));
#955 = PCURVE('',#484,#956);
#956 = DEFINITIONAL_REPRESENTATION('',(#957),#981);
#957 = B_SPLINE_CURVE_WITH_KNOTS('',8,(#958,#959,#960,#961,#962,#963,
    #964,#965,#966,#967,#968,#969,#970,#971,#972,#973,#974,#975,#976,
    #977,#978,#979,#980),.UNSPECIFIED.,.F.,.F.,(9,7,7,9),(2.693760256661
    ,2.917676455125,3.253550752822,3.589425050519),.UNSPECIFIED.);
#958 = CARTESIAN_POINT('',(3.785093762383,-0.895664793858));
#959 = CARTESIAN_POINT('',(3.757126638159,-0.912458508743));
#960 = CARTESIAN_POINT('',(3.727388724301,-0.928536553092));
#961 = CARTESIAN_POINT('',(3.695796314772,-0.943825946909));
#962 = CARTESIAN_POINT('',(3.662277495105,-0.958246850722));
#963 = CARTESIAN_POINT('',(3.62678665873,-0.971712301754));
#964 = CARTESIAN_POINT('',(3.589320055419,-0.984130103001));
#965 = CARTESIAN_POINT('',(3.549932371853,-0.995406865226));
#966 = CARTESIAN_POINT('',(3.446987302996,-1.020525206776));
#967 = CARTESIAN_POINT('',(3.381191251926,-1.032830084943));
#968 = CARTESIAN_POINT('',(3.311804926296,-1.042070254022));
#969 = CARTESIAN_POINT('',(3.239626478207,-1.047975579156));
#970 = CARTESIAN_POINT('',(3.165911391767,-1.05034150414));
#971 = CARTESIAN_POINT('',(3.092275653942,-1.049124984681));
#972 = CARTESIAN_POINT('',(3.020098281886,-1.04442985269));
#973 = CARTESIAN_POINT('',(2.880787757094,-1.028476855063));
#974 = CARTESIAN_POINT('',(2.813654419015,-1.017219043263));
#975 = CARTESIAN_POINT('',(2.750102640237,-1.002877355832));
#976 = CARTESIAN_POINT('',(2.690867521027,-0.985744828597));
#977 = CARTESIAN_POINT('',(2.636180955677,-0.966159751535));
#978 = CARTESIAN_POINT('',(2.585976703668,-0.944435616034));
#979 = CARTESIAN_POINT('',(2.540042231133,-0.920855366185));
#980 = CARTESIAN_POINT('',(2.498091544797,-0.895664793858));
#981 = ( GEOMETRIC_REPRESENTATION_CONTEXT(2) 
PARAMETRIC_REPRESENTATION_CONTEXT() REPRESENTATION_CONTEXT('2D SPACE',''
  ) );
#982 = PCURVE('',#457,#983);
#983 = DEFINITIONAL_REPRESENTATION('',(#984),#988);
#984 = CIRCLE('',#985,3.464101615138);
#985 = AXIS2_PLACEMENT_2D('',#986,#987);
#986 = CARTESIAN_POINT('',(20.,-1.5));
#987 = DIRECTION('',(1.,0.));
#988 = ( GEOMETRIC_REPRESENTATION_CONTEXT(2) 
PARAMETRIC_REPRESENTATION_CONTEXT() REPRESENTATION_CONTEXT('2D SPACE',''
  ) );
#989 = ORIENTED_EDGE('',*,*,#792,.F.);
#990 = FACE_BOUND('',#991,.T.);
#991 = EDGE_LOOP('',(#992));
#992 = ORIENTED_EDGE('',*,*,#993,.F.);
#993 = EDGE_CURVE('',#994,#994,#996,.T.);
#994 = VERTEX_POINT('',#995);
#995 = CARTESIAN_POINT('',(33.439238480985,-15.8143915351,
    -22.98498068704));
#996 = SURFACE_CURVE('',#997,(#1002,#1120),.PCURVE_S1.);
#997 = CIRCLE('',#998,3.498478828558);
#998 = AXIS2_PLACEMENT_3D('',#999,#1000,#1001);
#999 = CARTESIAN_POINT('',(33.439238480985,-16.54176618364,
    -19.56295201467));
#1000 = DIRECTION('',(1.,-0.,0.));
#1001 = DIRECTION('',(0.,0.207911690818,-0.978147600734));
#1002 = PCURVE('',#484,#1003);
#1003 = DEFINITIONAL_REPRESENTATION('',(#1004),#1119);
#1004 = B_SPLINE_CURVE_WITH_KNOTS('',8,(#1005,#1006,#1007,#1008,#1009,
    #1010,#1011,#1012,#1013,#1014,#1015,#1016,#1017,#1018,#1019,#1020,
    #1021,#1022,#1023,#1024,#1025,#1026,#1027,#1028,#1029,#1030,#1031,
    #1032,#1033,#1034,#1035,#1036,#1037,#1038,#1039,#1040,#1041,#1042,
    #1043,#1044,#1045,#1046,#1047,#1048,#1049,#1050,#1051,#1052,#1053,
    #1054,#1055,#1056,#1057,#1058,#1059,#1060,#1061,#1062,#1063,#1064,
    #1065,#1066,#1067,#1068,#1069,#1070,#1071,#1072,#1073,#1074,#1075,
    #1076,#1077,#1078,#1079,#1080,#1081,#1082,#1083,#1084,#1085,#1086,
    #1087,#1088,#1089,#1090,#1091,#1092,#1093,#1094,#1095,#1096,#1097,
    #1098,#1099,#1100,#1101,#1102,#1103,#1104,#1105,#1106,#1107,#1108,
    #1109,#1110,#1111,#1112,#1113,#1114,#1115,#1116,#1117,#1118),
  .UNSPECIFIED.,.F.,.F.,(9,7,7,7,7,7,7,7,7,7,7,7,7,7,7,7,9),(0.,
    0.196349540849,0.576776776245,0.933427309428,1.602147059147,
    2.187276840151,2.69926539853,2.92326039282,3.133255699968,
    3.330126300419,3.699258676264,4.022249505128,4.587483455641,
    5.43533438141,5.859259844295,6.071222575737,6.28318530718),
  .UNSPECIFIED.);
#1005 = CARTESIAN_POINT('',(1.570796326795,1.064650843717));
#1006 = CARTESIAN_POINT('',(1.526518333243,1.064650843717));
#1007 = CARTESIAN_POINT('',(1.482240489666,1.063408904046));
#1008 = CARTESIAN_POINT('',(1.438267191424,1.060924761739));
#1009 = CARTESIAN_POINT('',(1.394905385911,1.057216033841));
#1010 = CARTESIAN_POINT('',(1.352433421131,1.052316934482));
#1011 = CARTESIAN_POINT('',(1.311081554337,1.046275560021));
#1012 = CARTESIAN_POINT('',(1.271024120742,1.039149742268));
#1013 = CARTESIAN_POINT('',(1.157516892816,1.015214191865));
#1014 = CARTESIAN_POINT('',(1.087968557494,0.995588986482));
#1015 = CARTESIAN_POINT('',(1.024631007987,0.97257827085));
#1016 = CARTESIAN_POINT('',(0.967660669278,0.946706855144));
#1017 = CARTESIAN_POINT('',(0.916607462263,0.918449376585));
#1018 = CARTESIAN_POINT('',(0.870948108531,0.888193027031));
#1019 = CARTESIAN_POINT('',(0.830110567027,0.856259282849));
#1020 = CARTESIAN_POINT('',(0.759309401056,0.791644624432));
#1021 = CARTESIAN_POINT('',(0.728825565845,0.759135171297));
#1022 = CARTESIAN_POINT('',(0.701680310528,0.725597379405));
#1023 = CARTESIAN_POINT('',(0.67746662487,0.691201896757));
#1024 = CARTESIAN_POINT('',(0.655837983643,0.656084238125));
#1025 = CARTESIAN_POINT('',(0.636506012324,0.620353928464));
#1026 = CARTESIAN_POINT('',(0.619226802522,0.584101585203));
#1027 = CARTESIAN_POINT('',(0.574869405906,0.47859289615));
#1028 = CARTESIAN_POINT('',(0.552446367564,0.408213867718));
#1029 = CARTESIAN_POINT('',(0.53519246056,0.336764655276));
#1030 = CARTESIAN_POINT('',(0.522270039905,0.264564990794));
#1031 = CARTESIAN_POINT('',(0.513151892855,0.191854843417));
#1032 = CARTESIAN_POINT('',(0.507522230321,0.118834643904));
#1033 = CARTESIAN_POINT('',(0.505242070346,4.568207293147E-02));
#1034 = CARTESIAN_POINT('',(0.507326796479,-9.138227439938E-02));
#1035 = CARTESIAN_POINT('',(0.510896683218,-0.155306222724));
#1036 = CARTESIAN_POINT('',(0.517092026733,-0.219067656187));
#1037 = CARTESIAN_POINT('',(0.526047909655,-0.282541495286));
#1038 = CARTESIAN_POINT('',(0.538009707923,-0.345586390049));
#1039 = CARTESIAN_POINT('',(0.553356321776,-0.408033784449));
#1040 = CARTESIAN_POINT('',(0.572653098019,-0.469665597137));
#1041 = CARTESIAN_POINT('',(0.617824583123,-0.583103436922));
#1042 = CARTESIAN_POINT('',(0.642575406745,-0.635174727516));
#1043 = CARTESIAN_POINT('',(0.67156354627,-0.686167239126));
#1044 = CARTESIAN_POINT('',(0.705512998349,-0.73581335782));
#1045 = CARTESIAN_POINT('',(0.745372133112,-0.783753400721));
#1046 = CARTESIAN_POINT('',(0.792304388191,-0.829519406241));
#1047 = CARTESIAN_POINT('',(0.847864500909,-0.872418936755));
#1048 = CARTESIAN_POINT('',(0.941828355945,-0.928647337954));
#1049 = CARTESIAN_POINT('',(0.972303199075,-0.945036066653));
#1050 = CARTESIAN_POINT('',(1.004752834453,-0.96062360902));
#1051 = CARTESIAN_POINT('',(1.039263612772,-0.975325326135));
#1052 = CARTESIAN_POINT('',(1.075894226203,-0.98904827616));
#1053 = CARTESIAN_POINT('',(1.114657462802,-1.001693173763));
#1054 = CARTESIAN_POINT('',(1.155500080419,-1.013158896303));
#1055 = CARTESIAN_POINT('',(1.238387724798,-1.032903262265));
#1056 = CARTESIAN_POINT('',(1.2801983082,-1.041336234852));
#1057 = CARTESIAN_POINT('',(1.323597266903,-1.048569946633));
#1058 = CARTESIAN_POINT('',(1.368405413971,-1.054528847252));
#1059 = CARTESIAN_POINT('',(1.41436794561,-1.059147920349));
#1060 = CARTESIAN_POINT('',(1.461160720532,-1.062378653804));
#1061 = CARTESIAN_POINT('',(1.508414531985,-1.06419340379));
#1062 = CARTESIAN_POINT('',(1.600141285377,-1.064958229686));
#1063 = CARTESIAN_POINT('',(1.644603137082,-1.064080231915));
#1064 = CARTESIAN_POINT('',(1.688836741898,-1.061950230927));
#1065 = CARTESIAN_POINT('',(1.732528542636,-1.058582298802));
#1066 = CARTESIAN_POINT('',(1.775389982169,-1.054007686131));
#1067 = CARTESIAN_POINT('',(1.81717846187,-1.048272357401));
#1068 = CARTESIAN_POINT('',(1.857706886872,-1.041432883738));
#1069 = CARTESIAN_POINT('',(1.970219756884,-1.018771585358));
#1070 = CARTESIAN_POINT('',(2.038698394826,-1.000326926368));
#1071 = CARTESIAN_POINT('',(2.101393987509,-0.978623087915));
#1072 = CARTESIAN_POINT('',(2.158079537578,-0.954138636355));
#1073 = CARTESIAN_POINT('',(2.209107785449,-0.927317323177));
#1074 = CARTESIAN_POINT('',(2.254936163803,-0.898526139052));
#1075 = CARTESIAN_POINT('',(2.296081358643,-0.868072936632));
#1076 = CARTESIAN_POINT('',(2.365363210604,-0.808330593049));
#1077 = CARTESIAN_POINT('',(2.394483122865,-0.779371794709));
#1078 = CARTESIAN_POINT('',(2.420719806299,-0.7495034729));
#1079 = CARTESIAN_POINT('',(2.444388439402,-0.718863445259));
#1080 = CARTESIAN_POINT('',(2.465765904587,-0.687563683826));
#1081 = CARTESIAN_POINT('',(2.485089137008,-0.655696259879));
#1082 = CARTESIAN_POINT('',(2.502562439758,-0.623338305859));
#1083 = CARTESIAN_POINT('',(2.546003800479,-0.533183989002));
#1084 = CARTESIAN_POINT('',(2.568514200933,-0.474510216219));
#1085 = CARTESIAN_POINT('',(2.58682235289,-0.414882510331));
#1086 = CARTESIAN_POINT('',(2.601576259436,-0.354539100705));
#1087 = CARTESIAN_POINT('',(2.613226085031,-0.293660042684));
#1088 = CARTESIAN_POINT('',(2.622082084679,-0.232391876751));
#1089 = CARTESIAN_POINT('',(2.628346815328,-0.170859181155));
#1090 = CARTESIAN_POINT('',(2.63778976242,-1.665562761753E-02));
#1091 = CARTESIAN_POINT('',(2.6378589749,7.620113822767E-02));
#1092 = CARTESIAN_POINT('',(2.632680273001,0.169002814334));
#1093 = CARTESIAN_POINT('',(2.622120719794,0.261404676171));
#1094 = CARTESIAN_POINT('',(2.605608583533,0.353032871111));
#1095 = CARTESIAN_POINT('',(2.582109204705,0.443399911539));
#1096 = CARTESIAN_POINT('',(2.54972604934,0.531842198832));
#1097 = CARTESIAN_POINT('',(2.482680236892,0.659678473839));
#1098 = CARTESIAN_POINT('',(2.457253245058,0.701486043011));
#1099 = CARTESIAN_POINT('',(2.428319747687,0.74232722626));
#1100 = CARTESIAN_POINT('',(2.395357738742,0.782001412072));
#1101 = CARTESIAN_POINT('',(2.357734291082,0.820251951281));
#1102 = CARTESIAN_POINT('',(2.314701292917,0.856752711238));
#1103 = CARTESIAN_POINT('',(2.265400992321,0.891063792813));
#1104 = CARTESIAN_POINT('',(2.181113400365,0.938431240627));
#1105 = CARTESIAN_POINT('',(2.151294494251,0.95353721416));
#1106 = CARTESIAN_POINT('',(2.119675311611,0.967892062786));
#1107 = CARTESIAN_POINT('',(2.086190988736,0.981421678257));
#1108 = CARTESIAN_POINT('',(2.05080302007,0.994045712055));
#1109 = CARTESIAN_POINT('',(2.013513772295,1.0056793966));
#1110 = CARTESIAN_POINT('',(1.974381525024,1.016237268827));
#1111 = CARTESIAN_POINT('',(1.892690551202,1.035040323502));
#1112 = CARTESIAN_POINT('',(1.850131657153,1.043285416564));
#1113 = CARTESIAN_POINT('',(1.805987827111,1.050294061572));
#1114 = CARTESIAN_POINT('',(1.760455551076,1.055989932941));
#1115 = CARTESIAN_POINT('',(1.713809479077,1.06030856825));
#1116 = CARTESIAN_POINT('',(1.666393847138,1.063203571366));
#1117 = CARTESIAN_POINT('',(1.618595188027,1.064650843717));
#1118 = CARTESIAN_POINT('',(1.570796326795,1.064650843717));
#1119 = ( GEOMETRIC_REPRESENTATION_CONTEXT(2) 
PARAMETRIC_REPRESENTATION_CONTEXT() REPRESENTATION_CONTEXT('2D SPACE',''
  ) );
#1120 = PCURVE('',#1121,#1126);
#1121 = CONICAL_SURFACE('',#1122,0.,1.064650843717);
#1122 = AXIS2_PLACEMENT_3D('',#1123,#1124,#1125);
#1123 = CARTESIAN_POINT('',(31.5,-16.54176618364,-19.56295201467));
#1124 = DIRECTION('',(1.,0.,0.));
#1125 = DIRECTION('',(0.,0.207911690818,-0.978147600734));
#1126 = DEFINITIONAL_REPRESENTATION('',(#1127),#1130);
#1127 = B_SPLINE_CURVE_WITH_KNOTS('',1,(#1128,#1129),.UNSPECIFIED.,.F.,
  .F.,(2,2),(0.,6.28318530718),.PIECEWISE_BEZIER_KNOTS.);
#1128 = CARTESIAN_POINT('',(0.,1.939238480985));
#1129 = CARTESIAN_POINT('',(6.28318530718,1.939238480985));
#1130 = ( GEOMETRIC_REPRESENTATION_CONTEXT(2) 
PARAMETRIC_REPRESENTATION_CONTEXT() REPRESENTATION_CONTEXT('2D SPACE',''
  ) );
#1131 = ADVANCED_FACE('',(#1132),#457,.F.);
#1132 = FACE_BOUND('',#1133,.F.);
#1133 = EDGE_LOOP('',(#1134,#1135,#1136,#1137));
#1134 = ORIENTED_EDGE('',*,*,#769,.F.);
#1135 = ORIENTED_EDGE('',*,*,#688,.T.);
#1136 = ORIENTED_EDGE('',*,*,#441,.T.);
#1137 = ORIENTED_EDGE('',*,*,#948,.F.);
#1138 = ADVANCED_FACE('',(#1139,#1143),#569,.F.);
#1139 = FACE_BOUND('',#1140,.F.);
#1140 = VERTEX_LOOP('',#1141);
#1141 = VERTEX_POINT('',#1142);
#1142 = CARTESIAN_POINT('',(31.5,-20.19061635749,-2.396461621798));
#1143 = FACE_BOUND('',#1144,.F.);
#1144 = EDGE_LOOP('',(#1145));
#1145 = ORIENTED_EDGE('',*,*,#555,.F.);
#1146 = ADVANCED_FACE('',(#1147),#1121,.F.);
#1147 = FACE_BOUND('',#1148,.F.);
#1148 = EDGE_LOOP('',(#1149,#1150,#1171,#1301));
#1149 = ORIENTED_EDGE('',*,*,#993,.F.);
#1150 = ORIENTED_EDGE('',*,*,#1151,.F.);
#1151 = EDGE_CURVE('',#1152,#994,#1154,.T.);
#1152 = VERTEX_POINT('',#1153);
#1153 = CARTESIAN_POINT('',(32.687783569604,-16.09624921141,
    -21.6589445765));
#1154 = SEAM_CURVE('',#1155,(#1159,#1165),.PCURVE_S1.);
#1155 = LINE('',#1156,#1157);
#1156 = CARTESIAN_POINT('',(31.5,-16.54176618364,-19.56295201467));
#1157 = VECTOR('',#1158,1.);
#1158 = DIRECTION('',(0.484809620246,0.181843662134,-0.855507168093));
#1159 = PCURVE('',#1121,#1160);
#1160 = DEFINITIONAL_REPRESENTATION('',(#1161),#1164);
#1161 = B_SPLINE_CURVE_WITH_KNOTS('',1,(#1162,#1163),.UNSPECIFIED.,.F.,
  .F.,(2,2),(2.45,4.),.PIECEWISE_BEZIER_KNOTS.);
#1162 = CARTESIAN_POINT('',(6.28318530718,1.187783569604));
#1163 = CARTESIAN_POINT('',(6.28318530718,1.939238480985));
#1164 = ( GEOMETRIC_REPRESENTATION_CONTEXT(2) 
PARAMETRIC_REPRESENTATION_CONTEXT() REPRESENTATION_CONTEXT('2D SPACE',''
  ) );
#1165 = PCURVE('',#1121,#1166);
#1166 = DEFINITIONAL_REPRESENTATION('',(#1167),#1170);
#1167 = B_SPLINE_CURVE_WITH_KNOTS('',1,(#1168,#1169),.UNSPECIFIED.,.F.,
  .F.,(2,2),(2.45,4.),.PIECEWISE_BEZIER_KNOTS.);
#1168 = CARTESIAN_POINT('',(0.,1.187783569604));
#1169 = CARTESIAN_POINT('',(0.,1.939238480985));
#1170 = ( GEOMETRIC_REPRESENTATION_CONTEXT(2) 
PARAMETRIC_REPRESENTATION_CONTEXT() REPRESENTATION_CONTEXT('2D SPACE',''
  ) );
#1171 = ORIENTED_EDGE('',*,*,#1172,.T.);
#1172 = EDGE_CURVE('',#1152,#1152,#1173,.T.);
#1173 = SURFACE_CURVE('',#1174,(#1179,#1185),.PCURVE_S1.);
#1174 = CIRCLE('',#1175,2.142818282492);
#1175 = AXIS2_PLACEMENT_3D('',#1176,#1177,#1178);
#1176 = CARTESIAN_POINT('',(32.687783569604,-16.54176618364,
    -19.56295201467));
#1177 = DIRECTION('',(1.,-0.,0.));
#1178 = DIRECTION('',(0.,0.207911690818,-0.978147600734));
#1179 = PCURVE('',#1121,#1180);
#1180 = DEFINITIONAL_REPRESENTATION('',(#1181),#1184);
#1181 = B_SPLINE_CURVE_WITH_KNOTS('',1,(#1182,#1183),.UNSPECIFIED.,.F.,
  .F.,(2,2),(0.,6.28318530718),.PIECEWISE_BEZIER_KNOTS.);
#1182 = CARTESIAN_POINT('',(0.,1.187783569604));
#1183 = CARTESIAN_POINT('',(6.28318530718,1.187783569604));
#1184 = ( GEOMETRIC_REPRESENTATION_CONTEXT(2) 
PARAMETRIC_REPRESENTATION_CONTEXT() REPRESENTATION_CONTEXT('2D SPACE',''
  ) );
#1185 = PCURVE('',#1186,#1191);
#1186 = SPHERICAL_SURFACE('',#1187,2.45);
#1187 = AXIS2_PLACEMENT_3D('',#1188,#1189,#1190);
#1188 = CARTESIAN_POINT('',(31.5,-16.54176618364,-19.56295201467));
#1189 = DIRECTION('',(0.,0.207911690818,-0.978147600734));
#1190 = DIRECTION('',(0.,0.978147600734,0.207911690818));
#1191 = DEFINITIONAL_REPRESENTATION('',(#1192),#1300);
#1192 = B_SPLINE_CURVE_WITH_KNOTS('',8,(#1193,#1194,#1195,#1196,#1197,
    #1198,#1199,#1200,#1201,#1202,#1203,#1204,#1205,#1206,#1207,#1208,
    #1209,#1210,#1211,#1212,#1213,#1214,#1215,#1216,#1217,#1218,#1219,
    #1220,#1221,#1222,#1223,#1224,#1225,#1226,#1227,#1228,#1229,#1230,
    #1231,#1232,#1233,#1234,#1235,#1236,#1237,#1238,#1239,#1240,#1241,
    #1242,#1243,#1244,#1245,#1246,#1247,#1248,#1249,#1250,#1251,#1252,
    #1253,#1254,#1255,#1256,#1257,#1258,#1259,#1260,#1261,#1262,#1263,
    #1264,#1265,#1266,#1267,#1268,#1269,#1270,#1271,#1272,#1273,#1274,
    #1275,#1276,#1277,#1278,#1279,#1280,#1281,#1282,#1283,#1284,#1285,
    #1286,#1287,#1288,#1289,#1290,#1291,#1292,#1293,#1294,#1295,#1296,
    #1297,#1298,#1299),.UNSPECIFIED.,.F.,.F.,(9,7,7,7,7,7,7,7,7,7,7,7,7,
    7,7,9),(0.,0.196349540849,0.576776776245,0.933427309428,
    1.602147059147,2.187276840151,2.69926539853,2.92326039282,
    3.133255699968,3.330126300419,3.699258676264,4.345240333993,
    5.314212820586,5.798699063883,6.040942185531,6.28318530718),
  .UNSPECIFIED.);
#1193 = CARTESIAN_POINT('',(1.570796326795,1.064650843717));
#1194 = CARTESIAN_POINT('',(1.526518333243,1.064650843717));
#1195 = CARTESIAN_POINT('',(1.482240489666,1.063408904046));
#1196 = CARTESIAN_POINT('',(1.438267191424,1.060924761739));
#1197 = CARTESIAN_POINT('',(1.394905385911,1.057216033841));
#1198 = CARTESIAN_POINT('',(1.352433421131,1.052316934482));
#1199 = CARTESIAN_POINT('',(1.311081554337,1.04627556002));
#1200 = CARTESIAN_POINT('',(1.271024120742,1.039149742268));
#1201 = CARTESIAN_POINT('',(1.157516892816,1.015214191865));
#1202 = CARTESIAN_POINT('',(1.087968557494,0.995588986483));
#1203 = CARTESIAN_POINT('',(1.024631007987,0.972578270849));
#1204 = CARTESIAN_POINT('',(0.967660669278,0.946706855147));
#1205 = CARTESIAN_POINT('',(0.916607462263,0.918449376579));
#1206 = CARTESIAN_POINT('',(0.870948108531,0.888193027032));
#1207 = CARTESIAN_POINT('',(0.830110567027,0.856259282849));
#1208 = CARTESIAN_POINT('',(0.759309401056,0.791644624432));
#1209 = CARTESIAN_POINT('',(0.728825565845,0.759135171297));
#1210 = CARTESIAN_POINT('',(0.701680310528,0.725597379405));
#1211 = CARTESIAN_POINT('',(0.67746662487,0.691201896757));
#1212 = CARTESIAN_POINT('',(0.655837983643,0.656084238125));
#1213 = CARTESIAN_POINT('',(0.636506012324,0.620353928464));
#1214 = CARTESIAN_POINT('',(0.619226802522,0.584101585203));
#1215 = CARTESIAN_POINT('',(0.574869405906,0.47859289615));
#1216 = CARTESIAN_POINT('',(0.552446367564,0.408213867718));
#1217 = CARTESIAN_POINT('',(0.53519246056,0.336764655276));
#1218 = CARTESIAN_POINT('',(0.522270039905,0.264564990794));
#1219 = CARTESIAN_POINT('',(0.513151892855,0.191854843417));
#1220 = CARTESIAN_POINT('',(0.507522230321,0.118834643904));
#1221 = CARTESIAN_POINT('',(0.505242070346,4.568207293147E-02));
#1222 = CARTESIAN_POINT('',(0.507326796479,-9.138227439938E-02));
#1223 = CARTESIAN_POINT('',(0.510896683218,-0.155306222724));
#1224 = CARTESIAN_POINT('',(0.517092026733,-0.219067656187));
#1225 = CARTESIAN_POINT('',(0.526047909655,-0.282541495286));
#1226 = CARTESIAN_POINT('',(0.538009707923,-0.345586390049));
#1227 = CARTESIAN_POINT('',(0.553356321776,-0.408033784449));
#1228 = CARTESIAN_POINT('',(0.572653098019,-0.469665597137));
#1229 = CARTESIAN_POINT('',(0.617824583123,-0.583103436922));
#1230 = CARTESIAN_POINT('',(0.642575406745,-0.635174727515));
#1231 = CARTESIAN_POINT('',(0.671563546269,-0.686167239127));
#1232 = CARTESIAN_POINT('',(0.705512998351,-0.735813357815));
#1233 = CARTESIAN_POINT('',(0.745372133111,-0.783753400721));
#1234 = CARTESIAN_POINT('',(0.792304388191,-0.829519406241));
#1235 = CARTESIAN_POINT('',(0.847864500909,-0.872418936755));
#1236 = CARTESIAN_POINT('',(0.941828355945,-0.928647337954));
#1237 = CARTESIAN_POINT('',(0.972303199075,-0.945036066653));
#1238 = CARTESIAN_POINT('',(1.004752834453,-0.96062360902));
#1239 = CARTESIAN_POINT('',(1.039263612772,-0.975325326135));
#1240 = CARTESIAN_POINT('',(1.075894226203,-0.98904827616));
#1241 = CARTESIAN_POINT('',(1.114657462802,-1.001693173763));
#1242 = CARTESIAN_POINT('',(1.155500080419,-1.013158896303));
#1243 = CARTESIAN_POINT('',(1.238387724798,-1.032903262265));
#1244 = CARTESIAN_POINT('',(1.2801983082,-1.041336234852));
#1245 = CARTESIAN_POINT('',(1.323597266903,-1.048569946633));
#1246 = CARTESIAN_POINT('',(1.368405413971,-1.054528847252));
#1247 = CARTESIAN_POINT('',(1.41436794561,-1.059147920349));
#1248 = CARTESIAN_POINT('',(1.461160720532,-1.062378653804));
#1249 = CARTESIAN_POINT('',(1.508414531985,-1.06419340379));
#1250 = CARTESIAN_POINT('',(1.600141285377,-1.064958229686));
#1251 = CARTESIAN_POINT('',(1.644603137082,-1.064080231915));
#1252 = CARTESIAN_POINT('',(1.688836741898,-1.061950230927));
#1253 = CARTESIAN_POINT('',(1.732528542636,-1.058582298802));
#1254 = CARTESIAN_POINT('',(1.775389982169,-1.054007686131));
#1255 = CARTESIAN_POINT('',(1.81717846187,-1.048272357401));
#1256 = CARTESIAN_POINT('',(1.857706886872,-1.041432883738));
#1257 = CARTESIAN_POINT('',(1.970219756884,-1.018771585358));
#1258 = CARTESIAN_POINT('',(2.038698394826,-1.000326926366));
#1259 = CARTESIAN_POINT('',(2.101393987509,-0.978623087918));
#1260 = CARTESIAN_POINT('',(2.158079537578,-0.954138636346));
#1261 = CARTESIAN_POINT('',(2.209107785449,-0.92731732318));
#1262 = CARTESIAN_POINT('',(2.254936163803,-0.89852613905));
#1263 = CARTESIAN_POINT('',(2.296081358643,-0.868072936632));
#1264 = CARTESIAN_POINT('',(2.397694741519,-0.78045083271));
#1265 = CARTESIAN_POINT('',(2.449510707829,-0.720375033501));
#1266 = CARTESIAN_POINT('',(2.491111741029,-0.657340150753));
#1267 = CARTESIAN_POINT('',(2.524896780349,-0.592191163833));
#1268 = CARTESIAN_POINT('',(2.552288402965,-0.525464479126));
#1269 = CARTESIAN_POINT('',(2.574424077926,-0.457561890844));
#1270 = CARTESIAN_POINT('',(2.59204455185,-0.388777194075));
#1271 = CARTESIAN_POINT('',(2.626129816441,-0.215209537679));
#1272 = CARTESIAN_POINT('',(2.637610383153,-0.109623567758));
#1273 = CARTESIAN_POINT('',(2.64188553704,-3.396724504E-03));
#1274 = CARTESIAN_POINT('',(2.639512569191,0.102953630962));
#1275 = CARTESIAN_POINT('',(2.630414078802,0.208946814529));
#1276 = CARTESIAN_POINT('',(2.613827009216,0.314027609268));
#1277 = CARTESIAN_POINT('',(2.58811359524,0.417512792081));
#1278 = CARTESIAN_POINT('',(2.53033158513,0.568277535949));
#1279 = CARTESIAN_POINT('',(2.507869090667,0.61778859554));
#1280 = CARTESIAN_POINT('',(2.481744265978,0.666382848131));
#1281 = CARTESIAN_POINT('',(2.451373936821,0.713844598735));
#1282 = CARTESIAN_POINT('',(2.416003555905,0.759891161968));
#1283 = CARTESIAN_POINT('',(2.374707318942,0.804156042258));
#1284 = CARTESIAN_POINT('',(2.326268950614,0.846117859811));
#1285 = CARTESIAN_POINT('',(2.241262625116,0.904556052572));
#1286 = CARTESIAN_POINT('',(2.21086886906,0.92328476175));
#1287 = CARTESIAN_POINT('',(2.178281458317,0.941175049484));
#1288 = CARTESIAN_POINT('',(2.143370976369,0.958128932773));
#1289 = CARTESIAN_POINT('',(2.106030283004,0.974036141501));
#1290 = CARTESIAN_POINT('',(2.066197486421,0.988775608691));
#1291 = CARTESIAN_POINT('',(2.023885535063,1.002220488184));
#1292 = CARTESIAN_POINT('',(1.934551323319,1.026272911268));
#1293 = CARTESIAN_POINT('',(1.8875286238,1.036880264195));
#1294 = CARTESIAN_POINT('',(1.838273616251,1.045946080995));
#1295 = CARTESIAN_POINT('',(1.787011703006,1.05334793935));
#1296 = CARTESIAN_POINT('',(1.734105902131,1.058979076813));
#1297 = CARTESIAN_POINT('',(1.680050605618,1.062760649349));
#1298 = CARTESIAN_POINT('',(1.625423596775,1.064650843717));
#1299 = CARTESIAN_POINT('',(1.570796326795,1.064650843717));
#1300 = ( GEOMETRIC_REPRESENTATION_CONTEXT(2) 
PARAMETRIC_REPRESENTATION_CONTEXT() REPRESENTATION_CONTEXT('2D SPACE',''
  ) );
#1301 = ORIENTED_EDGE('',*,*,#1151,.T.);
#1302 = ADVANCED_FACE('',(#1303,#1307),#1186,.F.);
#1303 = FACE_BOUND('',#1304,.F.);
#1304 = VERTEX_LOOP('',#1305);
#1305 = VERTEX_POINT('',#1306);
#1306 = CARTESIAN_POINT('',(31.5,-16.03238254114,-21.95941363647));
#1307 = FACE_BOUND('',#1308,.F.);
#1308 = EDGE_LOOP('',(#1309));
#1309 = ORIENTED_EDGE('',*,*,#1172,.F.);
#1310 = ( GEOMETRIC_REPRESENTATION_CONTEXT(3) 
GLOBAL_UNCERTAINTY_ASSIGNED_CONTEXT((#1314)) 
GLOBAL_UNIT_ASSIGNED_CONTEXT((#1311,#1312,#1313)) REPRESENTATION_CONTEXT
('Context #1','3D Context with UNIT and UNCERTAINTY') );
#1311 = ( LENGTH_UNIT() NAMED_UNIT(*) SI_UNIT(.MILLI.,.METRE.) );
#1312 = ( NAMED_UNIT(*) PLANE_ANGLE_UNIT() SI_UNIT($,.RADIAN.) );
#1313 = ( NAMED_UNIT(*) SI_UNIT($,.STERADIAN.) SOLID_ANGLE_UNIT() );
#1314 = UNCERTAINTY_MEASURE_WITH_UNIT(LENGTH_MEASURE(1.E-07),#1311,
  'distance_accuracy_value','confusion accuracy');
#1315 = PRODUCT_RELATED_PRODUCT_CATEGORY('part',$,(#7));
ENDSEC;
END-ISO-10303-21;
