ISO-10303-21;
HEADER;
FILE_DESCRIPTION(('Open CASCADE Model'),'2;1');
FILE_NAME('Open CASCADE Shape Model','2026-09-29T16:42:34',('Author'),(
    'Open CASCADE'),'Open CASCADE STEP processor 7.9','Open CASCADE 7.9'
  ,'Unknown');
FILE_SCHEMA(('AUTOMOTIVE_DESIGN { 1 0 10303 214 1 1 1 1 }'));
ENDSEC;
DATA;
#1 = APPLICATION_PROTOCOL_DEFINITION('international standard',
  'automotive_design',2000,#2);
#2 = APPLICATION_CONTEXT(
  'core data for automotive mechanical design processes');
#3 = SHAPE_DEFINITION_REPRESENTATION(#4,#10);
#4 = PRODUCT_DEFINITION_SHAPE('','',#5);
#5 = PRODUCT_DEFINITION('design','',#6,#9);
#6 = PRODUCT_DEFINITION_FORMATION('','',#7);
#7 = PRODUCT('Open CASCADE STEP translator 7.9 1',
  'Open CASCADE STEP translator 7.9 1','',(#8));
#8 = PRODUCT_CONTEXT('',#2,'mechanical');
#9 = PRODUCT_DEFINITION_CONTEXT('part definition',#2,'design');
#10 = ADVANCED_BREP_SHAPE_REPRESENTATION('',(#11,#15),#814);
#11 = AXIS2_PLACEMENT_3D('',#12,#13,#14);
#12 = CARTESIAN_POINT('',(0.,0.,0.));
#13 = DIRECTION('',(0.,0.,1.));
#14 = DIRECTION('',(1.,0.,-0.));
#15 = MANIFOLD_SOLID_BREP('',#16);
#16 = CLOSED_SHELL('',(#17,#301,#340,#395,#399,#507,#562,#617,#621,#706,
    #779,#802));
#17 = ADVANCED_FACE('',(#18,#201),#33,.T.);
#18 = FACE_BOUND('',#19,.T.);
#19 = EDGE_LOOP('',(#20,#51,#52,#81,#179));
#20 = ORIENTED_EDGE('',*,*,#21,.T.);
#21 = EDGE_CURVE('',#22,#24,#26,.T.);
#22 = VERTEX_POINT('',#23);
#23 = CARTESIAN_POINT('',(-32.5333704529,-3.665766993775E-15,-10.));
#24 = VERTEX_POINT('',#25);
#25 = CARTESIAN_POINT('',(-47.5,0.,18.));
#26 = SEAM_CURVE('',#27,(#32,#44),.PCURVE_S1.);
#27 = CIRCLE('',#28,18.);
#28 = AXIS2_PLACEMENT_3D('',#29,#30,#31);
#29 = CARTESIAN_POINT('',(-47.5,0.,0.));
#30 = DIRECTION('',(-2.449293598295E-16,-1.,0.));
#31 = DIRECTION('',(1.,-2.449293598295E-16,0.));
#32 = PCURVE('',#33,#38);
#33 = SPHERICAL_SURFACE('',#34,18.);
#34 = AXIS2_PLACEMENT_3D('',#35,#36,#37);
#35 = CARTESIAN_POINT('',(-47.5,0.,0.));
#36 = DIRECTION('',(0.,0.,1.));
#37 = DIRECTION('',(1.,0.,-0.));
#38 = DEFINITIONAL_REPRESENTATION('',(#39),#43);
#39 = LINE('',#40,#41);
#40 = CARTESIAN_POINT('',(6.28318530718,-6.28318530718));
#41 = VECTOR('',#42,1.);
#42 = DIRECTION('',(0.,1.));
#43 = ( GEOMETRIC_REPRESENTATION_CONTEXT(2) 
PARAMETRIC_REPRESENTATION_CONTEXT() REPRESENTATION_CONTEXT('2D SPACE',''
  ) );
#44 = PCURVE('',#33,#45);
#45 = DEFINITIONAL_REPRESENTATION('',(#46),#50);
#46 = LINE('',#47,#48);
#47 = CARTESIAN_POINT('',(0.,-6.28318530718));
#48 = VECTOR('',#49,1.);
#49 = DIRECTION('',(0.,1.));
#50 = ( GEOMETRIC_REPRESENTATION_CONTEXT(2) 
PARAMETRIC_REPRESENTATION_CONTEXT() REPRESENTATION_CONTEXT('2D SPACE',''
  ) );
#51 = ORIENTED_EDGE('',*,*,#21,.F.);
#52 = ORIENTED_EDGE('',*,*,#53,.T.);
#53 = EDGE_CURVE('',#22,#54,#56,.T.);
#54 = VERTEX_POINT('',#55);
#55 = CARTESIAN_POINT('',(-54.91619848709,-13.,-10.));
#56 = SURFACE_CURVE('',#57,(#62,#69),.PCURVE_S1.);
#57 = CIRCLE('',#58,14.966629547096);
#58 = AXIS2_PLACEMENT_3D('',#59,#60,#61);
#59 = CARTESIAN_POINT('',(-47.5,0.,-10.));
#60 = DIRECTION('',(0.,0.,1.));
#61 = DIRECTION('',(1.,0.,-0.));
#62 = PCURVE('',#33,#63);
#63 = DEFINITIONAL_REPRESENTATION('',(#64),#68);
#64 = LINE('',#65,#66);
#65 = CARTESIAN_POINT('',(0.,-0.589030970216));
#66 = VECTOR('',#67,1.);
#67 = DIRECTION('',(1.,0.));
#68 = ( GEOMETRIC_REPRESENTATION_CONTEXT(2) 
PARAMETRIC_REPRESENTATION_CONTEXT() REPRESENTATION_CONTEXT('2D SPACE',''
  ) );
#69 = PCURVE('',#70,#75);
#70 = PLANE('',#71);
#71 = AXIS2_PLACEMENT_3D('',#72,#73,#74);
#72 = CARTESIAN_POINT('',(-66.5,-13.,-10.));
#73 = DIRECTION('',(0.,0.,1.));
#74 = DIRECTION('',(1.,0.,-0.));
#75 = DEFINITIONAL_REPRESENTATION('',(#76),#80);
#76 = CIRCLE('',#77,14.966629547096);
#77 = AXIS2_PLACEMENT_2D('',#78,#79);
#78 = CARTESIAN_POINT('',(19.,13.));
#79 = DIRECTION('',(1.,0.));
#80 = ( GEOMETRIC_REPRESENTATION_CONTEXT(2) 
PARAMETRIC_REPRESENTATION_CONTEXT() REPRESENTATION_CONTEXT('2D SPACE',''
  ) );
#81 = ORIENTED_EDGE('',*,*,#82,.T.);
#82 = EDGE_CURVE('',#54,#83,#85,.T.);
#83 = VERTEX_POINT('',#84);
#84 = CARTESIAN_POINT('',(-40.0838015129,-13.,-10.));
#85 = SURFACE_CURVE('',#86,(#91,#167),.PCURVE_S1.);
#86 = CIRCLE('',#87,12.449899597989);
#87 = AXIS2_PLACEMENT_3D('',#88,#89,#90);
#88 = CARTESIAN_POINT('',(-47.5,-13.,0.));
#89 = DIRECTION('',(-0.,1.,0.));
#90 = DIRECTION('',(0.,0.,1.));
#91 = PCURVE('',#33,#92);
#92 = DEFINITIONAL_REPRESENTATION('',(#93),#166);
#93 = B_SPLINE_CURVE_WITH_KNOTS('',8,(#94,#95,#96,#97,#98,#99,#100,#101,
    #102,#103,#104,#105,#106,#107,#108,#109,#110,#111,#112,#113,#114,
    #115,#116,#117,#118,#119,#120,#121,#122,#123,#124,#125,#126,#127,
    #128,#129,#130,#131,#132,#133,#134,#135,#136,#137,#138,#139,#140,
    #141,#142,#143,#144,#145,#146,#147,#148,#149,#150,#151,#152,#153,
    #154,#155,#156,#157,#158,#159,#160,#161,#162,#163,#164,#165),
  .UNSPECIFIED.,.F.,.F.,(9,7,7,7,7,7,7,7,7,7,9),(3.779708856762,
    4.405577969366,4.953213442895,5.432394482233,5.851677891653,
    6.218550874896,6.539564735234,7.101338990825,7.944000374211,
    8.365331065904,8.786661757597),.UNSPECIFIED.);
#94 = CARTESIAN_POINT('',(4.193960644478,-0.589030970216));
#95 = CARTESIAN_POINT('',(4.148557193229,-0.550264981259));
#96 = CARTESIAN_POINT('',(4.108852366628,-0.507972895079));
#97 = CARTESIAN_POINT('',(4.074652969888,-0.462792854274));
#98 = CARTESIAN_POINT('',(4.045542054257,-0.415293080056));
#99 = CARTESIAN_POINT('',(4.021092934807,-0.365939572628));
#100 = CARTESIAN_POINT('',(4.000942450486,-0.315126519537));
#101 = CARTESIAN_POINT('',(3.984800008673,-0.263193449938));
#102 = CARTESIAN_POINT('',(3.961659534672,-0.164290977882));
#103 = CARTESIAN_POINT('',(3.953770695848,-0.117512593864));
#104 = CARTESIAN_POINT('',(3.948652690638,-7.031453569443E-02));
#105 = CARTESIAN_POINT('',(3.9462152822,-2.288100637281E-02));
#106 = CARTESIAN_POINT('',(3.946418170274,2.461475184383E-02));
#107 = CARTESIAN_POINT('',(3.949271383444,7.200153627167E-02));
#108 = CARTESIAN_POINT('',(3.954835105654,0.119101400632));
#109 = CARTESIAN_POINT('',(3.970554789408,0.206513167974));
#110 = CARTESIAN_POINT('',(3.980049807065,0.246937601558));
#111 = CARTESIAN_POINT('',(3.991777310188,0.286864744819));
#112 = CARTESIAN_POINT('',(4.005839878068,0.326155607448));
#113 = CARTESIAN_POINT('',(4.022367405562,0.364657465709));
#114 = CARTESIAN_POINT('',(4.041516426645,0.40219803912));
#115 = CARTESIAN_POINT('',(4.063461941736,0.438580065996));
#116 = CARTESIAN_POINT('',(4.110170148883,0.504201550629));
#117 = CARTESIAN_POINT('',(4.134237733289,0.533765368848));
#118 = CARTESIAN_POINT('',(4.160689251343,0.562118703543));
#119 = CARTESIAN_POINT('',(4.189633234169,0.589094314032));
#120 = CARTESIAN_POINT('',(4.221163715927,0.614507422787));
#121 = CARTESIAN_POINT('',(4.255334570512,0.638156280542));
#122 = CARTESIAN_POINT('',(4.292126443426,0.659828338807));
#123 = CARTESIAN_POINT('',(4.36579252777,0.696367391715));
#124 = CARTESIAN_POINT('',(4.402081672732,0.711746397247));
#125 = CARTESIAN_POINT('',(4.440199101659,0.725313582515));
#126 = CARTESIAN_POINT('',(4.480002203404,0.736932612765));
#127 = CARTESIAN_POINT('',(4.521271943646,0.746476995003));
#128 = CARTESIAN_POINT('',(4.563709420958,0.753842296794));
#129 = CARTESIAN_POINT('',(4.606951563202,0.758957421502));
#130 = CARTESIAN_POINT('',(4.68881372257,0.764266042982));
#131 = CARTESIAN_POINT('',(4.727335777641,0.764994809748));
#132 = CARTESIAN_POINT('',(4.765918123117,0.763952445926));
#133 = CARTESIAN_POINT('',(4.804285776558,0.761138120274));
#134 = CARTESIAN_POINT('',(4.842167245571,0.756575272344));
#135 = CARTESIAN_POINT('',(4.879315702116,0.750309608667));
#136 = CARTESIAN_POINT('',(4.915524175917,0.742404389775));
#137 = CARTESIAN_POINT('',(5.012056008832,0.716363194175));
#138 = CARTESIAN_POINT('',(5.070098305586,0.695000882644));
#139 = CARTESIAN_POINT('',(5.123865092391,0.669251091241));
#140 = CARTESIAN_POINT('',(5.172855913359,0.639632067825));
#141 = CARTESIAN_POINT('',(5.217021986042,0.606684762549));
#142 = CARTESIAN_POINT('',(5.256510139521,0.570894715599));
#143 = CARTESIAN_POINT('',(5.291561664805,0.532695150365));
#144 = CARTESIAN_POINT('',(5.368765554768,0.432117911034));
#145 = CARTESIAN_POINT('',(5.405705416439,0.367201074157));
#146 = CARTESIAN_POINT('',(5.434163505568,0.298991722979));
#147 = CARTESIAN_POINT('',(5.455170618749,0.228492951945));
#148 = CARTESIAN_POINT('',(5.469397589368,0.156471551612));
#149 = CARTESIAN_POINT('',(5.477263968335,8.359555366741E-02));
#150 = CARTESIAN_POINT('',(5.478897462589,1.048165833438E-02));
#151 = CARTESIAN_POINT('',(5.471774722627,-9.856863871253E-02));
#152 = CARTESIAN_POINT('',(5.467805001312,-0.134815328689));
#153 = CARTESIAN_POINT('',(5.462220899935,-0.17087721943));
#154 = CARTESIAN_POINT('',(5.454986490866,-0.206670902219));
#155 = CARTESIAN_POINT('',(5.446047976973,-0.242108580437));
#156 = CARTESIAN_POINT('',(5.435334039598,-0.277095547377));
#157 = CARTESIAN_POINT('',(5.422757381757,-0.311527511258));
#158 = CARTESIAN_POINT('',(5.393677551413,-0.379048023634));
#159 = CARTESIAN_POINT('',(5.377174433145,-0.412136570097));
#160 = CARTESIAN_POINT('',(5.358607777701,-0.444436755582));
#161 = CARTESIAN_POINT('',(5.337864849071,-0.475819439584));
#162 = CARTESIAN_POINT('',(5.31482447536,-0.506140732859));
#163 = CARTESIAN_POINT('',(5.289365322985,-0.535238996422));
#164 = CARTESIAN_POINT('',(5.261382600845,-0.562933978669));
#165 = CARTESIAN_POINT('',(5.230817316292,-0.589030970216));
#166 = ( GEOMETRIC_REPRESENTATION_CONTEXT(2) 
PARAMETRIC_REPRESENTATION_CONTEXT() REPRESENTATION_CONTEXT('2D SPACE',''
  ) );
#167 = PCURVE('',#168,#173);
#168 = PLANE('',#169);
#169 = AXIS2_PLACEMENT_3D('',#170,#171,#172);
#170 = CARTESIAN_POINT('',(-66.5,-13.,-10.));
#171 = DIRECTION('',(-0.,1.,0.));
#172 = DIRECTION('',(0.,0.,1.));
#173 = DEFINITIONAL_REPRESENTATION('',(#174),#178);
#174 = CIRCLE('',#175,12.449899597989);
#175 = AXIS2_PLACEMENT_2D('',#176,#177);
#176 = CARTESIAN_POINT('',(10.,19.));
#177 = DIRECTION('',(1.,0.));
#178 = ( GEOMETRIC_REPRESENTATION_CONTEXT(2) 
PARAMETRIC_REPRESENTATION_CONTEXT() REPRESENTATION_CONTEXT('2D SPACE',''
  ) );
#179 = ORIENTED_EDGE('',*,*,#180,.T.);
#180 = EDGE_CURVE('',#83,#22,#181,.T.);
#181 = SURFACE_CURVE('',#182,(#187,#194),.PCURVE_S1.);
#182 = CIRCLE('',#183,14.966629547096);
#183 = AXIS2_PLACEMENT_3D('',#184,#185,#186);
#184 = CARTESIAN_POINT('',(-47.5,0.,-10.));
#185 = DIRECTION('',(0.,0.,1.));
#186 = DIRECTION('',(1.,0.,-0.));
#187 = PCURVE('',#33,#188);
#188 = DEFINITIONAL_REPRESENTATION('',(#189),#193);
#189 = LINE('',#190,#191);
#190 = CARTESIAN_POINT('',(0.,-0.589030970216));
#191 = VECTOR('',#192,1.);
#192 = DIRECTION('',(1.,0.));
#193 = ( GEOMETRIC_REPRESENTATION_CONTEXT(2) 
PARAMETRIC_REPRESENTATION_CONTEXT() REPRESENTATION_CONTEXT('2D SPACE',''
  ) );
#194 = PCURVE('',#70,#195);
#195 = DEFINITIONAL_REPRESENTATION('',(#196),#200);
#196 = CIRCLE('',#197,14.966629547096);
#197 = AXIS2_PLACEMENT_2D('',#198,#199);
#198 = CARTESIAN_POINT('',(19.,13.));
#199 = DIRECTION('',(1.,0.));
#200 = ( GEOMETRIC_REPRESENTATION_CONTEXT(2) 
PARAMETRIC_REPRESENTATION_CONTEXT() REPRESENTATION_CONTEXT('2D SPACE',''
  ) );
#201 = FACE_BOUND('',#202,.T.);
#202 = EDGE_LOOP('',(#203));
#203 = ORIENTED_EDGE('',*,*,#204,.F.);
#204 = EDGE_CURVE('',#205,#205,#207,.T.);
#205 = VERTEX_POINT('',#206);
#206 = CARTESIAN_POINT('',(-47.5,16.,8.246211251235));
#207 = SURFACE_CURVE('',#208,(#213,#289),.PCURVE_S1.);
#208 = CIRCLE('',#209,8.246211251235);
#209 = AXIS2_PLACEMENT_3D('',#210,#211,#212);
#210 = CARTESIAN_POINT('',(-47.5,16.,0.));
#211 = DIRECTION('',(-0.,1.,0.));
#212 = DIRECTION('',(0.,0.,1.));
#213 = PCURVE('',#33,#214);
#214 = DEFINITIONAL_REPRESENTATION('',(#215),#288);
#215 = B_SPLINE_CURVE_WITH_KNOTS('',8,(#216,#217,#218,#219,#220,#221,
    #222,#223,#224,#225,#226,#227,#228,#229,#230,#231,#232,#233,#234,
    #235,#236,#237,#238,#239,#240,#241,#242,#243,#244,#245,#246,#247,
    #248,#249,#250,#251,#252,#253,#254,#255,#256,#257,#258,#259,#260,
    #261,#262,#263,#264,#265,#266,#267,#268,#269,#270,#271,#272,#273,
    #274,#275,#276,#277,#278,#279,#280,#281,#282,#283,#284,#285,#286,
    #287),.UNSPECIFIED.,.F.,.F.,(9,7,7,7,7,7,7,7,7,7,9),(0.,
    0.785398163397,1.47262155637,2.073942025221,2.600097435466,
    3.06048341943,3.866158891368,4.470415495321,5.37680040125,
    5.829992854215,6.28318530718),.UNSPECIFIED.);
#216 = CARTESIAN_POINT('',(1.570796326795,0.47588224966));
#217 = CARTESIAN_POINT('',(1.520198208266,0.47588224966));
#218 = CARTESIAN_POINT('',(1.469600169382,0.470205112266));
#219 = CARTESIAN_POINT('',(1.420139451839,0.458851226636));
#220 = CARTESIAN_POINT('',(1.372956547301,0.442028598482));
#221 = CARTESIAN_POINT('',(1.329000422062,0.420161970026));
#222 = CARTESIAN_POINT('',(1.28886224147,0.393794659739));
#223 = CARTESIAN_POINT('',(1.252904165106,0.36350853059));
#224 = CARTESIAN_POINT('',(1.193684955075,0.300479355096));
#225 = CARTESIAN_POINT('',(1.169398573848,0.268516618361));
#226 = CARTESIAN_POINT('',(1.148592661499,0.234399427579));
#227 = CARTESIAN_POINT('',(1.131301464117,0.198526083871));
#228 = CARTESIAN_POINT('',(1.117509301683,0.161279914277));
#229 = CARTESIAN_POINT('',(1.107186808265,0.123027138853));
#230 = CARTESIAN_POINT('',(1.100312641306,8.41231317562E-02));
#231 = CARTESIAN_POINT('',(1.093870692727,1.061537630906E-02));
#232 = CARTESIAN_POINT('',(1.093497052444,-2.391802384888E-02));
#233 = CARTESIAN_POINT('',(1.095749559082,-5.844598467991E-02));
#234 = CARTESIAN_POINT('',(1.100629058071,-9.273566053824E-02));
#235 = CARTESIAN_POINT('',(1.108146481137,-0.126553110131));
#236 = CARTESIAN_POINT('',(1.118320060536,-0.159658885657));
#237 = CARTESIAN_POINT('',(1.131166077471,-0.191805120924));
#238 = CARTESIAN_POINT('',(1.16025890101,-0.249801565433));
#239 = CARTESIAN_POINT('',(1.175879877208,-0.275936499275));
#240 = CARTESIAN_POINT('',(1.193543741851,-0.30097033776));
#241 = CARTESIAN_POINT('',(1.213237852588,-0.324727873591));
#242 = CARTESIAN_POINT('',(1.234930950814,-0.347030037611));
#243 = CARTESIAN_POINT('',(1.258560341133,-0.367696849629));
#244 = CARTESIAN_POINT('',(1.284019557351,-0.386553334494));
#245 = CARTESIAN_POINT('',(1.334893658632,-0.418213472592));
#246 = CARTESIAN_POINT('',(1.359916296832,-0.431479040386));
#247 = CARTESIAN_POINT('',(1.386115713164,-0.443127982824));
#248 = CARTESIAN_POINT('',(1.413358534116,-0.453060387468));
#249 = CARTESIAN_POINT('',(1.441479364785,-0.461189703104));
#250 = CARTESIAN_POINT('',(1.470283116676,-0.467447571245));
#251 = CARTESIAN_POINT('',(1.499552923969,-0.471787677529));
#252 = CARTESIAN_POINT('',(1.580707415785,-0.478390277574));
#253 = CARTESIAN_POINT('',(1.633088879345,-0.476653026971));
#254 = CARTESIAN_POINT('',(1.68500088704,-0.468861401521));
#255 = CARTESIAN_POINT('',(1.735153010421,-0.455123978159));
#256 = CARTESIAN_POINT('',(1.782369302098,-0.435811298164));
#257 = CARTESIAN_POINT('',(1.825873126257,-0.411468297267));
#258 = CARTESIAN_POINT('',(1.865168685454,-0.382703276634));
#259 = CARTESIAN_POINT('',(1.92607563439,-0.325730795704));
#260 = CARTESIAN_POINT('',(1.949652074452,-0.299181730373));
#261 = CARTESIAN_POINT('',(1.970581906666,-0.270766495208));
#262 = CARTESIAN_POINT('',(1.988811629975,-0.240757807267));
#263 = CARTESIAN_POINT('',(2.004330731603,-0.209422784467));
#264 = CARTESIAN_POINT('',(2.017149464291,-0.177019044978));
#265 = CARTESIAN_POINT('',(2.027282452933,-0.143795802496));
#266 = CARTESIAN_POINT('',(2.04593282639,-5.929793538145E-02));
#267 = CARTESIAN_POINT('',(2.051109092755,-7.303474933903E-03));
#268 = CARTESIAN_POINT('',(2.050314599129,4.516489190844E-02));
#269 = CARTESIAN_POINT('',(2.043579916734,9.731273014459E-02));
#270 = CARTESIAN_POINT('',(2.030868358471,0.148354412147));
#271 = CARTESIAN_POINT('',(2.012086159084,0.197469267362));
#272 = CARTESIAN_POINT('',(1.987168676263,0.243776753509));
#273 = CARTESIAN_POINT('',(1.940796394357,0.307674017772));
#274 = CARTESIAN_POINT('',(1.923839611752,0.32804579474));
#275 = CARTESIAN_POINT('',(1.905400625878,0.347377550099));
#276 = CARTESIAN_POINT('',(1.885509155496,0.365555389099));
#277 = CARTESIAN_POINT('',(1.864212279104,0.382465395412));
#278 = CARTESIAN_POINT('',(1.841580575533,0.397996313883));
#279 = CARTESIAN_POINT('',(1.817712709558,0.4120434006));
#280 = CARTESIAN_POINT('',(1.767758410248,0.436982774369));
#281 = CARTESIAN_POINT('',(1.741671961975,0.447875057348));
#282 = CARTESIAN_POINT('',(1.714603167864,0.4570963599));
#283 = CARTESIAN_POINT('',(1.686706807263,0.464564179328));
#284 = CARTESIAN_POINT('',(1.658166519651,0.470211606856));
#285 = CARTESIAN_POINT('',(1.629188825386,0.473992029813));
#286 = CARTESIAN_POINT('',(1.5999925823,0.47588224966));
#287 = CARTESIAN_POINT('',(1.570796326795,0.47588224966));
#288 = ( GEOMETRIC_REPRESENTATION_CONTEXT(2) 
PARAMETRIC_REPRESENTATION_CONTEXT() REPRESENTATION_CONTEXT('2D SPACE',''
  ) );
#289 = PCURVE('',#290,#295);
#290 = PLANE('',#291);
#291 = AXIS2_PLACEMENT_3D('',#292,#293,#294);
#292 = CARTESIAN_POINT('',(-66.5,16.,-10.));
#293 = DIRECTION('',(-0.,1.,0.));
#294 = DIRECTION('',(0.,0.,1.));
#295 = DEFINITIONAL_REPRESENTATION('',(#296),#300);
#296 = CIRCLE('',#297,8.246211251235);
#297 = AXIS2_PLACEMENT_2D('',#298,#299);
#298 = CARTESIAN_POINT('',(10.,19.));
#299 = DIRECTION('',(1.,0.));
#300 = ( GEOMETRIC_REPRESENTATION_CONTEXT(2) 
PARAMETRIC_REPRESENTATION_CONTEXT() REPRESENTATION_CONTEXT('2D SPACE',''
  ) );
#301 = ADVANCED_FACE('',(#302,#305),#290,.T.);
#302 = FACE_BOUND('',#303,.T.);
#303 = EDGE_LOOP('',(#304));
#304 = ORIENTED_EDGE('',*,*,#204,.T.);
#305 = FACE_BOUND('',#306,.T.);
#306 = EDGE_LOOP('',(#307));
#307 = ORIENTED_EDGE('',*,*,#308,.T.);
#308 = EDGE_CURVE('',#309,#309,#311,.T.);
#309 = VERTEX_POINT('',#310);
#310 = CARTESIAN_POINT('',(-47.5,16.,-2.15));
#311 = SURFACE_CURVE('',#312,(#317,#328),.PCURVE_S1.);
#312 = CIRCLE('',#313,2.15);
#313 = AXIS2_PLACEMENT_3D('',#314,#315,#316);
#314 = CARTESIAN_POINT('',(-47.5,16.,0.));
#315 = DIRECTION('',(0.,-1.,0.));
#316 = DIRECTION('',(0.,-0.,-1.));
#317 = PCURVE('',#290,#318);
#318 = DEFINITIONAL_REPRESENTATION('',(#319),#327);
#319 = ( BOUNDED_CURVE() B_SPLINE_CURVE(2,(#320,#321,#322,#323,#324,#325
,#326),.UNSPECIFIED.,.T.,.F.) B_SPLINE_CURVE_WITH_KNOTS((1,2,2,2,2,1),(
    -2.094395102393,0.,2.094395102393,4.188790204786,6.28318530718,
8.377580409573),.UNSPECIFIED.) CURVE() GEOMETRIC_REPRESENTATION_ITEM() 
RATIONAL_B_SPLINE_CURVE((1.,0.5,1.,0.5,1.,0.5,1.)) REPRESENTATION_ITEM(
  '') );
#320 = CARTESIAN_POINT('',(7.85,19.));
#321 = CARTESIAN_POINT('',(7.85,22.723909236273));
#322 = CARTESIAN_POINT('',(11.075,20.861954618137));
#323 = CARTESIAN_POINT('',(14.3,19.));
#324 = CARTESIAN_POINT('',(11.075,17.138045381863));
#325 = CARTESIAN_POINT('',(7.85,15.276090763727));
#326 = CARTESIAN_POINT('',(7.85,19.));
#327 = ( GEOMETRIC_REPRESENTATION_CONTEXT(2) 
PARAMETRIC_REPRESENTATION_CONTEXT() REPRESENTATION_CONTEXT('2D SPACE',''
  ) );
#328 = PCURVE('',#329,#334);
#329 = CYLINDRICAL_SURFACE('',#330,2.15);
#330 = AXIS2_PLACEMENT_3D('',#331,#332,#333);
#331 = CARTESIAN_POINT('',(-47.5,16.2,0.));
#332 = DIRECTION('',(0.,-1.,0.));
#333 = DIRECTION('',(0.,-0.,-1.));
#334 = DEFINITIONAL_REPRESENTATION('',(#335),#339);
#335 = LINE('',#336,#337);
#336 = CARTESIAN_POINT('',(0.,0.2));
#337 = VECTOR('',#338,1.);
#338 = DIRECTION('',(1.,0.));
#339 = ( GEOMETRIC_REPRESENTATION_CONTEXT(2) 
PARAMETRIC_REPRESENTATION_CONTEXT() REPRESENTATION_CONTEXT('2D SPACE',''
  ) );
#340 = ADVANCED_FACE('',(#341),#329,.F.);
#341 = FACE_BOUND('',#342,.F.);
#342 = EDGE_LOOP('',(#343,#366,#393,#394));
#343 = ORIENTED_EDGE('',*,*,#344,.T.);
#344 = EDGE_CURVE('',#309,#345,#347,.T.);
#345 = VERTEX_POINT('',#346);
#346 = CARTESIAN_POINT('',(-47.5,8.,-2.15));
#347 = SEAM_CURVE('',#348,(#352,#359),.PCURVE_S1.);
#348 = LINE('',#349,#350);
#349 = CARTESIAN_POINT('',(-47.5,16.2,-2.15));
#350 = VECTOR('',#351,1.);
#351 = DIRECTION('',(0.,-1.,0.));
#352 = PCURVE('',#329,#353);
#353 = DEFINITIONAL_REPRESENTATION('',(#354),#358);
#354 = LINE('',#355,#356);
#355 = CARTESIAN_POINT('',(6.28318530718,-0.));
#356 = VECTOR('',#357,1.);
#357 = DIRECTION('',(0.,1.));
#358 = ( GEOMETRIC_REPRESENTATION_CONTEXT(2) 
PARAMETRIC_REPRESENTATION_CONTEXT() REPRESENTATION_CONTEXT('2D SPACE',''
  ) );
#359 = PCURVE('',#329,#360);
#360 = DEFINITIONAL_REPRESENTATION('',(#361),#365);
#361 = LINE('',#362,#363);
#362 = CARTESIAN_POINT('',(0.,-0.));
#363 = VECTOR('',#364,1.);
#364 = DIRECTION('',(0.,1.));
#365 = ( GEOMETRIC_REPRESENTATION_CONTEXT(2) 
PARAMETRIC_REPRESENTATION_CONTEXT() REPRESENTATION_CONTEXT('2D SPACE',''
  ) );
#366 = ORIENTED_EDGE('',*,*,#367,.F.);
#367 = EDGE_CURVE('',#345,#345,#368,.T.);
#368 = SURFACE_CURVE('',#369,(#374,#381),.PCURVE_S1.);
#369 = CIRCLE('',#370,2.15);
#370 = AXIS2_PLACEMENT_3D('',#371,#372,#373);
#371 = CARTESIAN_POINT('',(-47.5,8.,0.));
#372 = DIRECTION('',(0.,-1.,0.));
#373 = DIRECTION('',(0.,-0.,-1.));
#374 = PCURVE('',#329,#375);
#375 = DEFINITIONAL_REPRESENTATION('',(#376),#380);
#376 = LINE('',#377,#378);
#377 = CARTESIAN_POINT('',(0.,8.2));
#378 = VECTOR('',#379,1.);
#379 = DIRECTION('',(1.,0.));
#380 = ( GEOMETRIC_REPRESENTATION_CONTEXT(2) 
PARAMETRIC_REPRESENTATION_CONTEXT() REPRESENTATION_CONTEXT('2D SPACE',''
  ) );
#381 = PCURVE('',#382,#387);
#382 = PLANE('',#383);
#383 = AXIS2_PLACEMENT_3D('',#384,#385,#386);
#384 = CARTESIAN_POINT('',(-47.5,8.,0.));
#385 = DIRECTION('',(0.,-1.,0.));
#386 = DIRECTION('',(0.,-0.,-1.));
#387 = DEFINITIONAL_REPRESENTATION('',(#388),#392);
#388 = CIRCLE('',#389,2.15);
#389 = AXIS2_PLACEMENT_2D('',#390,#391);
#390 = CARTESIAN_POINT('',(0.,0.));
#391 = DIRECTION('',(1.,0.));
#392 = ( GEOMETRIC_REPRESENTATION_CONTEXT(2) 
PARAMETRIC_REPRESENTATION_CONTEXT() REPRESENTATION_CONTEXT('2D SPACE',''
  ) );
#393 = ORIENTED_EDGE('',*,*,#344,.F.);
#394 = ORIENTED_EDGE('',*,*,#308,.T.);
#395 = ADVANCED_FACE('',(#396),#382,.F.);
#396 = FACE_BOUND('',#397,.F.);
#397 = EDGE_LOOP('',(#398));
#398 = ORIENTED_EDGE('',*,*,#367,.T.);
#399 = ADVANCED_FACE('',(#400,#476),#168,.F.);
#400 = FACE_BOUND('',#401,.F.);
#401 = EDGE_LOOP('',(#402,#425,#426,#449));
#402 = ORIENTED_EDGE('',*,*,#403,.F.);
#403 = EDGE_CURVE('',#54,#404,#406,.T.);
#404 = VERTEX_POINT('',#405);
#405 = CARTESIAN_POINT('',(-49.23853386507,-13.,-10.));
#406 = SURFACE_CURVE('',#407,(#411,#418),.PCURVE_S1.);
#407 = LINE('',#408,#409);
#408 = CARTESIAN_POINT('',(-66.5,-13.,-10.));
#409 = VECTOR('',#410,1.);
#410 = DIRECTION('',(1.,0.,-0.));
#411 = PCURVE('',#168,#412);
#412 = DEFINITIONAL_REPRESENTATION('',(#413),#417);
#413 = LINE('',#414,#415);
#414 = CARTESIAN_POINT('',(0.,0.));
#415 = VECTOR('',#416,1.);
#416 = DIRECTION('',(0.,1.));
#417 = ( GEOMETRIC_REPRESENTATION_CONTEXT(2) 
PARAMETRIC_REPRESENTATION_CONTEXT() REPRESENTATION_CONTEXT('2D SPACE',''
  ) );
#418 = PCURVE('',#70,#419);
#419 = DEFINITIONAL_REPRESENTATION('',(#420),#424);
#420 = LINE('',#421,#422);
#421 = CARTESIAN_POINT('',(0.,0.));
#422 = VECTOR('',#423,1.);
#423 = DIRECTION('',(1.,0.));
#424 = ( GEOMETRIC_REPRESENTATION_CONTEXT(2) 
PARAMETRIC_REPRESENTATION_CONTEXT() REPRESENTATION_CONTEXT('2D SPACE',''
  ) );
#425 = ORIENTED_EDGE('',*,*,#82,.T.);
#426 = ORIENTED_EDGE('',*,*,#427,.F.);
#427 = EDGE_CURVE('',#428,#83,#430,.T.);
#428 = VERTEX_POINT('',#429);
#429 = CARTESIAN_POINT('',(-45.76146613492,-13.,-10.));
#430 = SURFACE_CURVE('',#431,(#435,#442),.PCURVE_S1.);
#431 = LINE('',#432,#433);
#432 = CARTESIAN_POINT('',(-66.5,-13.,-10.));
#433 = VECTOR('',#434,1.);
#434 = DIRECTION('',(1.,0.,-0.));
#435 = PCURVE('',#168,#436);
#436 = DEFINITIONAL_REPRESENTATION('',(#437),#441);
#437 = LINE('',#438,#439);
#438 = CARTESIAN_POINT('',(0.,0.));
#439 = VECTOR('',#440,1.);
#440 = DIRECTION('',(0.,1.));
#441 = ( GEOMETRIC_REPRESENTATION_CONTEXT(2) 
PARAMETRIC_REPRESENTATION_CONTEXT() REPRESENTATION_CONTEXT('2D SPACE',''
  ) );
#442 = PCURVE('',#70,#443);
#443 = DEFINITIONAL_REPRESENTATION('',(#444),#448);
#444 = LINE('',#445,#446);
#445 = CARTESIAN_POINT('',(0.,0.));
#446 = VECTOR('',#447,1.);
#447 = DIRECTION('',(1.,0.));
#448 = ( GEOMETRIC_REPRESENTATION_CONTEXT(2) 
PARAMETRIC_REPRESENTATION_CONTEXT() REPRESENTATION_CONTEXT('2D SPACE',''
  ) );
#449 = ORIENTED_EDGE('',*,*,#450,.F.);
#450 = EDGE_CURVE('',#404,#428,#451,.T.);
#451 = SURFACE_CURVE('',#452,(#457,#464),.PCURVE_S1.);
#452 = CIRCLE('',#453,1.75);
#453 = AXIS2_PLACEMENT_3D('',#454,#455,#456);
#454 = CARTESIAN_POINT('',(-47.5,-13.,-10.2));
#455 = DIRECTION('',(0.,1.,-0.));
#456 = DIRECTION('',(-0.993447922898,0.,0.114285714286));
#457 = PCURVE('',#168,#458);
#458 = DEFINITIONAL_REPRESENTATION('',(#459),#463);
#459 = CIRCLE('',#460,1.75);
#460 = AXIS2_PLACEMENT_2D('',#461,#462);
#461 = CARTESIAN_POINT('',(-0.2,19.));
#462 = DIRECTION('',(0.114285714286,-0.993447922898));
#463 = ( GEOMETRIC_REPRESENTATION_CONTEXT(2) 
PARAMETRIC_REPRESENTATION_CONTEXT() REPRESENTATION_CONTEXT('2D SPACE',''
  ) );
#464 = PCURVE('',#465,#470);
#465 = CONICAL_SURFACE('',#466,1.95,0.785398163397);
#466 = AXIS2_PLACEMENT_3D('',#467,#468,#469);
#467 = CARTESIAN_POINT('',(-47.5,-13.2,-10.2));
#468 = DIRECTION('',(-0.,-1.,-0.));
#469 = DIRECTION('',(0.,-0.,1.));
#470 = DEFINITIONAL_REPRESENTATION('',(#471),#475);
#471 = LINE('',#472,#473);
#472 = CARTESIAN_POINT('',(-4.826924953617,-0.2));
#473 = VECTOR('',#474,1.);
#474 = DIRECTION('',(-1.,-0.));
#475 = ( GEOMETRIC_REPRESENTATION_CONTEXT(2) 
PARAMETRIC_REPRESENTATION_CONTEXT() REPRESENTATION_CONTEXT('2D SPACE',''
  ) );
#476 = FACE_BOUND('',#477,.F.);
#477 = EDGE_LOOP('',(#478));
#478 = ORIENTED_EDGE('',*,*,#479,.F.);
#479 = EDGE_CURVE('',#480,#480,#482,.T.);
#480 = VERTEX_POINT('',#481);
#481 = CARTESIAN_POINT('',(-47.5,-13.,2.55));
#482 = SURFACE_CURVE('',#483,(#488,#495),.PCURVE_S1.);
#483 = CIRCLE('',#484,2.55);
#484 = AXIS2_PLACEMENT_3D('',#485,#486,#487);
#485 = CARTESIAN_POINT('',(-47.5,-13.,0.));
#486 = DIRECTION('',(0.,1.,0.));
#487 = DIRECTION('',(0.,-0.,1.));
#488 = PCURVE('',#168,#489);
#489 = DEFINITIONAL_REPRESENTATION('',(#490),#494);
#490 = CIRCLE('',#491,2.55);
#491 = AXIS2_PLACEMENT_2D('',#492,#493);
#492 = CARTESIAN_POINT('',(10.,19.));
#493 = DIRECTION('',(1.,0.));
#494 = ( GEOMETRIC_REPRESENTATION_CONTEXT(2) 
PARAMETRIC_REPRESENTATION_CONTEXT() REPRESENTATION_CONTEXT('2D SPACE',''
  ) );
#495 = PCURVE('',#496,#501);
#496 = CONICAL_SURFACE('',#497,2.75,0.785398163397);
#497 = AXIS2_PLACEMENT_3D('',#498,#499,#500);
#498 = CARTESIAN_POINT('',(-47.5,-13.2,0.));
#499 = DIRECTION('',(-0.,-1.,-0.));
#500 = DIRECTION('',(0.,-0.,1.));
#501 = DEFINITIONAL_REPRESENTATION('',(#502),#506);
#502 = LINE('',#503,#504);
#503 = CARTESIAN_POINT('',(-0.,-0.2));
#504 = VECTOR('',#505,1.);
#505 = DIRECTION('',(-1.,-0.));
#506 = ( GEOMETRIC_REPRESENTATION_CONTEXT(2) 
PARAMETRIC_REPRESENTATION_CONTEXT() REPRESENTATION_CONTEXT('2D SPACE',''
  ) );
#507 = ADVANCED_FACE('',(#508),#496,.F.);
#508 = FACE_BOUND('',#509,.F.);
#509 = EDGE_LOOP('',(#510,#533,#560,#561));
#510 = ORIENTED_EDGE('',*,*,#511,.T.);
#511 = EDGE_CURVE('',#480,#512,#514,.T.);
#512 = VERTEX_POINT('',#513);
#513 = CARTESIAN_POINT('',(-47.5,-12.6,2.15));
#514 = SEAM_CURVE('',#515,(#519,#526),.PCURVE_S1.);
#515 = LINE('',#516,#517);
#516 = CARTESIAN_POINT('',(-47.5,-13.2,2.75));
#517 = VECTOR('',#518,1.);
#518 = DIRECTION('',(1.731912112471E-16,0.707106781187,-0.707106781187)
  );
#519 = PCURVE('',#496,#520);
#520 = DEFINITIONAL_REPRESENTATION('',(#521),#525);
#521 = LINE('',#522,#523);
#522 = CARTESIAN_POINT('',(-6.28318530718,0.));
#523 = VECTOR('',#524,1.);
#524 = DIRECTION('',(-0.,-1.));
#525 = ( GEOMETRIC_REPRESENTATION_CONTEXT(2) 
PARAMETRIC_REPRESENTATION_CONTEXT() REPRESENTATION_CONTEXT('2D SPACE',''
  ) );
#526 = PCURVE('',#496,#527);
#527 = DEFINITIONAL_REPRESENTATION('',(#528),#532);
#528 = LINE('',#529,#530);
#529 = CARTESIAN_POINT('',(0.,-0.));
#530 = VECTOR('',#531,1.);
#531 = DIRECTION('',(-0.,-1.));
#532 = ( GEOMETRIC_REPRESENTATION_CONTEXT(2) 
PARAMETRIC_REPRESENTATION_CONTEXT() REPRESENTATION_CONTEXT('2D SPACE',''
  ) );
#533 = ORIENTED_EDGE('',*,*,#534,.F.);
#534 = EDGE_CURVE('',#512,#512,#535,.T.);
#535 = SURFACE_CURVE('',#536,(#541,#548),.PCURVE_S1.);
#536 = CIRCLE('',#537,2.15);
#537 = AXIS2_PLACEMENT_3D('',#538,#539,#540);
#538 = CARTESIAN_POINT('',(-47.5,-12.6,0.));
#539 = DIRECTION('',(0.,1.,0.));
#540 = DIRECTION('',(0.,-0.,1.));
#541 = PCURVE('',#496,#542);
#542 = DEFINITIONAL_REPRESENTATION('',(#543),#547);
#543 = LINE('',#544,#545);
#544 = CARTESIAN_POINT('',(-0.,-0.6));
#545 = VECTOR('',#546,1.);
#546 = DIRECTION('',(-1.,-0.));
#547 = ( GEOMETRIC_REPRESENTATION_CONTEXT(2) 
PARAMETRIC_REPRESENTATION_CONTEXT() REPRESENTATION_CONTEXT('2D SPACE',''
  ) );
#548 = PCURVE('',#549,#554);
#549 = CYLINDRICAL_SURFACE('',#550,2.15);
#550 = AXIS2_PLACEMENT_3D('',#551,#552,#553);
#551 = CARTESIAN_POINT('',(-47.5,-13.2,0.));
#552 = DIRECTION('',(0.,1.,0.));
#553 = DIRECTION('',(0.,-0.,1.));
#554 = DEFINITIONAL_REPRESENTATION('',(#555),#559);
#555 = LINE('',#556,#557);
#556 = CARTESIAN_POINT('',(0.,0.6));
#557 = VECTOR('',#558,1.);
#558 = DIRECTION('',(1.,0.));
#559 = ( GEOMETRIC_REPRESENTATION_CONTEXT(2) 
PARAMETRIC_REPRESENTATION_CONTEXT() REPRESENTATION_CONTEXT('2D SPACE',''
  ) );
#560 = ORIENTED_EDGE('',*,*,#511,.F.);
#561 = ORIENTED_EDGE('',*,*,#479,.T.);
#562 = ADVANCED_FACE('',(#563),#549,.F.);
#563 = FACE_BOUND('',#564,.F.);
#564 = EDGE_LOOP('',(#565,#588,#615,#616));
#565 = ORIENTED_EDGE('',*,*,#566,.T.);
#566 = EDGE_CURVE('',#512,#567,#569,.T.);
#567 = VERTEX_POINT('',#568);
#568 = CARTESIAN_POINT('',(-47.5,-6.,2.15));
#569 = SEAM_CURVE('',#570,(#574,#581),.PCURVE_S1.);
#570 = LINE('',#571,#572);
#571 = CARTESIAN_POINT('',(-47.5,-13.2,2.15));
#572 = VECTOR('',#573,1.);
#573 = DIRECTION('',(0.,1.,0.));
#574 = PCURVE('',#549,#575);
#575 = DEFINITIONAL_REPRESENTATION('',(#576),#580);
#576 = LINE('',#577,#578);
#577 = CARTESIAN_POINT('',(6.28318530718,-0.));
#578 = VECTOR('',#579,1.);
#579 = DIRECTION('',(0.,1.));
#580 = ( GEOMETRIC_REPRESENTATION_CONTEXT(2) 
PARAMETRIC_REPRESENTATION_CONTEXT() REPRESENTATION_CONTEXT('2D SPACE',''
  ) );
#581 = PCURVE('',#549,#582);
#582 = DEFINITIONAL_REPRESENTATION('',(#583),#587);
#583 = LINE('',#584,#585);
#584 = CARTESIAN_POINT('',(0.,-0.));
#585 = VECTOR('',#586,1.);
#586 = DIRECTION('',(0.,1.));
#587 = ( GEOMETRIC_REPRESENTATION_CONTEXT(2) 
PARAMETRIC_REPRESENTATION_CONTEXT() REPRESENTATION_CONTEXT('2D SPACE',''
  ) );
#588 = ORIENTED_EDGE('',*,*,#589,.F.);
#589 = EDGE_CURVE('',#567,#567,#590,.T.);
#590 = SURFACE_CURVE('',#591,(#596,#603),.PCURVE_S1.);
#591 = CIRCLE('',#592,2.15);
#592 = AXIS2_PLACEMENT_3D('',#593,#594,#595);
#593 = CARTESIAN_POINT('',(-47.5,-6.,0.));
#594 = DIRECTION('',(0.,1.,0.));
#595 = DIRECTION('',(0.,-0.,1.));
#596 = PCURVE('',#549,#597);
#597 = DEFINITIONAL_REPRESENTATION('',(#598),#602);
#598 = LINE('',#599,#600);
#599 = CARTESIAN_POINT('',(0.,7.2));
#600 = VECTOR('',#601,1.);
#601 = DIRECTION('',(1.,0.));
#602 = ( GEOMETRIC_REPRESENTATION_CONTEXT(2) 
PARAMETRIC_REPRESENTATION_CONTEXT() REPRESENTATION_CONTEXT('2D SPACE',''
  ) );
#603 = PCURVE('',#604,#609);
#604 = PLANE('',#605);
#605 = AXIS2_PLACEMENT_3D('',#606,#607,#608);
#606 = CARTESIAN_POINT('',(-47.5,-6.,0.));
#607 = DIRECTION('',(0.,1.,0.));
#608 = DIRECTION('',(0.,-0.,1.));
#609 = DEFINITIONAL_REPRESENTATION('',(#610),#614);
#610 = CIRCLE('',#611,2.15);
#611 = AXIS2_PLACEMENT_2D('',#612,#613);
#612 = CARTESIAN_POINT('',(0.,0.));
#613 = DIRECTION('',(1.,0.));
#614 = ( GEOMETRIC_REPRESENTATION_CONTEXT(2) 
PARAMETRIC_REPRESENTATION_CONTEXT() REPRESENTATION_CONTEXT('2D SPACE',''
  ) );
#615 = ORIENTED_EDGE('',*,*,#566,.F.);
#616 = ORIENTED_EDGE('',*,*,#534,.T.);
#617 = ADVANCED_FACE('',(#618),#604,.F.);
#618 = FACE_BOUND('',#619,.F.);
#619 = EDGE_LOOP('',(#620));
#620 = ORIENTED_EDGE('',*,*,#589,.T.);
#621 = ADVANCED_FACE('',(#622),#465,.F.);
#622 = FACE_BOUND('',#623,.F.);
#623 = EDGE_LOOP('',(#624,#655,#680,#681));
#624 = ORIENTED_EDGE('',*,*,#625,.F.);
#625 = EDGE_CURVE('',#626,#628,#630,.T.);
#626 = VERTEX_POINT('',#627);
#627 = CARTESIAN_POINT('',(-48.83510299228,-12.6,-10.));
#628 = VERTEX_POINT('',#629);
#629 = CARTESIAN_POINT('',(-46.16489700771,-12.6,-10.));
#630 = SURFACE_CURVE('',#631,(#636,#643),.PCURVE_S1.);
#631 = CIRCLE('',#632,1.35);
#632 = AXIS2_PLACEMENT_3D('',#633,#634,#635);
#633 = CARTESIAN_POINT('',(-47.5,-12.6,-10.2));
#634 = DIRECTION('',(0.,1.,-0.));
#635 = DIRECTION('',(-0.988965179468,0.,0.148148148148));
#636 = PCURVE('',#465,#637);
#637 = DEFINITIONAL_REPRESENTATION('',(#638),#642);
#638 = LINE('',#639,#640);
#639 = CARTESIAN_POINT('',(-4.861084474652,-0.6));
#640 = VECTOR('',#641,1.);
#641 = DIRECTION('',(-1.,-0.));
#642 = ( GEOMETRIC_REPRESENTATION_CONTEXT(2) 
PARAMETRIC_REPRESENTATION_CONTEXT() REPRESENTATION_CONTEXT('2D SPACE',''
  ) );
#643 = PCURVE('',#644,#649);
#644 = CYLINDRICAL_SURFACE('',#645,1.35);
#645 = AXIS2_PLACEMENT_3D('',#646,#647,#648);
#646 = CARTESIAN_POINT('',(-47.5,-13.2,-10.2));
#647 = DIRECTION('',(0.,1.,0.));
#648 = DIRECTION('',(0.,-0.,1.));
#649 = DEFINITIONAL_REPRESENTATION('',(#650),#654);
#650 = LINE('',#651,#652);
#651 = CARTESIAN_POINT('',(4.861084474652,0.6));
#652 = VECTOR('',#653,1.);
#653 = DIRECTION('',(1.,0.));
#654 = ( GEOMETRIC_REPRESENTATION_CONTEXT(2) 
PARAMETRIC_REPRESENTATION_CONTEXT() REPRESENTATION_CONTEXT('2D SPACE',''
  ) );
#655 = ORIENTED_EDGE('',*,*,#656,.F.);
#656 = EDGE_CURVE('',#404,#626,#657,.T.);
#657 = SURFACE_CURVE('',#658,(#663,#673),.PCURVE_S1.);
#658 = HYPERBOLA('',#659,0.2,0.2);
#659 = AXIS2_PLACEMENT_3D('',#660,#661,#662);
#660 = CARTESIAN_POINT('',(-47.5,-11.25,-10.));
#661 = DIRECTION('',(0.,0.,1.));
#662 = DIRECTION('',(0.,-1.,0.));
#663 = PCURVE('',#465,#664);
#664 = DEFINITIONAL_REPRESENTATION('',(#665),#672);
#665 = B_SPLINE_CURVE_WITH_KNOTS('',5,(#666,#667,#668,#669,#670,#671),
  .UNSPECIFIED.,.F.,.F.,(6,6),(-2.858919464415,-2.597156998051),
  .PIECEWISE_BEZIER_KNOTS.);
#666 = CARTESIAN_POINT('',(-4.826924953605,-0.200000002788));
#667 = CARTESIAN_POINT('',(-4.832908095816,-0.291016572073));
#668 = CARTESIAN_POINT('',(-4.839280213167,-0.376037668784));
#669 = CARTESIAN_POINT('',(-4.846074576217,-0.455583049469));
#670 = CARTESIAN_POINT('',(-4.853328549723,-0.530104029578));
#671 = CARTESIAN_POINT('',(-4.861084474652,-0.6));
#672 = ( GEOMETRIC_REPRESENTATION_CONTEXT(2) 
PARAMETRIC_REPRESENTATION_CONTEXT() REPRESENTATION_CONTEXT('2D SPACE',''
  ) );
#673 = PCURVE('',#70,#674);
#674 = DEFINITIONAL_REPRESENTATION('',(#675),#679);
#675 = ( BOUNDED_CURVE() B_SPLINE_CURVE(2,(#676,#677,#678),
.UNSPECIFIED.,.F.,.F.) B_SPLINE_CURVE_WITH_KNOTS((3,3),(-2.96777418158,
-2.597156998051),.PIECEWISE_BEZIER_KNOTS.) CURVE() 
GEOMETRIC_REPRESENTATION_ITEM() RATIONAL_B_SPLINE_CURVE((1.,
1.017218826104,1.)) REPRESENTATION_ITEM('') );
#676 = CARTESIAN_POINT('',(17.060283525873,-0.2));
#677 = CARTESIAN_POINT('',(17.417555128781,0.155387494307));
#678 = CARTESIAN_POINT('',(17.664897007718,0.4));
#679 = ( GEOMETRIC_REPRESENTATION_CONTEXT(2) 
PARAMETRIC_REPRESENTATION_CONTEXT() REPRESENTATION_CONTEXT('2D SPACE',''
  ) );
#680 = ORIENTED_EDGE('',*,*,#450,.T.);
#681 = ORIENTED_EDGE('',*,*,#682,.F.);
#682 = EDGE_CURVE('',#628,#428,#683,.T.);
#683 = SURFACE_CURVE('',#684,(#689,#699),.PCURVE_S1.);
#684 = HYPERBOLA('',#685,0.2,0.2);
#685 = AXIS2_PLACEMENT_3D('',#686,#687,#688);
#686 = CARTESIAN_POINT('',(-47.5,-11.25,-10.));
#687 = DIRECTION('',(0.,0.,1.));
#688 = DIRECTION('',(0.,-1.,0.));
#689 = PCURVE('',#465,#690);
#690 = DEFINITIONAL_REPRESENTATION('',(#691),#698);
#691 = B_SPLINE_CURVE_WITH_KNOTS('',5,(#692,#693,#694,#695,#696,#697),
  .UNSPECIFIED.,.F.,.F.,(6,6),(2.597156998051,2.858919464415),
  .PIECEWISE_BEZIER_KNOTS.);
#692 = CARTESIAN_POINT('',(-7.705286139707,-0.6));
#693 = CARTESIAN_POINT('',(-7.713042064636,-0.530104029578));
#694 = CARTESIAN_POINT('',(-7.720296038142,-0.455583049469));
#695 = CARTESIAN_POINT('',(-7.727090401193,-0.376037668784));
#696 = CARTESIAN_POINT('',(-7.733462518543,-0.291016572073));
#697 = CARTESIAN_POINT('',(-7.739445660754,-0.200000002788));
#698 = ( GEOMETRIC_REPRESENTATION_CONTEXT(2) 
PARAMETRIC_REPRESENTATION_CONTEXT() REPRESENTATION_CONTEXT('2D SPACE',''
  ) );
#699 = PCURVE('',#70,#700);
#700 = DEFINITIONAL_REPRESENTATION('',(#701),#705);
#701 = ( BOUNDED_CURVE() B_SPLINE_CURVE(2,(#702,#703,#704),
.UNSPECIFIED.,.F.,.F.) B_SPLINE_CURVE_WITH_KNOTS((3,3),(2.597156998051,
2.96777418158),.PIECEWISE_BEZIER_KNOTS.) CURVE() 
GEOMETRIC_REPRESENTATION_ITEM() RATIONAL_B_SPLINE_CURVE((1.,
1.017218826104,1.)) REPRESENTATION_ITEM('') );
#702 = CARTESIAN_POINT('',(20.335102992282,0.4));
#703 = CARTESIAN_POINT('',(20.582444871219,0.155387494307));
#704 = CARTESIAN_POINT('',(20.939716474127,-0.2));
#705 = ( GEOMETRIC_REPRESENTATION_CONTEXT(2) 
PARAMETRIC_REPRESENTATION_CONTEXT() REPRESENTATION_CONTEXT('2D SPACE',''
  ) );
#706 = ADVANCED_FACE('',(#707),#644,.F.);
#707 = FACE_BOUND('',#708,.F.);
#708 = EDGE_LOOP('',(#709,#740,#759,#760));
#709 = ORIENTED_EDGE('',*,*,#710,.F.);
#710 = EDGE_CURVE('',#711,#713,#715,.T.);
#711 = VERTEX_POINT('',#712);
#712 = CARTESIAN_POINT('',(-48.83510299228,-5.,-10.));
#713 = VERTEX_POINT('',#714);
#714 = CARTESIAN_POINT('',(-46.16489700771,-5.,-10.));
#715 = SURFACE_CURVE('',#716,(#721,#728),.PCURVE_S1.);
#716 = CIRCLE('',#717,1.35);
#717 = AXIS2_PLACEMENT_3D('',#718,#719,#720);
#718 = CARTESIAN_POINT('',(-47.5,-5.,-10.2));
#719 = DIRECTION('',(0.,1.,-0.));
#720 = DIRECTION('',(-0.988965179468,0.,0.148148148148));
#721 = PCURVE('',#644,#722);
#722 = DEFINITIONAL_REPRESENTATION('',(#723),#727);
#723 = LINE('',#724,#725);
#724 = CARTESIAN_POINT('',(4.861084474652,8.2));
#725 = VECTOR('',#726,1.);
#726 = DIRECTION('',(1.,0.));
#727 = ( GEOMETRIC_REPRESENTATION_CONTEXT(2) 
PARAMETRIC_REPRESENTATION_CONTEXT() REPRESENTATION_CONTEXT('2D SPACE',''
  ) );
#728 = PCURVE('',#729,#734);
#729 = PLANE('',#730);
#730 = AXIS2_PLACEMENT_3D('',#731,#732,#733);
#731 = CARTESIAN_POINT('',(-47.5,-5.,-10.2));
#732 = DIRECTION('',(0.,1.,0.));
#733 = DIRECTION('',(0.,-0.,1.));
#734 = DEFINITIONAL_REPRESENTATION('',(#735),#739);
#735 = CIRCLE('',#736,1.35);
#736 = AXIS2_PLACEMENT_2D('',#737,#738);
#737 = CARTESIAN_POINT('',(0.,0.));
#738 = DIRECTION('',(0.148148148148,-0.988965179468));
#739 = ( GEOMETRIC_REPRESENTATION_CONTEXT(2) 
PARAMETRIC_REPRESENTATION_CONTEXT() REPRESENTATION_CONTEXT('2D SPACE',''
  ) );
#740 = ORIENTED_EDGE('',*,*,#741,.F.);
#741 = EDGE_CURVE('',#626,#711,#742,.T.);
#742 = SURFACE_CURVE('',#743,(#747,#753),.PCURVE_S1.);
#743 = LINE('',#744,#745);
#744 = CARTESIAN_POINT('',(-48.83510299228,-13.2,-10.));
#745 = VECTOR('',#746,1.);
#746 = DIRECTION('',(0.,1.,0.));
#747 = PCURVE('',#644,#748);
#748 = DEFINITIONAL_REPRESENTATION('',(#749),#752);
#749 = B_SPLINE_CURVE_WITH_KNOTS('',1,(#750,#751),.UNSPECIFIED.,.F.,.F.,
  (2,2),(0.6,8.2),.PIECEWISE_BEZIER_KNOTS.);
#750 = CARTESIAN_POINT('',(4.861084474652,0.6));
#751 = CARTESIAN_POINT('',(4.861084474652,8.2));
#752 = ( GEOMETRIC_REPRESENTATION_CONTEXT(2) 
PARAMETRIC_REPRESENTATION_CONTEXT() REPRESENTATION_CONTEXT('2D SPACE',''
  ) );
#753 = PCURVE('',#70,#754);
#754 = DEFINITIONAL_REPRESENTATION('',(#755),#758);
#755 = B_SPLINE_CURVE_WITH_KNOTS('',1,(#756,#757),.UNSPECIFIED.,.F.,.F.,
  (2,2),(0.5999994,8.2000006),.PIECEWISE_BEZIER_KNOTS.);
#756 = CARTESIAN_POINT('',(17.664897007718,0.3999994));
#757 = CARTESIAN_POINT('',(17.664897007718,8.0000006));
#758 = ( GEOMETRIC_REPRESENTATION_CONTEXT(2) 
PARAMETRIC_REPRESENTATION_CONTEXT() REPRESENTATION_CONTEXT('2D SPACE',''
  ) );
#759 = ORIENTED_EDGE('',*,*,#625,.T.);
#760 = ORIENTED_EDGE('',*,*,#761,.T.);
#761 = EDGE_CURVE('',#628,#713,#762,.T.);
#762 = SURFACE_CURVE('',#763,(#767,#773),.PCURVE_S1.);
#763 = LINE('',#764,#765);
#764 = CARTESIAN_POINT('',(-46.16489700771,-13.2,-10.));
#765 = VECTOR('',#766,1.);
#766 = DIRECTION('',(0.,1.,0.));
#767 = PCURVE('',#644,#768);
#768 = DEFINITIONAL_REPRESENTATION('',(#769),#772);
#769 = B_SPLINE_CURVE_WITH_KNOTS('',1,(#770,#771),.UNSPECIFIED.,.F.,.F.,
  (2,2),(0.6,8.2),.PIECEWISE_BEZIER_KNOTS.);
#770 = CARTESIAN_POINT('',(7.705286139707,0.6));
#771 = CARTESIAN_POINT('',(7.705286139707,8.2));
#772 = ( GEOMETRIC_REPRESENTATION_CONTEXT(2) 
PARAMETRIC_REPRESENTATION_CONTEXT() REPRESENTATION_CONTEXT('2D SPACE',''
  ) );
#773 = PCURVE('',#70,#774);
#774 = DEFINITIONAL_REPRESENTATION('',(#775),#778);
#775 = B_SPLINE_CURVE_WITH_KNOTS('',1,(#776,#777),.UNSPECIFIED.,.F.,.F.,
  (2,2),(0.5999994,8.2000006),.PIECEWISE_BEZIER_KNOTS.);
#776 = CARTESIAN_POINT('',(20.335102992282,0.3999994));
#777 = CARTESIAN_POINT('',(20.335102992282,8.0000006));
#778 = ( GEOMETRIC_REPRESENTATION_CONTEXT(2) 
PARAMETRIC_REPRESENTATION_CONTEXT() REPRESENTATION_CONTEXT('2D SPACE',''
  ) );
#779 = ADVANCED_FACE('',(#780),#729,.F.);
#780 = FACE_BOUND('',#781,.F.);
#781 = EDGE_LOOP('',(#782,#783));
#782 = ORIENTED_EDGE('',*,*,#710,.T.);
#783 = ORIENTED_EDGE('',*,*,#784,.T.);
#784 = EDGE_CURVE('',#713,#711,#785,.T.);
#785 = SURFACE_CURVE('',#786,(#790,#796),.PCURVE_S1.);
#786 = LINE('',#787,#788);
#787 = CARTESIAN_POINT('',(-57.,-5.,-10.));
#788 = VECTOR('',#789,1.);
#789 = DIRECTION('',(-1.,0.,0.));
#790 = PCURVE('',#729,#791);
#791 = DEFINITIONAL_REPRESENTATION('',(#792),#795);
#792 = B_SPLINE_CURVE_WITH_KNOTS('',1,(#793,#794),.UNSPECIFIED.,.F.,.F.,
  (2,2),(-10.85,-8.15),.PIECEWISE_BEZIER_KNOTS.);
#793 = CARTESIAN_POINT('',(0.2,1.35));
#794 = CARTESIAN_POINT('',(0.2,-1.35));
#795 = ( GEOMETRIC_REPRESENTATION_CONTEXT(2) 
PARAMETRIC_REPRESENTATION_CONTEXT() REPRESENTATION_CONTEXT('2D SPACE',''
  ) );
#796 = PCURVE('',#70,#797);
#797 = DEFINITIONAL_REPRESENTATION('',(#798),#801);
#798 = B_SPLINE_CURVE_WITH_KNOTS('',1,(#799,#800),.UNSPECIFIED.,.F.,.F.,
  (2,2),(-10.85,-8.15),.PIECEWISE_BEZIER_KNOTS.);
#799 = CARTESIAN_POINT('',(20.35,8.));
#800 = CARTESIAN_POINT('',(17.65,8.));
#801 = ( GEOMETRIC_REPRESENTATION_CONTEXT(2) 
PARAMETRIC_REPRESENTATION_CONTEXT() REPRESENTATION_CONTEXT('2D SPACE',''
  ) );
#802 = ADVANCED_FACE('',(#803),#70,.F.);
#803 = FACE_BOUND('',#804,.F.);
#804 = EDGE_LOOP('',(#805,#806,#807,#808,#809,#810,#811,#812,#813));
#805 = ORIENTED_EDGE('',*,*,#180,.T.);
#806 = ORIENTED_EDGE('',*,*,#53,.T.);
#807 = ORIENTED_EDGE('',*,*,#403,.T.);
#808 = ORIENTED_EDGE('',*,*,#656,.T.);
#809 = ORIENTED_EDGE('',*,*,#741,.T.);
#810 = ORIENTED_EDGE('',*,*,#784,.F.);
#811 = ORIENTED_EDGE('',*,*,#761,.F.);
#812 = ORIENTED_EDGE('',*,*,#682,.T.);
#813 = ORIENTED_EDGE('',*,*,#427,.T.);
#814 = ( GEOMETRIC_REPRESENTATION_CONTEXT(3) 
GLOBAL_UNCERTAINTY_ASSIGNED_CONTEXT((#818)) GLOBAL_UNIT_ASSIGNED_CONTEXT
((#815,#816,#817)) REPRESENTATION_CONTEXT('Context #1',
  '3D Context with UNIT and UNCERTAINTY') );
#815 = ( LENGTH_UNIT() NAMED_UNIT(*) SI_UNIT(.MILLI.,.METRE.) );
#816 = ( NAMED_UNIT(*) PLANE_ANGLE_UNIT() SI_UNIT($,.RADIAN.) );
#817 = ( NAMED_UNIT(*) SI_UNIT($,.STERADIAN.) SOLID_ANGLE_UNIT() );
#818 = UNCERTAINTY_MEASURE_WITH_UNIT(LENGTH_MEASURE(1.E-07),#815,
  'distance_accuracy_value','confusion accuracy');
#819 = PRODUCT_RELATED_PRODUCT_CATEGORY('part',$,(#7));
ENDSEC;
END-ISO-10303-21;
