ISO-10303-21;
HEADER;
FILE_DESCRIPTION(('Open CASCADE Model'),'2;1');
FILE_NAME('Open CASCADE Shape Model','2026-09-30T02:35:08',('Author'),(
    'Open CASCADE'),'Open CASCADE STEP processor 7.9','Open CASCADE 7.9'
  ,'Unknown');
FILE_SCHEMA(('AUTOMOTIVE_DESIGN { 1 0 10303 214 1 1 1 1 }'));
ENDSEC;
DATA;
#1 = APPLICATION_PROTOCOL_DEFINITION('international standard',
  'automotive_design',2000,#2);
#2 = APPLICATION_CONTEXT(
  'core data for automotive mechanical design processes');
#3 = SHAPE_DEFINITION_REPRESENTATION(#4,#10);
#4 = PRODUCT_DEFINITION_SHAPE('','',#5);
#5 = PRODUCT_DEFINITION('design','',#6,#9);
#6 = PRODUCT_DEFINITION_FORMATION('','',#7);
#7 = PRODUCT('Open CASCADE STEP translator 7.9 1',
  'Open CASCADE STEP translator 7.9 1','',(#8));
#8 = PRODUCT_CONTEXT('',#2,'mechanical');
#9 = PRODUCT_DEFINITION_CONTEXT('part definition',#2,'design');
#10 = ADVANCED_BREP_SHAPE_REPRESENTATION('',(#11,#15),#1467);
#11 = AXIS2_PLACEMENT_3D('',#12,#13,#14);
#12 = CARTESIAN_POINT('',(0.,0.,0.));
#13 = DIRECTION('',(0.,0.,1.));
#14 = DIRECTION('',(1.,0.,-0.));
#15 = MANIFOLD_SOLID_BREP('',#16);
#16 = CLOSED_SHELL('',(#17,#556,#595,#650,#654,#755,#805,#842,#897,#952,
    #956,#1058,#1134,#1205,#1284,#1339,#1343,#1374,#1400,#1455,#1459));
#17 = ADVANCED_FACE('',(#18,#232,#456),#33,.T.);
#18 = FACE_BOUND('',#19,.T.);
#19 = EDGE_LOOP('',(#20,#56,#80,#107,#108,#132,#164,#202));
#20 = ORIENTED_EDGE('',*,*,#21,.T.);
#21 = EDGE_CURVE('',#22,#24,#26,.T.);
#22 = VERTEX_POINT('',#23);
#23 = CARTESIAN_POINT('',(-44.6,-10.93572128393,-14.));
#24 = VERTEX_POINT('',#25);
#25 = CARTESIAN_POINT('',(-36.18629150101,-2.771059379954E-15,-14.));
#26 = SURFACE_CURVE('',#27,(#32,#44),.PCURVE_S1.);
#27 = CIRCLE('',#28,11.313708498985);
#28 = AXIS2_PLACEMENT_3D('',#29,#30,#31);
#29 = CARTESIAN_POINT('',(-47.5,0.,-14.));
#30 = DIRECTION('',(0.,0.,1.));
#31 = DIRECTION('',(1.,0.,-0.));
#32 = PCURVE('',#33,#38);
#33 = SPHERICAL_SURFACE('',#34,18.);
#34 = AXIS2_PLACEMENT_3D('',#35,#36,#37);
#35 = CARTESIAN_POINT('',(-47.5,0.,0.));
#36 = DIRECTION('',(0.,0.,1.));
#37 = DIRECTION('',(1.,0.,-0.));
#38 = DEFINITIONAL_REPRESENTATION('',(#39),#43);
#39 = LINE('',#40,#41);
#40 = CARTESIAN_POINT('',(0.,-0.891122507887));
#41 = VECTOR('',#42,1.);
#42 = DIRECTION('',(1.,0.));
#43 = ( GEOMETRIC_REPRESENTATION_CONTEXT(2) 
PARAMETRIC_REPRESENTATION_CONTEXT() REPRESENTATION_CONTEXT('2D SPACE',''
  ) );
#44 = PCURVE('',#45,#50);
#45 = PLANE('',#46);
#46 = AXIS2_PLACEMENT_3D('',#47,#48,#49);
#47 = CARTESIAN_POINT('',(-66.5,-13.,-14.));
#48 = DIRECTION('',(0.,0.,1.));
#49 = DIRECTION('',(1.,0.,-0.));
#50 = DEFINITIONAL_REPRESENTATION('',(#51),#55);
#51 = CIRCLE('',#52,11.313708498985);
#52 = AXIS2_PLACEMENT_2D('',#53,#54);
#53 = CARTESIAN_POINT('',(19.,13.));
#54 = DIRECTION('',(1.,0.));
#55 = ( GEOMETRIC_REPRESENTATION_CONTEXT(2) 
PARAMETRIC_REPRESENTATION_CONTEXT() REPRESENTATION_CONTEXT('2D SPACE',''
  ) );
#56 = ORIENTED_EDGE('',*,*,#57,.T.);
#57 = EDGE_CURVE('',#24,#58,#60,.T.);
#58 = VERTEX_POINT('',#59);
#59 = CARTESIAN_POINT('',(-39.4,-1.983927814619E-15,16.074513989543));
#60 = SEAM_CURVE('',#61,(#66,#73),.PCURVE_S1.);
#61 = CIRCLE('',#62,18.);
#62 = AXIS2_PLACEMENT_3D('',#63,#64,#65);
#63 = CARTESIAN_POINT('',(-47.5,0.,0.));
#64 = DIRECTION('',(-2.449293598295E-16,-1.,0.));
#65 = DIRECTION('',(1.,-2.449293598295E-16,0.));
#66 = PCURVE('',#33,#67);
#67 = DEFINITIONAL_REPRESENTATION('',(#68),#72);
#68 = LINE('',#69,#70);
#69 = CARTESIAN_POINT('',(6.28318530718,-6.28318530718));
#70 = VECTOR('',#71,1.);
#71 = DIRECTION('',(0.,1.));
#72 = ( GEOMETRIC_REPRESENTATION_CONTEXT(2) 
PARAMETRIC_REPRESENTATION_CONTEXT() REPRESENTATION_CONTEXT('2D SPACE',''
  ) );
#73 = PCURVE('',#33,#74);
#74 = DEFINITIONAL_REPRESENTATION('',(#75),#79);
#75 = LINE('',#76,#77);
#76 = CARTESIAN_POINT('',(0.,-6.28318530718));
#77 = VECTOR('',#78,1.);
#78 = DIRECTION('',(0.,1.));
#79 = ( GEOMETRIC_REPRESENTATION_CONTEXT(2) 
PARAMETRIC_REPRESENTATION_CONTEXT() REPRESENTATION_CONTEXT('2D SPACE',''
  ) );
#80 = ORIENTED_EDGE('',*,*,#81,.F.);
#81 = EDGE_CURVE('',#58,#58,#82,.T.);
#82 = SURFACE_CURVE('',#83,(#88,#95),.PCURVE_S1.);
#83 = CIRCLE('',#84,8.1);
#84 = AXIS2_PLACEMENT_3D('',#85,#86,#87);
#85 = CARTESIAN_POINT('',(-47.5,0.,16.074513989543));
#86 = DIRECTION('',(0.,0.,1.));
#87 = DIRECTION('',(0.,-1.,0.));
#88 = PCURVE('',#33,#89);
#89 = DEFINITIONAL_REPRESENTATION('',(#90),#94);
#90 = LINE('',#91,#92);
#91 = CARTESIAN_POINT('',(-1.570796326795,1.104030987748));
#92 = VECTOR('',#93,1.);
#93 = DIRECTION('',(1.,0.));
#94 = ( GEOMETRIC_REPRESENTATION_CONTEXT(2) 
PARAMETRIC_REPRESENTATION_CONTEXT() REPRESENTATION_CONTEXT('2D SPACE',''
  ) );
#95 = PCURVE('',#96,#101);
#96 = CYLINDRICAL_SURFACE('',#97,8.1);
#97 = AXIS2_PLACEMENT_3D('',#98,#99,#100);
#98 = CARTESIAN_POINT('',(-47.5,0.,14.124515496597));
#99 = DIRECTION('',(0.,0.,1.));
#100 = DIRECTION('',(1.,0.,-0.));
#101 = DEFINITIONAL_REPRESENTATION('',(#102),#106);
#102 = LINE('',#103,#104);
#103 = CARTESIAN_POINT('',(-1.570796326795,1.949998492945));
#104 = VECTOR('',#105,1.);
#105 = DIRECTION('',(1.,0.));
#106 = ( GEOMETRIC_REPRESENTATION_CONTEXT(2) 
PARAMETRIC_REPRESENTATION_CONTEXT() REPRESENTATION_CONTEXT('2D SPACE',''
  ) );
#107 = ORIENTED_EDGE('',*,*,#57,.F.);
#108 = ORIENTED_EDGE('',*,*,#109,.T.);
#109 = EDGE_CURVE('',#24,#110,#112,.T.);
#110 = VERTEX_POINT('',#111);
#111 = CARTESIAN_POINT('',(-50.4,-10.93572128393,-14.));
#112 = SURFACE_CURVE('',#113,(#118,#125),.PCURVE_S1.);
#113 = CIRCLE('',#114,11.313708498985);
#114 = AXIS2_PLACEMENT_3D('',#115,#116,#117);
#115 = CARTESIAN_POINT('',(-47.5,0.,-14.));
#116 = DIRECTION('',(0.,0.,1.));
#117 = DIRECTION('',(1.,0.,-0.));
#118 = PCURVE('',#33,#119);
#119 = DEFINITIONAL_REPRESENTATION('',(#120),#124);
#120 = LINE('',#121,#122);
#121 = CARTESIAN_POINT('',(0.,-0.891122507887));
#122 = VECTOR('',#123,1.);
#123 = DIRECTION('',(1.,0.));
#124 = ( GEOMETRIC_REPRESENTATION_CONTEXT(2) 
PARAMETRIC_REPRESENTATION_CONTEXT() REPRESENTATION_CONTEXT('2D SPACE',''
  ) );
#125 = PCURVE('',#45,#126);
#126 = DEFINITIONAL_REPRESENTATION('',(#127),#131);
#127 = CIRCLE('',#128,11.313708498985);
#128 = AXIS2_PLACEMENT_2D('',#129,#130);
#129 = CARTESIAN_POINT('',(19.,13.));
#130 = DIRECTION('',(1.,0.));
#131 = ( GEOMETRIC_REPRESENTATION_CONTEXT(2) 
PARAMETRIC_REPRESENTATION_CONTEXT() REPRESENTATION_CONTEXT('2D SPACE',''
  ) );
#132 = ORIENTED_EDGE('',*,*,#133,.F.);
#133 = EDGE_CURVE('',#134,#110,#136,.T.);
#134 = VERTEX_POINT('',#135);
#135 = CARTESIAN_POINT('',(-50.4,-11.4,-13.62461008616));
#136 = SURFACE_CURVE('',#137,(#142,#152),.PCURVE_S1.);
#137 = CIRCLE('',#138,17.764852940568);
#138 = AXIS2_PLACEMENT_3D('',#139,#140,#141);
#139 = CARTESIAN_POINT('',(-50.4,0.,-3.845925372767E-16));
#140 = DIRECTION('',(1.,0.,1.326181163023E-16));
#141 = DIRECTION('',(-1.326181163023E-16,0.,1.));
#142 = PCURVE('',#33,#143);
#143 = DEFINITIONAL_REPRESENTATION('',(#144),#151);
#144 = B_SPLINE_CURVE_WITH_KNOTS('',5,(#145,#146,#147,#148,#149,#150),
  .UNSPECIFIED.,.F.,.F.,(6,6),(2.444858313457,2.478468562275),
  .PIECEWISE_BEZIER_KNOTS.);
#145 = CARTESIAN_POINT('',(4.463286629292,-0.858591391769));
#146 = CARTESIAN_POINT('',(4.461367156933,-0.865105959506));
#147 = CARTESIAN_POINT('',(4.459397981067,-0.871616551024));
#148 = CARTESIAN_POINT('',(4.457376927242,-0.878122979012));
#149 = CARTESIAN_POINT('',(4.455301628585,-0.884625039556));
#150 = CARTESIAN_POINT('',(4.453169478426,-0.891122507887));
#151 = ( GEOMETRIC_REPRESENTATION_CONTEXT(2) 
PARAMETRIC_REPRESENTATION_CONTEXT() REPRESENTATION_CONTEXT('2D SPACE',''
  ) );
#152 = PCURVE('',#153,#158);
#153 = PLANE('',#154);
#154 = AXIS2_PLACEMENT_3D('',#155,#156,#157);
#155 = CARTESIAN_POINT('',(-50.4,-11.4,-12.17431578065));
#156 = DIRECTION('',(1.,0.,1.326181163023E-16));
#157 = DIRECTION('',(-1.326181163023E-16,0.,1.));
#158 = DEFINITIONAL_REPRESENTATION('',(#159),#163);
#159 = CIRCLE('',#160,17.764852940568);
#160 = AXIS2_PLACEMENT_2D('',#161,#162);
#161 = CARTESIAN_POINT('',(12.17431578065,-11.4));
#162 = DIRECTION('',(1.,0.));
#163 = ( GEOMETRIC_REPRESENTATION_CONTEXT(2) 
PARAMETRIC_REPRESENTATION_CONTEXT() REPRESENTATION_CONTEXT('2D SPACE',''
  ) );
#164 = ORIENTED_EDGE('',*,*,#165,.F.);
#165 = EDGE_CURVE('',#166,#134,#168,.T.);
#166 = VERTEX_POINT('',#167);
#167 = CARTESIAN_POINT('',(-44.6,-11.4,-13.62461008616));
#168 = SURFACE_CURVE('',#169,(#174,#190),.PCURVE_S1.);
#169 = CIRCLE('',#170,13.929824119493);
#170 = AXIS2_PLACEMENT_3D('',#171,#172,#173);
#171 = CARTESIAN_POINT('',(-47.5,-11.4,0.));
#172 = DIRECTION('',(0.,1.,0.));
#173 = DIRECTION('',(0.,-0.,1.));
#174 = PCURVE('',#33,#175);
#175 = DEFINITIONAL_REPRESENTATION('',(#176),#189);
#176 = B_SPLINE_CURVE_WITH_KNOTS('',6,(#177,#178,#179,#180,#181,#182,
    #183,#184,#185,#186,#187,#188),.UNSPECIFIED.,.F.,.F.,(7,5,7),(
    2.931872283923,3.14159265359,3.351313023257),.UNSPECIFIED.);
#177 = CARTESIAN_POINT('',(4.961491331477,-0.858591391769));
#178 = CARTESIAN_POINT('',(4.922256087557,-0.867208596111));
#179 = CARTESIAN_POINT('',(4.881730762287,-0.874230890405));
#180 = CARTESIAN_POINT('',(4.840145056577,-0.879568988755));
#181 = CARTESIAN_POINT('',(4.797809027413,-0.883151946024));
#182 = CARTESIAN_POINT('',(4.755099036872,-0.884943362176));
#183 = CARTESIAN_POINT('',(4.669678923897,-0.884943362176));
#184 = CARTESIAN_POINT('',(4.626968933357,-0.883151946024));
#185 = CARTESIAN_POINT('',(4.584632904192,-0.879568988755));
#186 = CARTESIAN_POINT('',(4.543047198482,-0.874230890405));
#187 = CARTESIAN_POINT('',(4.502521873213,-0.867208596111));
#188 = CARTESIAN_POINT('',(4.463286629292,-0.858591391769));
#189 = ( GEOMETRIC_REPRESENTATION_CONTEXT(2) 
PARAMETRIC_REPRESENTATION_CONTEXT() REPRESENTATION_CONTEXT('2D SPACE',''
  ) );
#190 = PCURVE('',#191,#196);
#191 = PLANE('',#192);
#192 = AXIS2_PLACEMENT_3D('',#193,#194,#195);
#193 = CARTESIAN_POINT('',(-47.5,-11.4,-10.5));
#194 = DIRECTION('',(0.,1.,0.));
#195 = DIRECTION('',(0.,0.,-1.));
#196 = DEFINITIONAL_REPRESENTATION('',(#197),#201);
#197 = CIRCLE('',#198,13.929824119493);
#198 = AXIS2_PLACEMENT_2D('',#199,#200);
#199 = CARTESIAN_POINT('',(-10.5,0.));
#200 = DIRECTION('',(-1.,0.));
#201 = ( GEOMETRIC_REPRESENTATION_CONTEXT(2) 
PARAMETRIC_REPRESENTATION_CONTEXT() REPRESENTATION_CONTEXT('2D SPACE',''
  ) );
#202 = ORIENTED_EDGE('',*,*,#203,.F.);
#203 = EDGE_CURVE('',#22,#166,#204,.T.);
#204 = SURFACE_CURVE('',#205,(#210,#220),.PCURVE_S1.);
#205 = CIRCLE('',#206,17.764852940568);
#206 = AXIS2_PLACEMENT_3D('',#207,#208,#209);
#207 = CARTESIAN_POINT('',(-44.6,0.,1.538370149107E-15));
#208 = DIRECTION('',(-1.,0.,-5.304724652093E-16));
#209 = DIRECTION('',(5.304724652093E-16,0.,-1.));
#210 = PCURVE('',#33,#211);
#211 = DEFINITIONAL_REPRESENTATION('',(#212),#219);
#212 = B_SPLINE_CURVE_WITH_KNOTS('',5,(#213,#214,#215,#216,#217,#218),
  .UNSPECIFIED.,.F.,.F.,(6,6),(0.663124091315,0.696734340133),
  .PIECEWISE_BEZIER_KNOTS.);
#213 = CARTESIAN_POINT('',(4.971608482344,-0.891122507887));
#214 = CARTESIAN_POINT('',(4.969476332184,-0.884625039556));
#215 = CARTESIAN_POINT('',(4.967401033528,-0.878122979012));
#216 = CARTESIAN_POINT('',(4.965379979702,-0.871616551024));
#217 = CARTESIAN_POINT('',(4.963410803837,-0.865105959506));
#218 = CARTESIAN_POINT('',(4.961491331477,-0.858591391769));
#219 = ( GEOMETRIC_REPRESENTATION_CONTEXT(2) 
PARAMETRIC_REPRESENTATION_CONTEXT() REPRESENTATION_CONTEXT('2D SPACE',''
  ) );
#220 = PCURVE('',#221,#226);
#221 = PLANE('',#222);
#222 = AXIS2_PLACEMENT_3D('',#223,#224,#225);
#223 = CARTESIAN_POINT('',(-44.6,-11.4,-8.82568421935));
#224 = DIRECTION('',(-1.,0.,-5.304724652093E-16));
#225 = DIRECTION('',(5.304724652093E-16,0.,-1.));
#226 = DEFINITIONAL_REPRESENTATION('',(#227),#231);
#227 = CIRCLE('',#228,17.764852940568);
#228 = AXIS2_PLACEMENT_2D('',#229,#230);
#229 = CARTESIAN_POINT('',(-8.82568421935,-11.4));
#230 = DIRECTION('',(1.,0.));
#231 = ( GEOMETRIC_REPRESENTATION_CONTEXT(2) 
PARAMETRIC_REPRESENTATION_CONTEXT() REPRESENTATION_CONTEXT('2D SPACE',''
  ) );
#232 = FACE_BOUND('',#233,.T.);
#233 = EDGE_LOOP('',(#234,#361));
#234 = ORIENTED_EDGE('',*,*,#235,.T.);
#235 = EDGE_CURVE('',#236,#238,#240,.T.);
#236 = VERTEX_POINT('',#237);
#237 = CARTESIAN_POINT('',(-48.18875441115,-13.,-12.43083333333));
#238 = VERTEX_POINT('',#239);
#239 = CARTESIAN_POINT('',(-46.81124558884,-13.,-12.43083333333));
#240 = SURFACE_CURVE('',#241,(#246,#349),.PCURVE_S1.);
#241 = CIRCLE('',#242,12.449899597989);
#242 = AXIS2_PLACEMENT_3D('',#243,#244,#245);
#243 = CARTESIAN_POINT('',(-47.5,-13.,0.));
#244 = DIRECTION('',(0.,1.,0.));
#245 = DIRECTION('',(-5.532208559085E-02,0.,-0.99846856077));
#246 = PCURVE('',#33,#247);
#247 = DEFINITIONAL_REPRESENTATION('',(#248),#348);
#248 = B_SPLINE_CURVE_WITH_KNOTS('',8,(#249,#250,#251,#252,#253,#254,
    #255,#256,#257,#258,#259,#260,#261,#262,#263,#264,#265,#266,#267,
    #268,#269,#270,#271,#272,#273,#274,#275,#276,#277,#278,#279,#280,
    #281,#282,#283,#284,#285,#286,#287,#288,#289,#290,#291,#292,#293,
    #294,#295,#296,#297,#298,#299,#300,#301,#302,#303,#304,#305,#306,
    #307,#308,#309,#310,#311,#312,#313,#314,#315,#316,#317,#318,#319,
    #320,#321,#322,#323,#324,#325,#326,#327,#328,#329,#330,#331,#332,
    #333,#334,#335,#336,#337,#338,#339,#340,#341,#342,#343,#344,#345,
    #346,#347),.UNSPECIFIED.,.F.,.F.,(9,7,7,7,7,7,7,6,7,7,7,7,7,7,9),(0.
    ,0.253789478854,0.607846082733,1.227445139521,1.692144432111,
    2.389193370998,2.737717840441,3.086242309884,3.478941391583,
    3.847096780675,4.537388135224,5.141393070454,5.66989738878,
    6.132338667315,6.172484619768),.UNSPECIFIED.);
#249 = CARTESIAN_POINT('',(4.65945736032,-0.76232088842));
#250 = CARTESIAN_POINT('',(4.629207514498,-0.760642486258));
#251 = CARTESIAN_POINT('',(4.599129249029,-0.757868893055));
#252 = CARTESIAN_POINT('',(4.5693518232,-0.754009696805));
#253 = CARTESIAN_POINT('',(4.539999411594,-0.749083117928));
#254 = CARTESIAN_POINT('',(4.511185496232,-0.743115468545));
#255 = CARTESIAN_POINT('',(4.483008264879,-0.736139833962));
#256 = CARTESIAN_POINT('',(4.455549019219,-0.728194217686));
#257 = CARTESIAN_POINT('',(4.391656869157,-0.706939863751));
#258 = CARTESIAN_POINT('',(4.355964691486,-0.692752484028));
#259 = CARTESIAN_POINT('',(4.321972179187,-0.676870301258));
#260 = CARTESIAN_POINT('',(4.28979248965,-0.659418720502));
#261 = CARTESIAN_POINT('',(4.259478485824,-0.640527101176));
#262 = CARTESIAN_POINT('',(4.231036970369,-0.620322254436));
#263 = CARTESIAN_POINT('',(4.204445233204,-0.598924597762));
#264 = CARTESIAN_POINT('',(4.136287628429,-0.537111401216));
#265 = CARTESIAN_POINT('',(4.098449036247,-0.4944686076));
#266 = CARTESIAN_POINT('',(4.065917413061,-0.449123822956));
#267 = CARTESIAN_POINT('',(4.038281210207,-0.401610479463));
#268 = CARTESIAN_POINT('',(4.015134919546,-0.352366793966));
#269 = CARTESIAN_POINT('',(3.99613669176,-0.301764758126));
#270 = CARTESIAN_POINT('',(3.981017034098,-0.250126390151));
#271 = CARTESIAN_POINT('',(3.961014267424,-0.158455128471));
#272 = CARTESIAN_POINT('',(3.954517005356,-0.118748269272));
#273 = CARTESIAN_POINT('',(3.950015161073,-7.874498607779E-02));
#274 = CARTESIAN_POINT('',(3.947454276973,-3.855826665352E-02));
#275 = CARTESIAN_POINT('',(3.946805761875,1.704639616313E-03));
#276 = CARTESIAN_POINT('',(3.948067067247,4.19382845336E-02));
#277 = CARTESIAN_POINT('',(3.951261650066,8.203517218061E-02));
#278 = CARTESIAN_POINT('',(3.964204330673,0.181652237482));
#279 = CARTESIAN_POINT('',(3.976430578935,0.240859835772));
#280 = CARTESIAN_POINT('',(3.993283486025,0.299122076288));
#281 = CARTESIAN_POINT('',(4.015060417114,0.356027060287));
#282 = CARTESIAN_POINT('',(4.042185441504,0.411099840288));
#283 = CARTESIAN_POINT('',(4.075202446822,0.463777562753));
#284 = CARTESIAN_POINT('',(4.11473260158,0.513349591084));
#285 = CARTESIAN_POINT('',(4.184378447689,0.581799606033));
#286 = CARTESIAN_POINT('',(4.209318826737,0.603631614846));
#287 = CARTESIAN_POINT('',(4.236032879565,0.624374832586));
#288 = CARTESIAN_POINT('',(4.264554295069,0.643917629603));
#289 = CARTESIAN_POINT('',(4.294893863984,0.662141522832));
#290 = CARTESIAN_POINT('',(4.327025124027,0.678923853209));
#291 = CARTESIAN_POINT('',(4.360870510346,0.694142857232));
#292 = CARTESIAN_POINT('',(4.431719212005,0.721228137529));
#293 = CARTESIAN_POINT('',(4.468722594288,0.733094407825));
#294 = CARTESIAN_POINT('',(4.507169614328,0.743171242127));
#295 = CARTESIAN_POINT('',(4.546869016343,0.751354158078));
#296 = CARTESIAN_POINT('',(4.587564598477,0.757554589174));
#297 = CARTESIAN_POINT('',(4.628944904245,0.761709183784));
#298 = CARTESIAN_POINT('',(4.717677120612,0.766127102778));
#299 = CARTESIAN_POINT('',(4.80640944178,0.761149224478));
#300 = CARTESIAN_POINT('',(4.85293045982,0.755874717666));
#301 = CARTESIAN_POINT('',(4.89847299147,0.748013673006));
#302 = CARTESIAN_POINT('',(4.942600352446,0.737668263296));
#303 = CARTESIAN_POINT('',(4.984982221529,0.72497844501));
#304 = CARTESIAN_POINT('',(5.02538905106,0.710103886616));
#305 = CARTESIAN_POINT('',(5.099573999863,0.677376830465));
#306 = CARTESIAN_POINT('',(5.133608593914,0.659768558924));
#307 = CARTESIAN_POINT('',(5.16566396665,0.64052598578));
#308 = CARTESIAN_POINT('',(5.195689675584,0.619793784771));
#309 = CARTESIAN_POINT('',(5.223689415211,0.597713759601));
#310 = CARTESIAN_POINT('',(5.249702619991,0.574419847926));
#311 = CARTESIAN_POINT('',(5.273787787822,0.550036187233));
#312 = CARTESIAN_POINT('',(5.33768914991,0.477128680191));
#313 = CARTESIAN_POINT('',(5.372829715649,0.42615088393));
#314 = CARTESIAN_POINT('',(5.40189252478,0.37249697259));
#315 = CARTESIAN_POINT('',(5.425462599385,0.316796682938));
#316 = CARTESIAN_POINT('',(5.444019270755,0.259553822862));
#317 = CARTESIAN_POINT('',(5.45792377717,0.201198656649));
#318 = CARTESIAN_POINT('',(5.467411482076,0.142111601814));
#319 = CARTESIAN_POINT('',(5.477124541971,3.062926310891E-02));
#320 = CARTESIAN_POINT('',(5.478359395804,-2.167926059847E-02));
#321 = CARTESIAN_POINT('',(5.476369956957,-7.402904803425E-02));
#322 = CARTESIAN_POINT('',(5.471154655929,-0.126189129836));
#323 = CARTESIAN_POINT('',(5.46264002174,-0.177925656692));
#324 = CARTESIAN_POINT('',(5.450676684952,-0.228987838942));
#325 = CARTESIAN_POINT('',(5.435039845101,-0.279092756341));
#326 = CARTESIAN_POINT('',(5.398301285606,-0.370621130748));
#327 = CARTESIAN_POINT('',(5.378127108597,-0.412346858869));
#328 = CARTESIAN_POINT('',(5.354733320396,-0.4528625722));
#329 = CARTESIAN_POINT('',(5.327897677521,-0.491916076412));
#330 = CARTESIAN_POINT('',(5.297373608194,-0.52921951358));
#331 = CARTESIAN_POINT('',(5.262916583471,-0.564438056716));
#332 = CARTESIAN_POINT('',(5.224344580168,-0.597188632602));
#333 = CARTESIAN_POINT('',(5.144288822658,-0.653205013848));
#334 = CARTESIAN_POINT('',(5.103771691237,-0.67714471156));
#335 = CARTESIAN_POINT('',(5.060089514745,-0.698610438682));
#336 = CARTESIAN_POINT('',(5.013336400498,-0.71731582551));
#337 = CARTESIAN_POINT('',(4.963749403876,-0.732973965669));
#338 = CARTESIAN_POINT('',(4.911785841324,-0.745323215209));
#339 = CARTESIAN_POINT('',(4.858103970924,-0.754175369923));
#340 = CARTESIAN_POINT('',(4.798708376757,-0.759888406157));
#341 = CARTESIAN_POINT('',(4.793956636437,-0.760317658074));
#342 = CARTESIAN_POINT('',(4.789198081797,-0.760719748419));
#343 = CARTESIAN_POINT('',(4.784433208551,-0.761094618007));
#344 = CARTESIAN_POINT('',(4.779662517165,-0.761442212847));
#345 = CARTESIAN_POINT('',(4.774886512356,-0.761762484232));
#346 = CARTESIAN_POINT('',(4.77010570257,-0.762055388802));
#347 = CARTESIAN_POINT('',(4.765320599428,-0.762320888601));
#348 = ( GEOMETRIC_REPRESENTATION_CONTEXT(2) 
PARAMETRIC_REPRESENTATION_CONTEXT() REPRESENTATION_CONTEXT('2D SPACE',''
  ) );
#349 = PCURVE('',#350,#355);
#350 = PLANE('',#351);
#351 = AXIS2_PLACEMENT_3D('',#352,#353,#354);
#352 = CARTESIAN_POINT('',(-66.5,-13.,-14.));
#353 = DIRECTION('',(-0.,1.,0.));
#354 = DIRECTION('',(0.,0.,1.));
#355 = DEFINITIONAL_REPRESENTATION('',(#356),#360);
#356 = CIRCLE('',#357,12.449899597989);
#357 = AXIS2_PLACEMENT_2D('',#358,#359);
#358 = CARTESIAN_POINT('',(14.,19.));
#359 = DIRECTION('',(-0.99846856077,-5.532208559085E-02));
#360 = ( GEOMETRIC_REPRESENTATION_CONTEXT(2) 
PARAMETRIC_REPRESENTATION_CONTEXT() REPRESENTATION_CONTEXT('2D SPACE',''
  ) );
#361 = ORIENTED_EDGE('',*,*,#362,.T.);
#362 = EDGE_CURVE('',#238,#236,#363,.T.);
#363 = SURFACE_CURVE('',#364,(#391,#421),.PCURVE_S1.);
#364 = B_SPLINE_CURVE_WITH_KNOTS('',5,(#365,#366,#367,#368,#369,#370,
    #371,#372,#373,#374,#375,#376,#377,#378,#379,#380,#381,#382,#383,
    #384,#385,#386,#387,#388,#389,#390),.UNSPECIFIED.,.F.,.F.,(6,4,4,4,4
    ,4,6),(0.,0.186450634428,0.288336639801,0.499864047709,
    0.711377485128,0.814575051551,1.),.UNSPECIFIED.);
#365 = CARTESIAN_POINT('',(-45.959958298,-13.2,-12.14035714285));
#366 = CARTESIAN_POINT('',(-46.06223311948,-13.16622669587,
    -12.1900521475));
#367 = CARTESIAN_POINT('',(-46.16740697336,-13.13456051762,
    -12.23637514545));
#368 = CARTESIAN_POINT('',(-46.27541406924,-13.10526062315,
    -12.27901220251));
#369 = CARTESIAN_POINT('',(-46.38610579627,-13.07862422162,
    -12.31760331461));
#370 = CARTESIAN_POINT('',(-46.56101527395,-13.04199236845,
    -12.37049229017));
#371 = CARTESIAN_POINT('',(-46.62354062832,-13.02992858466,
    -12.38787000775));
#372 = CARTESIAN_POINT('',(-46.68674025352,-13.01879256129,
    -12.40387933541));
#373 = CARTESIAN_POINT('',(-46.75055689163,-13.00862819483,
    -12.41846714159));
#374 = CARTESIAN_POINT('',(-46.94854998239,-12.98047460841,
    -12.45881780486));
#375 = CARTESIAN_POINT('',(-47.08456315104,-12.96583155123,
    -12.47971861366));
#376 = CARTESIAN_POINT('',(-47.22228322119,-12.95591148447,
    -12.4938439385));
#377 = CARTESIAN_POINT('',(-47.36092748284,-12.95094592281,
    -12.50091500565));
#378 = CARTESIAN_POINT('',(-47.63817228057,-12.95092045523,
    -12.50095127115));
#379 = CARTESIAN_POINT('',(-47.77681079934,-12.95585989119,
    -12.49391740642));
#380 = CARTESIAN_POINT('',(-47.91452867464,-12.96575375338,
    -12.47982951769));
#381 = CARTESIAN_POINT('',(-48.05054296917,-12.9803711128,-12.4589656728
    ));
#382 = CARTESIAN_POINT('',(-48.24937478156,-13.00860617414,
    -12.41849892713));
#383 = CARTESIAN_POINT('',(-48.31401259635,-13.01890342449,
    -12.40372045616));
#384 = CARTESIAN_POINT('',(-48.37801703042,-13.03019733596,
    -12.38748383892));
#385 = CARTESIAN_POINT('',(-48.4413286756,-13.04244227441,
    -12.36984431031));
#386 = CARTESIAN_POINT('',(-48.61632940313,-13.0792108147,-12.316753417)
  );
#387 = CARTESIAN_POINT('',(-48.72636813056,-13.10574438471,
    -12.27830821526));
#388 = CARTESIAN_POINT('',(-48.83375006394,-13.13490897044,
    -12.23586539978));
#389 = CARTESIAN_POINT('',(-48.93832948871,-13.16641248096,-12.189778778
    ));
#390 = CARTESIAN_POINT('',(-49.04004170199,-13.2,-12.14035714285));
#391 = PCURVE('',#33,#392);
#392 = DEFINITIONAL_REPRESENTATION('',(#393),#420);
#393 = B_SPLINE_CURVE_WITH_KNOTS('',5,(#394,#395,#396,#397,#398,#399,
    #400,#401,#402,#403,#404,#405,#406,#407,#408,#409,#410,#411,#412,
    #413,#414,#415,#416,#417,#418,#419),.UNSPECIFIED.,.F.,.F.,(6,4,4,4,4
    ,4,6),(0.,0.186450634428,0.288336639801,0.499864047709,
    0.711377485128,0.814575051551,1.),.UNSPECIFIED.);
#394 = CARTESIAN_POINT('',(4.828533724082,-0.740238863689));
#395 = CARTESIAN_POINT('',(4.821184181908,-0.743978272656));
#396 = CARTESIAN_POINT('',(4.813536831068,-0.747479911647));
#397 = CARTESIAN_POINT('',(4.805595719604,-0.75071622835));
#398 = CARTESIAN_POINT('',(4.797374038438,-0.753655593251));
#399 = CARTESIAN_POINT('',(4.784268207049,-0.75769500391));
#400 = CARTESIAN_POINT('',(4.779561620915,-0.759024637554));
#401 = CARTESIAN_POINT('',(4.77478404447,-0.760251501577));
#402 = CARTESIAN_POINT('',(4.769941352145,-0.761370921499));
#403 = CARTESIAN_POINT('',(4.754866504247,-0.764470642313));
#404 = CARTESIAN_POINT('',(4.744440919813,-0.76608146721));
#405 = CARTESIAN_POINT('',(4.733832723501,-0.767172192173));
#406 = CARTESIAN_POINT('',(4.723127397032,-0.767718170618));
#407 = CARTESIAN_POINT('',(4.701720075067,-0.767720970842));
#408 = CARTESIAN_POINT('',(4.691015093457,-0.767177864979));
#409 = CARTESIAN_POINT('',(4.680406863927,-0.766090023204));
#410 = CARTESIAN_POINT('',(4.669980896071,-0.764482029753));
#411 = CARTESIAN_POINT('',(4.65484162815,-0.761373349592));
#412 = CARTESIAN_POINT('',(4.649936631702,-0.760239295717));
#413 = CARTESIAN_POINT('',(4.645098478667,-0.75899503212));
#414 = CARTESIAN_POINT('',(4.640333263226,-0.757645418316));
#415 = CARTESIAN_POINT('',(4.627223061566,-0.753590861301));
#416 = CARTESIAN_POINT('',(4.619051214292,-0.750662794193));
#417 = CARTESIAN_POINT('',(4.611157002526,-0.747441379648));
#418 = CARTESIAN_POINT('',(4.603553349432,-0.743957702372));
#419 = CARTESIAN_POINT('',(4.596244236687,-0.740238863689));
#420 = ( GEOMETRIC_REPRESENTATION_CONTEXT(2) 
PARAMETRIC_REPRESENTATION_CONTEXT() REPRESENTATION_CONTEXT('2D SPACE',''
  ) );
#421 = PCURVE('',#422,#427);
#422 = CONICAL_SURFACE('',#423,2.25,0.785398163397);
#423 = AXIS2_PLACEMENT_3D('',#424,#425,#426);
#424 = CARTESIAN_POINT('',(-47.5,-13.2,-10.5));
#425 = DIRECTION('',(-0.,-1.,-0.));
#426 = DIRECTION('',(0.,-0.,1.));
#427 = DEFINITIONAL_REPRESENTATION('',(#428),#455);
#428 = B_SPLINE_CURVE_WITH_KNOTS('',5,(#429,#430,#431,#432,#433,#434,
    #435,#436,#437,#438,#439,#440,#441,#442,#443,#444,#445,#446,#447,
    #448,#449,#450,#451,#452,#453,#454),.UNSPECIFIED.,.F.,.F.,(6,4,4,4,4
    ,4,6),(0.,0.186450634428,0.288336639801,0.499864047709,
    0.711377485128,0.814575051551,1.),.UNSPECIFIED.);
#429 = CARTESIAN_POINT('',(-2.387725816355,-8.437694987151E-15));
#430 = CARTESIAN_POINT('',(-2.435982530128,-3.377330413006E-02));
#431 = CARTESIAN_POINT('',(-2.485963713878,-6.543948237145E-02));
#432 = CARTESIAN_POINT('',(-2.53768993711,-9.473937684155E-02));
#433 = CARTESIAN_POINT('',(-2.591122233268,-0.121375778373));
#434 = CARTESIAN_POINT('',(-2.676170613401,-0.158007631549));
#435 = CARTESIAN_POINT('',(-2.706689742434,-0.170071415339));
#436 = CARTESIAN_POINT('',(-2.737651876032,-0.181207438703));
#437 = CARTESIAN_POINT('',(-2.769023654366,-0.191371805162));
#438 = CARTESIAN_POINT('',(-2.866654477544,-0.219525391589));
#439 = CARTESIAN_POINT('',(-2.93413774101,-0.234168448762));
#440 = CARTESIAN_POINT('',(-3.002799014088,-0.244088515528));
#441 = CARTESIAN_POINT('',(-3.0720888248,-0.249054077187));
#442 = CARTESIAN_POINT('',(-3.210646574009,-0.249079544762));
#443 = CARTESIAN_POINT('',(-3.279934148715,-0.244140108807));
#444 = CARTESIAN_POINT('',(-3.348595631313,-0.234246246615));
#445 = CARTESIAN_POINT('',(-3.416081310597,-0.2196288872));
#446 = CARTESIAN_POINT('',(-3.514129047939,-0.191393825855));
#447 = CARTESIAN_POINT('',(-3.545904426617,-0.181096575506));
#448 = CARTESIAN_POINT('',(-3.577259295297,-0.169802664033));
#449 = CARTESIAN_POINT('',(-3.608159062531,-0.157557725588));
#450 = CARTESIAN_POINT('',(-3.693238500371,-0.120789185299));
#451 = CARTESIAN_POINT('',(-3.746348858403,-9.425561528609E-02));
#452 = CARTESIAN_POINT('',(-3.797771434414,-6.509102955111E-02));
#453 = CARTESIAN_POINT('',(-3.847468234593,-3.358751903287E-02));
#454 = CARTESIAN_POINT('',(-3.895459490825,0.));
#455 = ( GEOMETRIC_REPRESENTATION_CONTEXT(2) 
PARAMETRIC_REPRESENTATION_CONTEXT() REPRESENTATION_CONTEXT('2D SPACE',''
  ) );
#456 = FACE_BOUND('',#457,.T.);
#457 = EDGE_LOOP('',(#458));
#458 = ORIENTED_EDGE('',*,*,#459,.F.);
#459 = EDGE_CURVE('',#460,#460,#462,.T.);
#460 = VERTEX_POINT('',#461);
#461 = CARTESIAN_POINT('',(-47.5,16.,8.246211251235));
#462 = SURFACE_CURVE('',#463,(#468,#544),.PCURVE_S1.);
#463 = CIRCLE('',#464,8.246211251235);
#464 = AXIS2_PLACEMENT_3D('',#465,#466,#467);
#465 = CARTESIAN_POINT('',(-47.5,16.,0.));
#466 = DIRECTION('',(-0.,1.,0.));
#467 = DIRECTION('',(0.,0.,1.));
#468 = PCURVE('',#33,#469);
#469 = DEFINITIONAL_REPRESENTATION('',(#470),#543);
#470 = B_SPLINE_CURVE_WITH_KNOTS('',8,(#471,#472,#473,#474,#475,#476,
    #477,#478,#479,#480,#481,#482,#483,#484,#485,#486,#487,#488,#489,
    #490,#491,#492,#493,#494,#495,#496,#497,#498,#499,#500,#501,#502,
    #503,#504,#505,#506,#507,#508,#509,#510,#511,#512,#513,#514,#515,
    #516,#517,#518,#519,#520,#521,#522,#523,#524,#525,#526,#527,#528,
    #529,#530,#531,#532,#533,#534,#535,#536,#537,#538,#539,#540,#541,
    #542),.UNSPECIFIED.,.F.,.F.,(9,7,7,7,7,7,7,7,7,7,9),(0.,
    0.785398163397,1.47262155637,2.073942025221,2.600097435466,
    3.06048341943,3.866158891368,4.470415495321,5.37680040125,
    5.829992854215,6.28318530718),.UNSPECIFIED.);
#471 = CARTESIAN_POINT('',(1.570796326795,0.47588224966));
#472 = CARTESIAN_POINT('',(1.520198208266,0.47588224966));
#473 = CARTESIAN_POINT('',(1.469600169382,0.470205112266));
#474 = CARTESIAN_POINT('',(1.420139451839,0.458851226636));
#475 = CARTESIAN_POINT('',(1.372956547301,0.442028598482));
#476 = CARTESIAN_POINT('',(1.329000422062,0.420161970026));
#477 = CARTESIAN_POINT('',(1.28886224147,0.393794659739));
#478 = CARTESIAN_POINT('',(1.252904165106,0.36350853059));
#479 = CARTESIAN_POINT('',(1.193684955075,0.300479355096));
#480 = CARTESIAN_POINT('',(1.169398573848,0.268516618361));
#481 = CARTESIAN_POINT('',(1.148592661499,0.234399427579));
#482 = CARTESIAN_POINT('',(1.131301464117,0.198526083871));
#483 = CARTESIAN_POINT('',(1.117509301683,0.161279914277));
#484 = CARTESIAN_POINT('',(1.107186808265,0.123027138853));
#485 = CARTESIAN_POINT('',(1.100312641306,8.41231317562E-02));
#486 = CARTESIAN_POINT('',(1.093870692727,1.061537630906E-02));
#487 = CARTESIAN_POINT('',(1.093497052444,-2.391802384888E-02));
#488 = CARTESIAN_POINT('',(1.095749559082,-5.844598467991E-02));
#489 = CARTESIAN_POINT('',(1.100629058071,-9.273566053824E-02));
#490 = CARTESIAN_POINT('',(1.108146481137,-0.126553110131));
#491 = CARTESIAN_POINT('',(1.118320060536,-0.159658885657));
#492 = CARTESIAN_POINT('',(1.131166077471,-0.191805120924));
#493 = CARTESIAN_POINT('',(1.16025890101,-0.249801565433));
#494 = CARTESIAN_POINT('',(1.175879877208,-0.275936499275));
#495 = CARTESIAN_POINT('',(1.193543741851,-0.30097033776));
#496 = CARTESIAN_POINT('',(1.213237852588,-0.324727873591));
#497 = CARTESIAN_POINT('',(1.234930950814,-0.347030037611));
#498 = CARTESIAN_POINT('',(1.258560341133,-0.367696849629));
#499 = CARTESIAN_POINT('',(1.284019557351,-0.386553334494));
#500 = CARTESIAN_POINT('',(1.334893658632,-0.418213472592));
#501 = CARTESIAN_POINT('',(1.359916296832,-0.431479040386));
#502 = CARTESIAN_POINT('',(1.386115713164,-0.443127982824));
#503 = CARTESIAN_POINT('',(1.413358534116,-0.453060387468));
#504 = CARTESIAN_POINT('',(1.441479364785,-0.461189703104));
#505 = CARTESIAN_POINT('',(1.470283116676,-0.467447571245));
#506 = CARTESIAN_POINT('',(1.499552923969,-0.471787677529));
#507 = CARTESIAN_POINT('',(1.580707415785,-0.478390277574));
#508 = CARTESIAN_POINT('',(1.633088879345,-0.476653026971));
#509 = CARTESIAN_POINT('',(1.68500088704,-0.468861401521));
#510 = CARTESIAN_POINT('',(1.735153010421,-0.455123978159));
#511 = CARTESIAN_POINT('',(1.782369302098,-0.435811298164));
#512 = CARTESIAN_POINT('',(1.825873126257,-0.411468297267));
#513 = CARTESIAN_POINT('',(1.865168685454,-0.382703276634));
#514 = CARTESIAN_POINT('',(1.92607563439,-0.325730795704));
#515 = CARTESIAN_POINT('',(1.949652074452,-0.299181730373));
#516 = CARTESIAN_POINT('',(1.970581906666,-0.270766495208));
#517 = CARTESIAN_POINT('',(1.988811629975,-0.240757807267));
#518 = CARTESIAN_POINT('',(2.004330731603,-0.209422784467));
#519 = CARTESIAN_POINT('',(2.017149464291,-0.177019044978));
#520 = CARTESIAN_POINT('',(2.027282452933,-0.143795802496));
#521 = CARTESIAN_POINT('',(2.04593282639,-5.929793538145E-02));
#522 = CARTESIAN_POINT('',(2.051109092755,-7.303474933903E-03));
#523 = CARTESIAN_POINT('',(2.050314599129,4.516489190844E-02));
#524 = CARTESIAN_POINT('',(2.043579916734,9.731273014459E-02));
#525 = CARTESIAN_POINT('',(2.030868358471,0.148354412147));
#526 = CARTESIAN_POINT('',(2.012086159084,0.197469267362));
#527 = CARTESIAN_POINT('',(1.987168676263,0.243776753509));
#528 = CARTESIAN_POINT('',(1.940796394357,0.307674017772));
#529 = CARTESIAN_POINT('',(1.923839611752,0.32804579474));
#530 = CARTESIAN_POINT('',(1.905400625878,0.347377550099));
#531 = CARTESIAN_POINT('',(1.885509155496,0.365555389099));
#532 = CARTESIAN_POINT('',(1.864212279104,0.382465395412));
#533 = CARTESIAN_POINT('',(1.841580575533,0.397996313883));
#534 = CARTESIAN_POINT('',(1.817712709558,0.4120434006));
#535 = CARTESIAN_POINT('',(1.767758410248,0.436982774369));
#536 = CARTESIAN_POINT('',(1.741671961975,0.447875057348));
#537 = CARTESIAN_POINT('',(1.714603167864,0.4570963599));
#538 = CARTESIAN_POINT('',(1.686706807263,0.464564179328));
#539 = CARTESIAN_POINT('',(1.658166519651,0.470211606856));
#540 = CARTESIAN_POINT('',(1.629188825386,0.473992029813));
#541 = CARTESIAN_POINT('',(1.5999925823,0.47588224966));
#542 = CARTESIAN_POINT('',(1.570796326795,0.47588224966));
#543 = ( GEOMETRIC_REPRESENTATION_CONTEXT(2) 
PARAMETRIC_REPRESENTATION_CONTEXT() REPRESENTATION_CONTEXT('2D SPACE',''
  ) );
#544 = PCURVE('',#545,#550);
#545 = PLANE('',#546);
#546 = AXIS2_PLACEMENT_3D('',#547,#548,#549);
#547 = CARTESIAN_POINT('',(-66.5,16.,-14.));
#548 = DIRECTION('',(-0.,1.,0.));
#549 = DIRECTION('',(0.,0.,1.));
#550 = DEFINITIONAL_REPRESENTATION('',(#551),#555);
#551 = CIRCLE('',#552,8.246211251235);
#552 = AXIS2_PLACEMENT_2D('',#553,#554);
#553 = CARTESIAN_POINT('',(14.,19.));
#554 = DIRECTION('',(1.,0.));
#555 = ( GEOMETRIC_REPRESENTATION_CONTEXT(2) 
PARAMETRIC_REPRESENTATION_CONTEXT() REPRESENTATION_CONTEXT('2D SPACE',''
  ) );
#556 = ADVANCED_FACE('',(#557,#560),#545,.T.);
#557 = FACE_BOUND('',#558,.T.);
#558 = EDGE_LOOP('',(#559));
#559 = ORIENTED_EDGE('',*,*,#459,.T.);
#560 = FACE_BOUND('',#561,.T.);
#561 = EDGE_LOOP('',(#562));
#562 = ORIENTED_EDGE('',*,*,#563,.T.);
#563 = EDGE_CURVE('',#564,#564,#566,.T.);
#564 = VERTEX_POINT('',#565);
#565 = CARTESIAN_POINT('',(-47.5,16.,-2.15));
#566 = SURFACE_CURVE('',#567,(#572,#583),.PCURVE_S1.);
#567 = CIRCLE('',#568,2.15);
#568 = AXIS2_PLACEMENT_3D('',#569,#570,#571);
#569 = CARTESIAN_POINT('',(-47.5,16.,0.));
#570 = DIRECTION('',(0.,-1.,0.));
#571 = DIRECTION('',(0.,-0.,-1.));
#572 = PCURVE('',#545,#573);
#573 = DEFINITIONAL_REPRESENTATION('',(#574),#582);
#574 = ( BOUNDED_CURVE() B_SPLINE_CURVE(2,(#575,#576,#577,#578,#579,#580
,#581),.UNSPECIFIED.,.T.,.F.) B_SPLINE_CURVE_WITH_KNOTS((1,2,2,2,2,1),(
    -2.094395102393,0.,2.094395102393,4.188790204786,6.28318530718,
8.377580409573),.UNSPECIFIED.) CURVE() GEOMETRIC_REPRESENTATION_ITEM() 
RATIONAL_B_SPLINE_CURVE((1.,0.5,1.,0.5,1.,0.5,1.)) REPRESENTATION_ITEM(
  '') );
#575 = CARTESIAN_POINT('',(11.85,19.));
#576 = CARTESIAN_POINT('',(11.85,22.723909236273));
#577 = CARTESIAN_POINT('',(15.075,20.861954618137));
#578 = CARTESIAN_POINT('',(18.3,19.));
#579 = CARTESIAN_POINT('',(15.075,17.138045381863));
#580 = CARTESIAN_POINT('',(11.85,15.276090763727));
#581 = CARTESIAN_POINT('',(11.85,19.));
#582 = ( GEOMETRIC_REPRESENTATION_CONTEXT(2) 
PARAMETRIC_REPRESENTATION_CONTEXT() REPRESENTATION_CONTEXT('2D SPACE',''
  ) );
#583 = PCURVE('',#584,#589);
#584 = CYLINDRICAL_SURFACE('',#585,2.15);
#585 = AXIS2_PLACEMENT_3D('',#586,#587,#588);
#586 = CARTESIAN_POINT('',(-47.5,16.2,0.));
#587 = DIRECTION('',(0.,-1.,0.));
#588 = DIRECTION('',(0.,-0.,-1.));
#589 = DEFINITIONAL_REPRESENTATION('',(#590),#594);
#590 = LINE('',#591,#592);
#591 = CARTESIAN_POINT('',(0.,0.2));
#592 = VECTOR('',#593,1.);
#593 = DIRECTION('',(1.,0.));
#594 = ( GEOMETRIC_REPRESENTATION_CONTEXT(2) 
PARAMETRIC_REPRESENTATION_CONTEXT() REPRESENTATION_CONTEXT('2D SPACE',''
  ) );
#595 = ADVANCED_FACE('',(#596),#584,.F.);
#596 = FACE_BOUND('',#597,.F.);
#597 = EDGE_LOOP('',(#598,#621,#648,#649));
#598 = ORIENTED_EDGE('',*,*,#599,.T.);
#599 = EDGE_CURVE('',#564,#600,#602,.T.);
#600 = VERTEX_POINT('',#601);
#601 = CARTESIAN_POINT('',(-47.5,8.,-2.15));
#602 = SEAM_CURVE('',#603,(#607,#614),.PCURVE_S1.);
#603 = LINE('',#604,#605);
#604 = CARTESIAN_POINT('',(-47.5,16.2,-2.15));
#605 = VECTOR('',#606,1.);
#606 = DIRECTION('',(0.,-1.,0.));
#607 = PCURVE('',#584,#608);
#608 = DEFINITIONAL_REPRESENTATION('',(#609),#613);
#609 = LINE('',#610,#611);
#610 = CARTESIAN_POINT('',(6.28318530718,-0.));
#611 = VECTOR('',#612,1.);
#612 = DIRECTION('',(0.,1.));
#613 = ( GEOMETRIC_REPRESENTATION_CONTEXT(2) 
PARAMETRIC_REPRESENTATION_CONTEXT() REPRESENTATION_CONTEXT('2D SPACE',''
  ) );
#614 = PCURVE('',#584,#615);
#615 = DEFINITIONAL_REPRESENTATION('',(#616),#620);
#616 = LINE('',#617,#618);
#617 = CARTESIAN_POINT('',(0.,-0.));
#618 = VECTOR('',#619,1.);
#619 = DIRECTION('',(0.,1.));
#620 = ( GEOMETRIC_REPRESENTATION_CONTEXT(2) 
PARAMETRIC_REPRESENTATION_CONTEXT() REPRESENTATION_CONTEXT('2D SPACE',''
  ) );
#621 = ORIENTED_EDGE('',*,*,#622,.F.);
#622 = EDGE_CURVE('',#600,#600,#623,.T.);
#623 = SURFACE_CURVE('',#624,(#629,#636),.PCURVE_S1.);
#624 = CIRCLE('',#625,2.15);
#625 = AXIS2_PLACEMENT_3D('',#626,#627,#628);
#626 = CARTESIAN_POINT('',(-47.5,8.,0.));
#627 = DIRECTION('',(0.,-1.,0.));
#628 = DIRECTION('',(0.,-0.,-1.));
#629 = PCURVE('',#584,#630);
#630 = DEFINITIONAL_REPRESENTATION('',(#631),#635);
#631 = LINE('',#632,#633);
#632 = CARTESIAN_POINT('',(0.,8.2));
#633 = VECTOR('',#634,1.);
#634 = DIRECTION('',(1.,0.));
#635 = ( GEOMETRIC_REPRESENTATION_CONTEXT(2) 
PARAMETRIC_REPRESENTATION_CONTEXT() REPRESENTATION_CONTEXT('2D SPACE',''
  ) );
#636 = PCURVE('',#637,#642);
#637 = PLANE('',#638);
#638 = AXIS2_PLACEMENT_3D('',#639,#640,#641);
#639 = CARTESIAN_POINT('',(-47.5,8.,0.));
#640 = DIRECTION('',(0.,-1.,0.));
#641 = DIRECTION('',(0.,-0.,-1.));
#642 = DEFINITIONAL_REPRESENTATION('',(#643),#647);
#643 = CIRCLE('',#644,2.15);
#644 = AXIS2_PLACEMENT_2D('',#645,#646);
#645 = CARTESIAN_POINT('',(0.,0.));
#646 = DIRECTION('',(1.,0.));
#647 = ( GEOMETRIC_REPRESENTATION_CONTEXT(2) 
PARAMETRIC_REPRESENTATION_CONTEXT() REPRESENTATION_CONTEXT('2D SPACE',''
  ) );
#648 = ORIENTED_EDGE('',*,*,#599,.F.);
#649 = ORIENTED_EDGE('',*,*,#563,.T.);
#650 = ADVANCED_FACE('',(#651),#637,.F.);
#651 = FACE_BOUND('',#652,.F.);
#652 = EDGE_LOOP('',(#653));
#653 = ORIENTED_EDGE('',*,*,#622,.T.);
#654 = ADVANCED_FACE('',(#655),#422,.F.);
#655 = FACE_BOUND('',#656,.F.);
#656 = EDGE_LOOP('',(#657,#682,#709,#710,#732,#733));
#657 = ORIENTED_EDGE('',*,*,#658,.T.);
#658 = EDGE_CURVE('',#659,#661,#663,.T.);
#659 = VERTEX_POINT('',#660);
#660 = CARTESIAN_POINT('',(-47.5,-13.,-8.45));
#661 = VERTEX_POINT('',#662);
#662 = CARTESIAN_POINT('',(-47.5,-12.6,-8.85));
#663 = SEAM_CURVE('',#664,(#668,#675),.PCURVE_S1.);
#664 = LINE('',#665,#666);
#665 = CARTESIAN_POINT('',(-47.5,-13.2,-8.25));
#666 = VECTOR('',#667,1.);
#667 = DIRECTION('',(1.731912112471E-16,0.707106781187,-0.707106781187)
  );
#668 = PCURVE('',#422,#669);
#669 = DEFINITIONAL_REPRESENTATION('',(#670),#674);
#670 = LINE('',#671,#672);
#671 = CARTESIAN_POINT('',(-6.28318530718,0.));
#672 = VECTOR('',#673,1.);
#673 = DIRECTION('',(-0.,-1.));
#674 = ( GEOMETRIC_REPRESENTATION_CONTEXT(2) 
PARAMETRIC_REPRESENTATION_CONTEXT() REPRESENTATION_CONTEXT('2D SPACE',''
  ) );
#675 = PCURVE('',#422,#676);
#676 = DEFINITIONAL_REPRESENTATION('',(#677),#681);
#677 = LINE('',#678,#679);
#678 = CARTESIAN_POINT('',(0.,-0.));
#679 = VECTOR('',#680,1.);
#680 = DIRECTION('',(-0.,-1.));
#681 = ( GEOMETRIC_REPRESENTATION_CONTEXT(2) 
PARAMETRIC_REPRESENTATION_CONTEXT() REPRESENTATION_CONTEXT('2D SPACE',''
  ) );
#682 = ORIENTED_EDGE('',*,*,#683,.F.);
#683 = EDGE_CURVE('',#661,#661,#684,.T.);
#684 = SURFACE_CURVE('',#685,(#690,#697),.PCURVE_S1.);
#685 = CIRCLE('',#686,1.65);
#686 = AXIS2_PLACEMENT_3D('',#687,#688,#689);
#687 = CARTESIAN_POINT('',(-47.5,-12.6,-10.5));
#688 = DIRECTION('',(0.,1.,0.));
#689 = DIRECTION('',(0.,-0.,1.));
#690 = PCURVE('',#422,#691);
#691 = DEFINITIONAL_REPRESENTATION('',(#692),#696);
#692 = LINE('',#693,#694);
#693 = CARTESIAN_POINT('',(-0.,-0.6));
#694 = VECTOR('',#695,1.);
#695 = DIRECTION('',(-1.,-0.));
#696 = ( GEOMETRIC_REPRESENTATION_CONTEXT(2) 
PARAMETRIC_REPRESENTATION_CONTEXT() REPRESENTATION_CONTEXT('2D SPACE',''
  ) );
#697 = PCURVE('',#698,#703);
#698 = CYLINDRICAL_SURFACE('',#699,1.65);
#699 = AXIS2_PLACEMENT_3D('',#700,#701,#702);
#700 = CARTESIAN_POINT('',(-47.5,-13.2,-10.5));
#701 = DIRECTION('',(0.,1.,0.));
#702 = DIRECTION('',(0.,-0.,1.));
#703 = DEFINITIONAL_REPRESENTATION('',(#704),#708);
#704 = LINE('',#705,#706);
#705 = CARTESIAN_POINT('',(0.,0.6));
#706 = VECTOR('',#707,1.);
#707 = DIRECTION('',(1.,0.));
#708 = ( GEOMETRIC_REPRESENTATION_CONTEXT(2) 
PARAMETRIC_REPRESENTATION_CONTEXT() REPRESENTATION_CONTEXT('2D SPACE',''
  ) );
#709 = ORIENTED_EDGE('',*,*,#658,.F.);
#710 = ORIENTED_EDGE('',*,*,#711,.T.);
#711 = EDGE_CURVE('',#659,#238,#712,.T.);
#712 = SURFACE_CURVE('',#713,(#718,#725),.PCURVE_S1.);
#713 = CIRCLE('',#714,2.05);
#714 = AXIS2_PLACEMENT_3D('',#715,#716,#717);
#715 = CARTESIAN_POINT('',(-47.5,-13.,-10.5));
#716 = DIRECTION('',(0.,1.,0.));
#717 = DIRECTION('',(0.,-0.,1.));
#718 = PCURVE('',#422,#719);
#719 = DEFINITIONAL_REPRESENTATION('',(#720),#724);
#720 = LINE('',#721,#722);
#721 = CARTESIAN_POINT('',(-0.,-0.2));
#722 = VECTOR('',#723,1.);
#723 = DIRECTION('',(-1.,-0.));
#724 = ( GEOMETRIC_REPRESENTATION_CONTEXT(2) 
PARAMETRIC_REPRESENTATION_CONTEXT() REPRESENTATION_CONTEXT('2D SPACE',''
  ) );
#725 = PCURVE('',#350,#726);
#726 = DEFINITIONAL_REPRESENTATION('',(#727),#731);
#727 = CIRCLE('',#728,2.05);
#728 = AXIS2_PLACEMENT_2D('',#729,#730);
#729 = CARTESIAN_POINT('',(3.5,19.));
#730 = DIRECTION('',(1.,0.));
#731 = ( GEOMETRIC_REPRESENTATION_CONTEXT(2) 
PARAMETRIC_REPRESENTATION_CONTEXT() REPRESENTATION_CONTEXT('2D SPACE',''
  ) );
#732 = ORIENTED_EDGE('',*,*,#362,.T.);
#733 = ORIENTED_EDGE('',*,*,#734,.T.);
#734 = EDGE_CURVE('',#236,#659,#735,.T.);
#735 = SURFACE_CURVE('',#736,(#741,#748),.PCURVE_S1.);
#736 = CIRCLE('',#737,2.05);
#737 = AXIS2_PLACEMENT_3D('',#738,#739,#740);
#738 = CARTESIAN_POINT('',(-47.5,-13.,-10.5));
#739 = DIRECTION('',(0.,1.,0.));
#740 = DIRECTION('',(0.,-0.,1.));
#741 = PCURVE('',#422,#742);
#742 = DEFINITIONAL_REPRESENTATION('',(#743),#747);
#743 = LINE('',#744,#745);
#744 = CARTESIAN_POINT('',(-0.,-0.2));
#745 = VECTOR('',#746,1.);
#746 = DIRECTION('',(-1.,-0.));
#747 = ( GEOMETRIC_REPRESENTATION_CONTEXT(2) 
PARAMETRIC_REPRESENTATION_CONTEXT() REPRESENTATION_CONTEXT('2D SPACE',''
  ) );
#748 = PCURVE('',#350,#749);
#749 = DEFINITIONAL_REPRESENTATION('',(#750),#754);
#750 = CIRCLE('',#751,2.05);
#751 = AXIS2_PLACEMENT_2D('',#752,#753);
#752 = CARTESIAN_POINT('',(3.5,19.));
#753 = DIRECTION('',(1.,0.));
#754 = ( GEOMETRIC_REPRESENTATION_CONTEXT(2) 
PARAMETRIC_REPRESENTATION_CONTEXT() REPRESENTATION_CONTEXT('2D SPACE',''
  ) );
#755 = ADVANCED_FACE('',(#756),#698,.F.);
#756 = FACE_BOUND('',#757,.F.);
#757 = EDGE_LOOP('',(#758,#759,#782,#804));
#758 = ORIENTED_EDGE('',*,*,#683,.T.);
#759 = ORIENTED_EDGE('',*,*,#760,.T.);
#760 = EDGE_CURVE('',#661,#761,#763,.T.);
#761 = VERTEX_POINT('',#762);
#762 = CARTESIAN_POINT('',(-47.5,-11.4,-8.85));
#763 = SEAM_CURVE('',#764,(#768,#775),.PCURVE_S1.);
#764 = LINE('',#765,#766);
#765 = CARTESIAN_POINT('',(-47.5,-13.2,-8.85));
#766 = VECTOR('',#767,1.);
#767 = DIRECTION('',(0.,1.,0.));
#768 = PCURVE('',#698,#769);
#769 = DEFINITIONAL_REPRESENTATION('',(#770),#774);
#770 = LINE('',#771,#772);
#771 = CARTESIAN_POINT('',(0.,-0.));
#772 = VECTOR('',#773,1.);
#773 = DIRECTION('',(0.,1.));
#774 = ( GEOMETRIC_REPRESENTATION_CONTEXT(2) 
PARAMETRIC_REPRESENTATION_CONTEXT() REPRESENTATION_CONTEXT('2D SPACE',''
  ) );
#775 = PCURVE('',#698,#776);
#776 = DEFINITIONAL_REPRESENTATION('',(#777),#781);
#777 = LINE('',#778,#779);
#778 = CARTESIAN_POINT('',(6.28318530718,-0.));
#779 = VECTOR('',#780,1.);
#780 = DIRECTION('',(0.,1.));
#781 = ( GEOMETRIC_REPRESENTATION_CONTEXT(2) 
PARAMETRIC_REPRESENTATION_CONTEXT() REPRESENTATION_CONTEXT('2D SPACE',''
  ) );
#782 = ORIENTED_EDGE('',*,*,#783,.F.);
#783 = EDGE_CURVE('',#761,#761,#784,.T.);
#784 = SURFACE_CURVE('',#785,(#790,#797),.PCURVE_S1.);
#785 = CIRCLE('',#786,1.65);
#786 = AXIS2_PLACEMENT_3D('',#787,#788,#789);
#787 = CARTESIAN_POINT('',(-47.5,-11.4,-10.5));
#788 = DIRECTION('',(0.,1.,0.));
#789 = DIRECTION('',(0.,-0.,1.));
#790 = PCURVE('',#698,#791);
#791 = DEFINITIONAL_REPRESENTATION('',(#792),#796);
#792 = LINE('',#793,#794);
#793 = CARTESIAN_POINT('',(0.,1.8));
#794 = VECTOR('',#795,1.);
#795 = DIRECTION('',(1.,0.));
#796 = ( GEOMETRIC_REPRESENTATION_CONTEXT(2) 
PARAMETRIC_REPRESENTATION_CONTEXT() REPRESENTATION_CONTEXT('2D SPACE',''
  ) );
#797 = PCURVE('',#191,#798);
#798 = DEFINITIONAL_REPRESENTATION('',(#799),#803);
#799 = CIRCLE('',#800,1.65);
#800 = AXIS2_PLACEMENT_2D('',#801,#802);
#801 = CARTESIAN_POINT('',(0.,0.));
#802 = DIRECTION('',(-1.,0.));
#803 = ( GEOMETRIC_REPRESENTATION_CONTEXT(2) 
PARAMETRIC_REPRESENTATION_CONTEXT() REPRESENTATION_CONTEXT('2D SPACE',''
  ) );
#804 = ORIENTED_EDGE('',*,*,#760,.F.);
#805 = ADVANCED_FACE('',(#806,#811),#350,.F.);
#806 = FACE_BOUND('',#807,.F.);
#807 = EDGE_LOOP('',(#808,#809,#810));
#808 = ORIENTED_EDGE('',*,*,#235,.T.);
#809 = ORIENTED_EDGE('',*,*,#711,.F.);
#810 = ORIENTED_EDGE('',*,*,#734,.F.);
#811 = FACE_BOUND('',#812,.F.);
#812 = EDGE_LOOP('',(#813));
#813 = ORIENTED_EDGE('',*,*,#814,.F.);
#814 = EDGE_CURVE('',#815,#815,#817,.T.);
#815 = VERTEX_POINT('',#816);
#816 = CARTESIAN_POINT('',(-47.5,-13.,2.55));
#817 = SURFACE_CURVE('',#818,(#823,#830),.PCURVE_S1.);
#818 = CIRCLE('',#819,2.55);
#819 = AXIS2_PLACEMENT_3D('',#820,#821,#822);
#820 = CARTESIAN_POINT('',(-47.5,-13.,0.));
#821 = DIRECTION('',(0.,1.,0.));
#822 = DIRECTION('',(0.,-0.,1.));
#823 = PCURVE('',#350,#824);
#824 = DEFINITIONAL_REPRESENTATION('',(#825),#829);
#825 = CIRCLE('',#826,2.55);
#826 = AXIS2_PLACEMENT_2D('',#827,#828);
#827 = CARTESIAN_POINT('',(14.,19.));
#828 = DIRECTION('',(1.,0.));
#829 = ( GEOMETRIC_REPRESENTATION_CONTEXT(2) 
PARAMETRIC_REPRESENTATION_CONTEXT() REPRESENTATION_CONTEXT('2D SPACE',''
  ) );
#830 = PCURVE('',#831,#836);
#831 = CONICAL_SURFACE('',#832,2.75,0.785398163397);
#832 = AXIS2_PLACEMENT_3D('',#833,#834,#835);
#833 = CARTESIAN_POINT('',(-47.5,-13.2,0.));
#834 = DIRECTION('',(-0.,-1.,-0.));
#835 = DIRECTION('',(0.,-0.,1.));
#836 = DEFINITIONAL_REPRESENTATION('',(#837),#841);
#837 = LINE('',#838,#839);
#838 = CARTESIAN_POINT('',(-0.,-0.2));
#839 = VECTOR('',#840,1.);
#840 = DIRECTION('',(-1.,-0.));
#841 = ( GEOMETRIC_REPRESENTATION_CONTEXT(2) 
PARAMETRIC_REPRESENTATION_CONTEXT() REPRESENTATION_CONTEXT('2D SPACE',''
  ) );
#842 = ADVANCED_FACE('',(#843),#831,.F.);
#843 = FACE_BOUND('',#844,.F.);
#844 = EDGE_LOOP('',(#845,#868,#895,#896));
#845 = ORIENTED_EDGE('',*,*,#846,.T.);
#846 = EDGE_CURVE('',#815,#847,#849,.T.);
#847 = VERTEX_POINT('',#848);
#848 = CARTESIAN_POINT('',(-47.5,-12.6,2.15));
#849 = SEAM_CURVE('',#850,(#854,#861),.PCURVE_S1.);
#850 = LINE('',#851,#852);
#851 = CARTESIAN_POINT('',(-47.5,-13.2,2.75));
#852 = VECTOR('',#853,1.);
#853 = DIRECTION('',(1.731912112471E-16,0.707106781187,-0.707106781187)
  );
#854 = PCURVE('',#831,#855);
#855 = DEFINITIONAL_REPRESENTATION('',(#856),#860);
#856 = LINE('',#857,#858);
#857 = CARTESIAN_POINT('',(-6.28318530718,0.));
#858 = VECTOR('',#859,1.);
#859 = DIRECTION('',(-0.,-1.));
#860 = ( GEOMETRIC_REPRESENTATION_CONTEXT(2) 
PARAMETRIC_REPRESENTATION_CONTEXT() REPRESENTATION_CONTEXT('2D SPACE',''
  ) );
#861 = PCURVE('',#831,#862);
#862 = DEFINITIONAL_REPRESENTATION('',(#863),#867);
#863 = LINE('',#864,#865);
#864 = CARTESIAN_POINT('',(0.,-0.));
#865 = VECTOR('',#866,1.);
#866 = DIRECTION('',(-0.,-1.));
#867 = ( GEOMETRIC_REPRESENTATION_CONTEXT(2) 
PARAMETRIC_REPRESENTATION_CONTEXT() REPRESENTATION_CONTEXT('2D SPACE',''
  ) );
#868 = ORIENTED_EDGE('',*,*,#869,.F.);
#869 = EDGE_CURVE('',#847,#847,#870,.T.);
#870 = SURFACE_CURVE('',#871,(#876,#883),.PCURVE_S1.);
#871 = CIRCLE('',#872,2.15);
#872 = AXIS2_PLACEMENT_3D('',#873,#874,#875);
#873 = CARTESIAN_POINT('',(-47.5,-12.6,0.));
#874 = DIRECTION('',(0.,1.,0.));
#875 = DIRECTION('',(0.,-0.,1.));
#876 = PCURVE('',#831,#877);
#877 = DEFINITIONAL_REPRESENTATION('',(#878),#882);
#878 = LINE('',#879,#880);
#879 = CARTESIAN_POINT('',(-0.,-0.6));
#880 = VECTOR('',#881,1.);
#881 = DIRECTION('',(-1.,-0.));
#882 = ( GEOMETRIC_REPRESENTATION_CONTEXT(2) 
PARAMETRIC_REPRESENTATION_CONTEXT() REPRESENTATION_CONTEXT('2D SPACE',''
  ) );
#883 = PCURVE('',#884,#889);
#884 = CYLINDRICAL_SURFACE('',#885,2.15);
#885 = AXIS2_PLACEMENT_3D('',#886,#887,#888);
#886 = CARTESIAN_POINT('',(-47.5,-13.2,0.));
#887 = DIRECTION('',(0.,1.,0.));
#888 = DIRECTION('',(0.,-0.,1.));
#889 = DEFINITIONAL_REPRESENTATION('',(#890),#894);
#890 = LINE('',#891,#892);
#891 = CARTESIAN_POINT('',(0.,0.6));
#892 = VECTOR('',#893,1.);
#893 = DIRECTION('',(1.,0.));
#894 = ( GEOMETRIC_REPRESENTATION_CONTEXT(2) 
PARAMETRIC_REPRESENTATION_CONTEXT() REPRESENTATION_CONTEXT('2D SPACE',''
  ) );
#895 = ORIENTED_EDGE('',*,*,#846,.F.);
#896 = ORIENTED_EDGE('',*,*,#814,.T.);
#897 = ADVANCED_FACE('',(#898),#884,.F.);
#898 = FACE_BOUND('',#899,.F.);
#899 = EDGE_LOOP('',(#900,#923,#950,#951));
#900 = ORIENTED_EDGE('',*,*,#901,.T.);
#901 = EDGE_CURVE('',#847,#902,#904,.T.);
#902 = VERTEX_POINT('',#903);
#903 = CARTESIAN_POINT('',(-47.5,-6.,2.15));
#904 = SEAM_CURVE('',#905,(#909,#916),.PCURVE_S1.);
#905 = LINE('',#906,#907);
#906 = CARTESIAN_POINT('',(-47.5,-13.2,2.15));
#907 = VECTOR('',#908,1.);
#908 = DIRECTION('',(0.,1.,0.));
#909 = PCURVE('',#884,#910);
#910 = DEFINITIONAL_REPRESENTATION('',(#911),#915);
#911 = LINE('',#912,#913);
#912 = CARTESIAN_POINT('',(6.28318530718,-0.));
#913 = VECTOR('',#914,1.);
#914 = DIRECTION('',(0.,1.));
#915 = ( GEOMETRIC_REPRESENTATION_CONTEXT(2) 
PARAMETRIC_REPRESENTATION_CONTEXT() REPRESENTATION_CONTEXT('2D SPACE',''
  ) );
#916 = PCURVE('',#884,#917);
#917 = DEFINITIONAL_REPRESENTATION('',(#918),#922);
#918 = LINE('',#919,#920);
#919 = CARTESIAN_POINT('',(0.,-0.));
#920 = VECTOR('',#921,1.);
#921 = DIRECTION('',(0.,1.));
#922 = ( GEOMETRIC_REPRESENTATION_CONTEXT(2) 
PARAMETRIC_REPRESENTATION_CONTEXT() REPRESENTATION_CONTEXT('2D SPACE',''
  ) );
#923 = ORIENTED_EDGE('',*,*,#924,.F.);
#924 = EDGE_CURVE('',#902,#902,#925,.T.);
#925 = SURFACE_CURVE('',#926,(#931,#938),.PCURVE_S1.);
#926 = CIRCLE('',#927,2.15);
#927 = AXIS2_PLACEMENT_3D('',#928,#929,#930);
#928 = CARTESIAN_POINT('',(-47.5,-6.,0.));
#929 = DIRECTION('',(0.,1.,0.));
#930 = DIRECTION('',(0.,-0.,1.));
#931 = PCURVE('',#884,#932);
#932 = DEFINITIONAL_REPRESENTATION('',(#933),#937);
#933 = LINE('',#934,#935);
#934 = CARTESIAN_POINT('',(0.,7.2));
#935 = VECTOR('',#936,1.);
#936 = DIRECTION('',(1.,0.));
#937 = ( GEOMETRIC_REPRESENTATION_CONTEXT(2) 
PARAMETRIC_REPRESENTATION_CONTEXT() REPRESENTATION_CONTEXT('2D SPACE',''
  ) );
#938 = PCURVE('',#939,#944);
#939 = PLANE('',#940);
#940 = AXIS2_PLACEMENT_3D('',#941,#942,#943);
#941 = CARTESIAN_POINT('',(-47.5,-6.,0.));
#942 = DIRECTION('',(0.,1.,0.));
#943 = DIRECTION('',(0.,-0.,1.));
#944 = DEFINITIONAL_REPRESENTATION('',(#945),#949);
#945 = CIRCLE('',#946,2.15);
#946 = AXIS2_PLACEMENT_2D('',#947,#948);
#947 = CARTESIAN_POINT('',(0.,0.));
#948 = DIRECTION('',(1.,0.));
#949 = ( GEOMETRIC_REPRESENTATION_CONTEXT(2) 
PARAMETRIC_REPRESENTATION_CONTEXT() REPRESENTATION_CONTEXT('2D SPACE',''
  ) );
#950 = ORIENTED_EDGE('',*,*,#901,.F.);
#951 = ORIENTED_EDGE('',*,*,#869,.T.);
#952 = ADVANCED_FACE('',(#953),#939,.F.);
#953 = FACE_BOUND('',#954,.F.);
#954 = EDGE_LOOP('',(#955));
#955 = ORIENTED_EDGE('',*,*,#924,.T.);
#956 = ADVANCED_FACE('',(#957),#221,.T.);
#957 = FACE_BOUND('',#958,.T.);
#958 = EDGE_LOOP('',(#959,#982,#1010,#1038,#1057));
#959 = ORIENTED_EDGE('',*,*,#960,.T.);
#960 = EDGE_CURVE('',#166,#961,#963,.T.);
#961 = VERTEX_POINT('',#962);
#962 = CARTESIAN_POINT('',(-44.6,-11.4,-8.82568421935));
#963 = SURFACE_CURVE('',#964,(#968,#975),.PCURVE_S1.);
#964 = LINE('',#965,#966);
#965 = CARTESIAN_POINT('',(-44.6,-11.4,-16.5));
#966 = VECTOR('',#967,1.);
#967 = DIRECTION('',(0.,0.,1.));
#968 = PCURVE('',#221,#969);
#969 = DEFINITIONAL_REPRESENTATION('',(#970),#974);
#970 = LINE('',#971,#972);
#971 = CARTESIAN_POINT('',(7.67431578065,0.));
#972 = VECTOR('',#973,1.);
#973 = DIRECTION('',(-1.,-0.));
#974 = ( GEOMETRIC_REPRESENTATION_CONTEXT(2) 
PARAMETRIC_REPRESENTATION_CONTEXT() REPRESENTATION_CONTEXT('2D SPACE',''
  ) );
#975 = PCURVE('',#191,#976);
#976 = DEFINITIONAL_REPRESENTATION('',(#977),#981);
#977 = LINE('',#978,#979);
#978 = CARTESIAN_POINT('',(6.,-2.9));
#979 = VECTOR('',#980,1.);
#980 = DIRECTION('',(-1.,0.));
#981 = ( GEOMETRIC_REPRESENTATION_CONTEXT(2) 
PARAMETRIC_REPRESENTATION_CONTEXT() REPRESENTATION_CONTEXT('2D SPACE',''
  ) );
#982 = ORIENTED_EDGE('',*,*,#983,.T.);
#983 = EDGE_CURVE('',#961,#984,#986,.T.);
#984 = VERTEX_POINT('',#985);
#985 = CARTESIAN_POINT('',(-44.6,-8.8,-8.82568421935));
#986 = SURFACE_CURVE('',#987,(#991,#998),.PCURVE_S1.);
#987 = LINE('',#988,#989);
#988 = CARTESIAN_POINT('',(-44.6,-11.4,-8.82568421935));
#989 = VECTOR('',#990,1.);
#990 = DIRECTION('',(0.,1.,0.));
#991 = PCURVE('',#221,#992);
#992 = DEFINITIONAL_REPRESENTATION('',(#993),#997);
#993 = LINE('',#994,#995);
#994 = CARTESIAN_POINT('',(0.,0.));
#995 = VECTOR('',#996,1.);
#996 = DIRECTION('',(0.,-1.));
#997 = ( GEOMETRIC_REPRESENTATION_CONTEXT(2) 
PARAMETRIC_REPRESENTATION_CONTEXT() REPRESENTATION_CONTEXT('2D SPACE',''
  ) );
#998 = PCURVE('',#999,#1004);
#999 = PLANE('',#1000);
#1000 = AXIS2_PLACEMENT_3D('',#1001,#1002,#1003);
#1001 = CARTESIAN_POINT('',(-47.5,-11.4,-7.1513684387));
#1002 = DIRECTION('',(-0.5,0.,-0.866025403784));
#1003 = DIRECTION('',(0.866025403784,0.,-0.5));
#1004 = DEFINITIONAL_REPRESENTATION('',(#1005),#1009);
#1005 = LINE('',#1006,#1007);
#1006 = CARTESIAN_POINT('',(3.3486315613,0.));
#1007 = VECTOR('',#1008,1.);
#1008 = DIRECTION('',(0.,-1.));
#1009 = ( GEOMETRIC_REPRESENTATION_CONTEXT(2) 
PARAMETRIC_REPRESENTATION_CONTEXT() REPRESENTATION_CONTEXT('2D SPACE',''
  ) );
#1010 = ORIENTED_EDGE('',*,*,#1011,.T.);
#1011 = EDGE_CURVE('',#984,#1012,#1014,.T.);
#1012 = VERTEX_POINT('',#1013);
#1013 = CARTESIAN_POINT('',(-44.6,-8.8,-14.));
#1014 = SURFACE_CURVE('',#1015,(#1019,#1026),.PCURVE_S1.);
#1015 = LINE('',#1016,#1017);
#1016 = CARTESIAN_POINT('',(-44.6,-8.8,-8.82568421935));
#1017 = VECTOR('',#1018,1.);
#1018 = DIRECTION('',(0.,0.,-1.));
#1019 = PCURVE('',#221,#1020);
#1020 = DEFINITIONAL_REPRESENTATION('',(#1021),#1025);
#1021 = LINE('',#1022,#1023);
#1022 = CARTESIAN_POINT('',(0.,-2.6));
#1023 = VECTOR('',#1024,1.);
#1024 = DIRECTION('',(1.,0.));
#1025 = ( GEOMETRIC_REPRESENTATION_CONTEXT(2) 
PARAMETRIC_REPRESENTATION_CONTEXT() REPRESENTATION_CONTEXT('2D SPACE',''
  ) );
#1026 = PCURVE('',#1027,#1032);
#1027 = PLANE('',#1028);
#1028 = AXIS2_PLACEMENT_3D('',#1029,#1030,#1031);
#1029 = CARTESIAN_POINT('',(-47.5,-8.8,-10.5));
#1030 = DIRECTION('',(0.,1.,0.));
#1031 = DIRECTION('',(0.,0.,-1.));
#1032 = DEFINITIONAL_REPRESENTATION('',(#1033),#1037);
#1033 = LINE('',#1034,#1035);
#1034 = CARTESIAN_POINT('',(-1.67431578065,-2.9));
#1035 = VECTOR('',#1036,1.);
#1036 = DIRECTION('',(1.,0.));
#1037 = ( GEOMETRIC_REPRESENTATION_CONTEXT(2) 
PARAMETRIC_REPRESENTATION_CONTEXT() REPRESENTATION_CONTEXT('2D SPACE',''
  ) );
#1038 = ORIENTED_EDGE('',*,*,#1039,.T.);
#1039 = EDGE_CURVE('',#1012,#22,#1040,.T.);
#1040 = SURFACE_CURVE('',#1041,(#1045,#1051),.PCURVE_S1.);
#1041 = LINE('',#1042,#1043);
#1042 = CARTESIAN_POINT('',(-44.6,-12.2,-14.));
#1043 = VECTOR('',#1044,1.);
#1044 = DIRECTION('',(-0.,-1.,0.));
#1045 = PCURVE('',#221,#1046);
#1046 = DEFINITIONAL_REPRESENTATION('',(#1047),#1050);
#1047 = B_SPLINE_CURVE_WITH_KNOTS('',1,(#1048,#1049),.UNSPECIFIED.,.F.,
  .F.,(2,2),(-3.4,-0.886291501015),.PIECEWISE_BEZIER_KNOTS.);
#1048 = CARTESIAN_POINT('',(5.17431578065,-2.6));
#1049 = CARTESIAN_POINT('',(5.17431578065,-8.629150101524E-02));
#1050 = ( GEOMETRIC_REPRESENTATION_CONTEXT(2) 
PARAMETRIC_REPRESENTATION_CONTEXT() REPRESENTATION_CONTEXT('2D SPACE',''
  ) );
#1051 = PCURVE('',#45,#1052);
#1052 = DEFINITIONAL_REPRESENTATION('',(#1053),#1056);
#1053 = B_SPLINE_CURVE_WITH_KNOTS('',1,(#1054,#1055),.UNSPECIFIED.,.F.,
  .F.,(2,2),(-3.4,-0.886291501015),.PIECEWISE_BEZIER_KNOTS.);
#1054 = CARTESIAN_POINT('',(21.9,4.2));
#1055 = CARTESIAN_POINT('',(21.9,1.686291501015));
#1056 = ( GEOMETRIC_REPRESENTATION_CONTEXT(2) 
PARAMETRIC_REPRESENTATION_CONTEXT() REPRESENTATION_CONTEXT('2D SPACE',''
  ) );
#1057 = ORIENTED_EDGE('',*,*,#203,.T.);
#1058 = ADVANCED_FACE('',(#1059),#999,.T.);
#1059 = FACE_BOUND('',#1060,.T.);
#1060 = EDGE_LOOP('',(#1061,#1091,#1112,#1113));
#1061 = ORIENTED_EDGE('',*,*,#1062,.T.);
#1062 = EDGE_CURVE('',#1063,#1065,#1067,.T.);
#1063 = VERTEX_POINT('',#1064);
#1064 = CARTESIAN_POINT('',(-47.5,-11.4,-7.1513684387));
#1065 = VERTEX_POINT('',#1066);
#1066 = CARTESIAN_POINT('',(-47.5,-8.8,-7.1513684387));
#1067 = SURFACE_CURVE('',#1068,(#1072,#1079),.PCURVE_S1.);
#1068 = LINE('',#1069,#1070);
#1069 = CARTESIAN_POINT('',(-47.5,-11.4,-7.1513684387));
#1070 = VECTOR('',#1071,1.);
#1071 = DIRECTION('',(0.,1.,0.));
#1072 = PCURVE('',#999,#1073);
#1073 = DEFINITIONAL_REPRESENTATION('',(#1074),#1078);
#1074 = LINE('',#1075,#1076);
#1075 = CARTESIAN_POINT('',(0.,0.));
#1076 = VECTOR('',#1077,1.);
#1077 = DIRECTION('',(0.,-1.));
#1078 = ( GEOMETRIC_REPRESENTATION_CONTEXT(2) 
PARAMETRIC_REPRESENTATION_CONTEXT() REPRESENTATION_CONTEXT('2D SPACE',''
  ) );
#1079 = PCURVE('',#1080,#1085);
#1080 = PLANE('',#1081);
#1081 = AXIS2_PLACEMENT_3D('',#1082,#1083,#1084);
#1082 = CARTESIAN_POINT('',(-50.4,-11.4,-8.82568421935));
#1083 = DIRECTION('',(0.5,0.,-0.866025403784));
#1084 = DIRECTION('',(0.866025403784,0.,0.5));
#1085 = DEFINITIONAL_REPRESENTATION('',(#1086),#1090);
#1086 = LINE('',#1087,#1088);
#1087 = CARTESIAN_POINT('',(3.3486315613,0.));
#1088 = VECTOR('',#1089,1.);
#1089 = DIRECTION('',(0.,-1.));
#1090 = ( GEOMETRIC_REPRESENTATION_CONTEXT(2) 
PARAMETRIC_REPRESENTATION_CONTEXT() REPRESENTATION_CONTEXT('2D SPACE',''
  ) );
#1091 = ORIENTED_EDGE('',*,*,#1092,.T.);
#1092 = EDGE_CURVE('',#1065,#984,#1093,.T.);
#1093 = SURFACE_CURVE('',#1094,(#1098,#1105),.PCURVE_S1.);
#1094 = LINE('',#1095,#1096);
#1095 = CARTESIAN_POINT('',(-47.5,-8.8,-7.1513684387));
#1096 = VECTOR('',#1097,1.);
#1097 = DIRECTION('',(0.866025403784,0.,-0.5));
#1098 = PCURVE('',#999,#1099);
#1099 = DEFINITIONAL_REPRESENTATION('',(#1100),#1104);
#1100 = LINE('',#1101,#1102);
#1101 = CARTESIAN_POINT('',(0.,-2.6));
#1102 = VECTOR('',#1103,1.);
#1103 = DIRECTION('',(1.,0.));
#1104 = ( GEOMETRIC_REPRESENTATION_CONTEXT(2) 
PARAMETRIC_REPRESENTATION_CONTEXT() REPRESENTATION_CONTEXT('2D SPACE',''
  ) );
#1105 = PCURVE('',#1027,#1106);
#1106 = DEFINITIONAL_REPRESENTATION('',(#1107),#1111);
#1107 = LINE('',#1108,#1109);
#1108 = CARTESIAN_POINT('',(-3.3486315613,0.));
#1109 = VECTOR('',#1110,1.);
#1110 = DIRECTION('',(0.5,-0.866025403784));
#1111 = ( GEOMETRIC_REPRESENTATION_CONTEXT(2) 
PARAMETRIC_REPRESENTATION_CONTEXT() REPRESENTATION_CONTEXT('2D SPACE',''
  ) );
#1112 = ORIENTED_EDGE('',*,*,#983,.F.);
#1113 = ORIENTED_EDGE('',*,*,#1114,.F.);
#1114 = EDGE_CURVE('',#1063,#961,#1115,.T.);
#1115 = SURFACE_CURVE('',#1116,(#1120,#1127),.PCURVE_S1.);
#1116 = LINE('',#1117,#1118);
#1117 = CARTESIAN_POINT('',(-47.5,-11.4,-7.1513684387));
#1118 = VECTOR('',#1119,1.);
#1119 = DIRECTION('',(0.866025403784,0.,-0.5));
#1120 = PCURVE('',#999,#1121);
#1121 = DEFINITIONAL_REPRESENTATION('',(#1122),#1126);
#1122 = LINE('',#1123,#1124);
#1123 = CARTESIAN_POINT('',(0.,0.));
#1124 = VECTOR('',#1125,1.);
#1125 = DIRECTION('',(1.,0.));
#1126 = ( GEOMETRIC_REPRESENTATION_CONTEXT(2) 
PARAMETRIC_REPRESENTATION_CONTEXT() REPRESENTATION_CONTEXT('2D SPACE',''
  ) );
#1127 = PCURVE('',#191,#1128);
#1128 = DEFINITIONAL_REPRESENTATION('',(#1129),#1133);
#1129 = LINE('',#1130,#1131);
#1130 = CARTESIAN_POINT('',(-3.3486315613,0.));
#1131 = VECTOR('',#1132,1.);
#1132 = DIRECTION('',(0.5,-0.866025403784));
#1133 = ( GEOMETRIC_REPRESENTATION_CONTEXT(2) 
PARAMETRIC_REPRESENTATION_CONTEXT() REPRESENTATION_CONTEXT('2D SPACE',''
  ) );
#1134 = ADVANCED_FACE('',(#1135),#1080,.T.);
#1135 = FACE_BOUND('',#1136,.T.);
#1136 = EDGE_LOOP('',(#1137,#1162,#1183,#1184));
#1137 = ORIENTED_EDGE('',*,*,#1138,.T.);
#1138 = EDGE_CURVE('',#1139,#1141,#1143,.T.);
#1139 = VERTEX_POINT('',#1140);
#1140 = CARTESIAN_POINT('',(-50.4,-11.4,-8.82568421935));
#1141 = VERTEX_POINT('',#1142);
#1142 = CARTESIAN_POINT('',(-50.4,-8.8,-8.82568421935));
#1143 = SURFACE_CURVE('',#1144,(#1148,#1155),.PCURVE_S1.);
#1144 = LINE('',#1145,#1146);
#1145 = CARTESIAN_POINT('',(-50.4,-11.4,-8.82568421935));
#1146 = VECTOR('',#1147,1.);
#1147 = DIRECTION('',(0.,1.,0.));
#1148 = PCURVE('',#1080,#1149);
#1149 = DEFINITIONAL_REPRESENTATION('',(#1150),#1154);
#1150 = LINE('',#1151,#1152);
#1151 = CARTESIAN_POINT('',(0.,0.));
#1152 = VECTOR('',#1153,1.);
#1153 = DIRECTION('',(0.,-1.));
#1154 = ( GEOMETRIC_REPRESENTATION_CONTEXT(2) 
PARAMETRIC_REPRESENTATION_CONTEXT() REPRESENTATION_CONTEXT('2D SPACE',''
  ) );
#1155 = PCURVE('',#153,#1156);
#1156 = DEFINITIONAL_REPRESENTATION('',(#1157),#1161);
#1157 = LINE('',#1158,#1159);
#1158 = CARTESIAN_POINT('',(3.3486315613,0.));
#1159 = VECTOR('',#1160,1.);
#1160 = DIRECTION('',(0.,-1.));
#1161 = ( GEOMETRIC_REPRESENTATION_CONTEXT(2) 
PARAMETRIC_REPRESENTATION_CONTEXT() REPRESENTATION_CONTEXT('2D SPACE',''
  ) );
#1162 = ORIENTED_EDGE('',*,*,#1163,.T.);
#1163 = EDGE_CURVE('',#1141,#1065,#1164,.T.);
#1164 = SURFACE_CURVE('',#1165,(#1169,#1176),.PCURVE_S1.);
#1165 = LINE('',#1166,#1167);
#1166 = CARTESIAN_POINT('',(-50.4,-8.8,-8.82568421935));
#1167 = VECTOR('',#1168,1.);
#1168 = DIRECTION('',(0.866025403784,0.,0.5));
#1169 = PCURVE('',#1080,#1170);
#1170 = DEFINITIONAL_REPRESENTATION('',(#1171),#1175);
#1171 = LINE('',#1172,#1173);
#1172 = CARTESIAN_POINT('',(0.,-2.6));
#1173 = VECTOR('',#1174,1.);
#1174 = DIRECTION('',(1.,0.));
#1175 = ( GEOMETRIC_REPRESENTATION_CONTEXT(2) 
PARAMETRIC_REPRESENTATION_CONTEXT() REPRESENTATION_CONTEXT('2D SPACE',''
  ) );
#1176 = PCURVE('',#1027,#1177);
#1177 = DEFINITIONAL_REPRESENTATION('',(#1178),#1182);
#1178 = LINE('',#1179,#1180);
#1179 = CARTESIAN_POINT('',(-1.67431578065,2.9));
#1180 = VECTOR('',#1181,1.);
#1181 = DIRECTION('',(-0.5,-0.866025403784));
#1182 = ( GEOMETRIC_REPRESENTATION_CONTEXT(2) 
PARAMETRIC_REPRESENTATION_CONTEXT() REPRESENTATION_CONTEXT('2D SPACE',''
  ) );
#1183 = ORIENTED_EDGE('',*,*,#1062,.F.);
#1184 = ORIENTED_EDGE('',*,*,#1185,.F.);
#1185 = EDGE_CURVE('',#1139,#1063,#1186,.T.);
#1186 = SURFACE_CURVE('',#1187,(#1191,#1198),.PCURVE_S1.);
#1187 = LINE('',#1188,#1189);
#1188 = CARTESIAN_POINT('',(-50.4,-11.4,-8.82568421935));
#1189 = VECTOR('',#1190,1.);
#1190 = DIRECTION('',(0.866025403784,0.,0.5));
#1191 = PCURVE('',#1080,#1192);
#1192 = DEFINITIONAL_REPRESENTATION('',(#1193),#1197);
#1193 = LINE('',#1194,#1195);
#1194 = CARTESIAN_POINT('',(0.,0.));
#1195 = VECTOR('',#1196,1.);
#1196 = DIRECTION('',(1.,0.));
#1197 = ( GEOMETRIC_REPRESENTATION_CONTEXT(2) 
PARAMETRIC_REPRESENTATION_CONTEXT() REPRESENTATION_CONTEXT('2D SPACE',''
  ) );
#1198 = PCURVE('',#191,#1199);
#1199 = DEFINITIONAL_REPRESENTATION('',(#1200),#1204);
#1200 = LINE('',#1201,#1202);
#1201 = CARTESIAN_POINT('',(-1.67431578065,2.9));
#1202 = VECTOR('',#1203,1.);
#1203 = DIRECTION('',(-0.5,-0.866025403784));
#1204 = ( GEOMETRIC_REPRESENTATION_CONTEXT(2) 
PARAMETRIC_REPRESENTATION_CONTEXT() REPRESENTATION_CONTEXT('2D SPACE',''
  ) );
#1205 = ADVANCED_FACE('',(#1206,#1253),#1027,.F.);
#1206 = FACE_BOUND('',#1207,.F.);
#1207 = EDGE_LOOP('',(#1208,#1229,#1250,#1251,#1252));
#1208 = ORIENTED_EDGE('',*,*,#1209,.T.);
#1209 = EDGE_CURVE('',#1012,#1210,#1212,.T.);
#1210 = VERTEX_POINT('',#1211);
#1211 = CARTESIAN_POINT('',(-50.4,-8.8,-14.));
#1212 = SURFACE_CURVE('',#1213,(#1217,#1223),.PCURVE_S1.);
#1213 = LINE('',#1214,#1215);
#1214 = CARTESIAN_POINT('',(-57.,-8.8,-14.));
#1215 = VECTOR('',#1216,1.);
#1216 = DIRECTION('',(-1.,0.,0.));
#1217 = PCURVE('',#1027,#1218);
#1218 = DEFINITIONAL_REPRESENTATION('',(#1219),#1222);
#1219 = B_SPLINE_CURVE_WITH_KNOTS('',1,(#1220,#1221),.UNSPECIFIED.,.F.,
  .F.,(2,2),(-12.4,-6.6),.PIECEWISE_BEZIER_KNOTS.);
#1220 = CARTESIAN_POINT('',(3.5,-2.9));
#1221 = CARTESIAN_POINT('',(3.5,2.9));
#1222 = ( GEOMETRIC_REPRESENTATION_CONTEXT(2) 
PARAMETRIC_REPRESENTATION_CONTEXT() REPRESENTATION_CONTEXT('2D SPACE',''
  ) );
#1223 = PCURVE('',#45,#1224);
#1224 = DEFINITIONAL_REPRESENTATION('',(#1225),#1228);
#1225 = B_SPLINE_CURVE_WITH_KNOTS('',1,(#1226,#1227),.UNSPECIFIED.,.F.,
  .F.,(2,2),(-12.4,-6.6),.PIECEWISE_BEZIER_KNOTS.);
#1226 = CARTESIAN_POINT('',(21.9,4.2));
#1227 = CARTESIAN_POINT('',(16.1,4.2));
#1228 = ( GEOMETRIC_REPRESENTATION_CONTEXT(2) 
PARAMETRIC_REPRESENTATION_CONTEXT() REPRESENTATION_CONTEXT('2D SPACE',''
  ) );
#1229 = ORIENTED_EDGE('',*,*,#1230,.F.);
#1230 = EDGE_CURVE('',#1141,#1210,#1231,.T.);
#1231 = SURFACE_CURVE('',#1232,(#1236,#1243),.PCURVE_S1.);
#1232 = LINE('',#1233,#1234);
#1233 = CARTESIAN_POINT('',(-50.4,-8.8,-8.82568421935));
#1234 = VECTOR('',#1235,1.);
#1235 = DIRECTION('',(0.,0.,-1.));
#1236 = PCURVE('',#1027,#1237);
#1237 = DEFINITIONAL_REPRESENTATION('',(#1238),#1242);
#1238 = LINE('',#1239,#1240);
#1239 = CARTESIAN_POINT('',(-1.67431578065,2.9));
#1240 = VECTOR('',#1241,1.);
#1241 = DIRECTION('',(1.,0.));
#1242 = ( GEOMETRIC_REPRESENTATION_CONTEXT(2) 
PARAMETRIC_REPRESENTATION_CONTEXT() REPRESENTATION_CONTEXT('2D SPACE',''
  ) );
#1243 = PCURVE('',#153,#1244);
#1244 = DEFINITIONAL_REPRESENTATION('',(#1245),#1249);
#1245 = LINE('',#1246,#1247);
#1246 = CARTESIAN_POINT('',(3.3486315613,-2.6));
#1247 = VECTOR('',#1248,1.);
#1248 = DIRECTION('',(-1.,-0.));
#1249 = ( GEOMETRIC_REPRESENTATION_CONTEXT(2) 
PARAMETRIC_REPRESENTATION_CONTEXT() REPRESENTATION_CONTEXT('2D SPACE',''
  ) );
#1250 = ORIENTED_EDGE('',*,*,#1163,.T.);
#1251 = ORIENTED_EDGE('',*,*,#1092,.T.);
#1252 = ORIENTED_EDGE('',*,*,#1011,.T.);
#1253 = FACE_BOUND('',#1254,.F.);
#1254 = EDGE_LOOP('',(#1255));
#1255 = ORIENTED_EDGE('',*,*,#1256,.F.);
#1256 = EDGE_CURVE('',#1257,#1257,#1259,.T.);
#1257 = VERTEX_POINT('',#1258);
#1258 = CARTESIAN_POINT('',(-47.5,-8.8,-8.85));
#1259 = SURFACE_CURVE('',#1260,(#1265,#1272),.PCURVE_S1.);
#1260 = CIRCLE('',#1261,1.65);
#1261 = AXIS2_PLACEMENT_3D('',#1262,#1263,#1264);
#1262 = CARTESIAN_POINT('',(-47.5,-8.8,-10.5));
#1263 = DIRECTION('',(0.,1.,0.));
#1264 = DIRECTION('',(0.,-0.,1.));
#1265 = PCURVE('',#1027,#1266);
#1266 = DEFINITIONAL_REPRESENTATION('',(#1267),#1271);
#1267 = CIRCLE('',#1268,1.65);
#1268 = AXIS2_PLACEMENT_2D('',#1269,#1270);
#1269 = CARTESIAN_POINT('',(0.,0.));
#1270 = DIRECTION('',(-1.,0.));
#1271 = ( GEOMETRIC_REPRESENTATION_CONTEXT(2) 
PARAMETRIC_REPRESENTATION_CONTEXT() REPRESENTATION_CONTEXT('2D SPACE',''
  ) );
#1272 = PCURVE('',#1273,#1278);
#1273 = CYLINDRICAL_SURFACE('',#1274,1.65);
#1274 = AXIS2_PLACEMENT_3D('',#1275,#1276,#1277);
#1275 = CARTESIAN_POINT('',(-47.5,-13.2,-10.5));
#1276 = DIRECTION('',(0.,1.,0.));
#1277 = DIRECTION('',(0.,-0.,1.));
#1278 = DEFINITIONAL_REPRESENTATION('',(#1279),#1283);
#1279 = LINE('',#1280,#1281);
#1280 = CARTESIAN_POINT('',(0.,4.4));
#1281 = VECTOR('',#1282,1.);
#1282 = DIRECTION('',(1.,0.));
#1283 = ( GEOMETRIC_REPRESENTATION_CONTEXT(2) 
PARAMETRIC_REPRESENTATION_CONTEXT() REPRESENTATION_CONTEXT('2D SPACE',''
  ) );
#1284 = ADVANCED_FACE('',(#1285),#1273,.F.);
#1285 = FACE_BOUND('',#1286,.F.);
#1286 = EDGE_LOOP('',(#1287,#1288,#1311,#1338));
#1287 = ORIENTED_EDGE('',*,*,#1256,.T.);
#1288 = ORIENTED_EDGE('',*,*,#1289,.T.);
#1289 = EDGE_CURVE('',#1257,#1290,#1292,.T.);
#1290 = VERTEX_POINT('',#1291);
#1291 = CARTESIAN_POINT('',(-47.5,-6.5,-8.85));
#1292 = SEAM_CURVE('',#1293,(#1297,#1304),.PCURVE_S1.);
#1293 = LINE('',#1294,#1295);
#1294 = CARTESIAN_POINT('',(-47.5,-13.2,-8.85));
#1295 = VECTOR('',#1296,1.);
#1296 = DIRECTION('',(0.,1.,0.));
#1297 = PCURVE('',#1273,#1298);
#1298 = DEFINITIONAL_REPRESENTATION('',(#1299),#1303);
#1299 = LINE('',#1300,#1301);
#1300 = CARTESIAN_POINT('',(0.,-0.));
#1301 = VECTOR('',#1302,1.);
#1302 = DIRECTION('',(0.,1.));
#1303 = ( GEOMETRIC_REPRESENTATION_CONTEXT(2) 
PARAMETRIC_REPRESENTATION_CONTEXT() REPRESENTATION_CONTEXT('2D SPACE',''
  ) );
#1304 = PCURVE('',#1273,#1305);
#1305 = DEFINITIONAL_REPRESENTATION('',(#1306),#1310);
#1306 = LINE('',#1307,#1308);
#1307 = CARTESIAN_POINT('',(6.28318530718,-0.));
#1308 = VECTOR('',#1309,1.);
#1309 = DIRECTION('',(0.,1.));
#1310 = ( GEOMETRIC_REPRESENTATION_CONTEXT(2) 
PARAMETRIC_REPRESENTATION_CONTEXT() REPRESENTATION_CONTEXT('2D SPACE',''
  ) );
#1311 = ORIENTED_EDGE('',*,*,#1312,.F.);
#1312 = EDGE_CURVE('',#1290,#1290,#1313,.T.);
#1313 = SURFACE_CURVE('',#1314,(#1319,#1326),.PCURVE_S1.);
#1314 = CIRCLE('',#1315,1.65);
#1315 = AXIS2_PLACEMENT_3D('',#1316,#1317,#1318);
#1316 = CARTESIAN_POINT('',(-47.5,-6.5,-10.5));
#1317 = DIRECTION('',(0.,1.,0.));
#1318 = DIRECTION('',(0.,-0.,1.));
#1319 = PCURVE('',#1273,#1320);
#1320 = DEFINITIONAL_REPRESENTATION('',(#1321),#1325);
#1321 = LINE('',#1322,#1323);
#1322 = CARTESIAN_POINT('',(0.,6.7));
#1323 = VECTOR('',#1324,1.);
#1324 = DIRECTION('',(1.,0.));
#1325 = ( GEOMETRIC_REPRESENTATION_CONTEXT(2) 
PARAMETRIC_REPRESENTATION_CONTEXT() REPRESENTATION_CONTEXT('2D SPACE',''
  ) );
#1326 = PCURVE('',#1327,#1332);
#1327 = PLANE('',#1328);
#1328 = AXIS2_PLACEMENT_3D('',#1329,#1330,#1331);
#1329 = CARTESIAN_POINT('',(-47.5,-6.5,-10.5));
#1330 = DIRECTION('',(0.,1.,0.));
#1331 = DIRECTION('',(0.,-0.,1.));
#1332 = DEFINITIONAL_REPRESENTATION('',(#1333),#1337);
#1333 = CIRCLE('',#1334,1.65);
#1334 = AXIS2_PLACEMENT_2D('',#1335,#1336);
#1335 = CARTESIAN_POINT('',(0.,0.));
#1336 = DIRECTION('',(1.,0.));
#1337 = ( GEOMETRIC_REPRESENTATION_CONTEXT(2) 
PARAMETRIC_REPRESENTATION_CONTEXT() REPRESENTATION_CONTEXT('2D SPACE',''
  ) );
#1338 = ORIENTED_EDGE('',*,*,#1289,.F.);
#1339 = ADVANCED_FACE('',(#1340),#1327,.F.);
#1340 = FACE_BOUND('',#1341,.F.);
#1341 = EDGE_LOOP('',(#1342));
#1342 = ORIENTED_EDGE('',*,*,#1312,.T.);
#1343 = ADVANCED_FACE('',(#1344,#1371),#191,.T.);
#1344 = FACE_BOUND('',#1345,.T.);
#1345 = EDGE_LOOP('',(#1346,#1347,#1348,#1369,#1370));
#1346 = ORIENTED_EDGE('',*,*,#960,.F.);
#1347 = ORIENTED_EDGE('',*,*,#165,.T.);
#1348 = ORIENTED_EDGE('',*,*,#1349,.T.);
#1349 = EDGE_CURVE('',#134,#1139,#1350,.T.);
#1350 = SURFACE_CURVE('',#1351,(#1355,#1362),.PCURVE_S1.);
#1351 = LINE('',#1352,#1353);
#1352 = CARTESIAN_POINT('',(-50.4,-11.4,-16.5));
#1353 = VECTOR('',#1354,1.);
#1354 = DIRECTION('',(0.,0.,1.));
#1355 = PCURVE('',#191,#1356);
#1356 = DEFINITIONAL_REPRESENTATION('',(#1357),#1361);
#1357 = LINE('',#1358,#1359);
#1358 = CARTESIAN_POINT('',(6.,2.9));
#1359 = VECTOR('',#1360,1.);
#1360 = DIRECTION('',(-1.,0.));
#1361 = ( GEOMETRIC_REPRESENTATION_CONTEXT(2) 
PARAMETRIC_REPRESENTATION_CONTEXT() REPRESENTATION_CONTEXT('2D SPACE',''
  ) );
#1362 = PCURVE('',#153,#1363);
#1363 = DEFINITIONAL_REPRESENTATION('',(#1364),#1368);
#1364 = LINE('',#1365,#1366);
#1365 = CARTESIAN_POINT('',(-4.32568421935,-0.));
#1366 = VECTOR('',#1367,1.);
#1367 = DIRECTION('',(1.,0.));
#1368 = ( GEOMETRIC_REPRESENTATION_CONTEXT(2) 
PARAMETRIC_REPRESENTATION_CONTEXT() REPRESENTATION_CONTEXT('2D SPACE',''
  ) );
#1369 = ORIENTED_EDGE('',*,*,#1185,.T.);
#1370 = ORIENTED_EDGE('',*,*,#1114,.T.);
#1371 = FACE_BOUND('',#1372,.T.);
#1372 = EDGE_LOOP('',(#1373));
#1373 = ORIENTED_EDGE('',*,*,#783,.F.);
#1374 = ADVANCED_FACE('',(#1375),#153,.T.);
#1375 = FACE_BOUND('',#1376,.T.);
#1376 = EDGE_LOOP('',(#1377,#1378,#1379,#1398,#1399));
#1377 = ORIENTED_EDGE('',*,*,#1349,.F.);
#1378 = ORIENTED_EDGE('',*,*,#133,.T.);
#1379 = ORIENTED_EDGE('',*,*,#1380,.T.);
#1380 = EDGE_CURVE('',#110,#1210,#1381,.T.);
#1381 = SURFACE_CURVE('',#1382,(#1386,#1392),.PCURVE_S1.);
#1382 = LINE('',#1383,#1384);
#1383 = CARTESIAN_POINT('',(-50.4,-12.2,-14.));
#1384 = VECTOR('',#1385,1.);
#1385 = DIRECTION('',(0.,1.,0.));
#1386 = PCURVE('',#153,#1387);
#1387 = DEFINITIONAL_REPRESENTATION('',(#1388),#1391);
#1388 = B_SPLINE_CURVE_WITH_KNOTS('',1,(#1389,#1390),.UNSPECIFIED.,.F.,
  .F.,(2,2),(0.886291501015,3.4),.PIECEWISE_BEZIER_KNOTS.);
#1389 = CARTESIAN_POINT('',(-1.82568421935,-8.629150101524E-02));
#1390 = CARTESIAN_POINT('',(-1.82568421935,-2.6));
#1391 = ( GEOMETRIC_REPRESENTATION_CONTEXT(2) 
PARAMETRIC_REPRESENTATION_CONTEXT() REPRESENTATION_CONTEXT('2D SPACE',''
  ) );
#1392 = PCURVE('',#45,#1393);
#1393 = DEFINITIONAL_REPRESENTATION('',(#1394),#1397);
#1394 = B_SPLINE_CURVE_WITH_KNOTS('',1,(#1395,#1396),.UNSPECIFIED.,.F.,
  .F.,(2,2),(0.886291501015,3.4),.PIECEWISE_BEZIER_KNOTS.);
#1395 = CARTESIAN_POINT('',(16.1,1.686291501015));
#1396 = CARTESIAN_POINT('',(16.1,4.2));
#1397 = ( GEOMETRIC_REPRESENTATION_CONTEXT(2) 
PARAMETRIC_REPRESENTATION_CONTEXT() REPRESENTATION_CONTEXT('2D SPACE',''
  ) );
#1398 = ORIENTED_EDGE('',*,*,#1230,.F.);
#1399 = ORIENTED_EDGE('',*,*,#1138,.F.);
#1400 = ADVANCED_FACE('',(#1401),#96,.F.);
#1401 = FACE_BOUND('',#1402,.F.);
#1402 = EDGE_LOOP('',(#1403,#1404,#1427,#1454));
#1403 = ORIENTED_EDGE('',*,*,#81,.F.);
#1404 = ORIENTED_EDGE('',*,*,#1405,.F.);
#1405 = EDGE_CURVE('',#1406,#58,#1408,.T.);
#1406 = VERTEX_POINT('',#1407);
#1407 = CARTESIAN_POINT('',(-39.4,-1.983927814619E-15,14.124515496597));
#1408 = SEAM_CURVE('',#1409,(#1413,#1420),.PCURVE_S1.);
#1409 = LINE('',#1410,#1411);
#1410 = CARTESIAN_POINT('',(-39.4,-1.983927814619E-15,14.124515496597));
#1411 = VECTOR('',#1412,1.);
#1412 = DIRECTION('',(0.,0.,1.));
#1413 = PCURVE('',#96,#1414);
#1414 = DEFINITIONAL_REPRESENTATION('',(#1415),#1419);
#1415 = LINE('',#1416,#1417);
#1416 = CARTESIAN_POINT('',(6.28318530718,-0.));
#1417 = VECTOR('',#1418,1.);
#1418 = DIRECTION('',(0.,1.));
#1419 = ( GEOMETRIC_REPRESENTATION_CONTEXT(2) 
PARAMETRIC_REPRESENTATION_CONTEXT() REPRESENTATION_CONTEXT('2D SPACE',''
  ) );
#1420 = PCURVE('',#96,#1421);
#1421 = DEFINITIONAL_REPRESENTATION('',(#1422),#1426);
#1422 = LINE('',#1423,#1424);
#1423 = CARTESIAN_POINT('',(0.,-0.));
#1424 = VECTOR('',#1425,1.);
#1425 = DIRECTION('',(0.,1.));
#1426 = ( GEOMETRIC_REPRESENTATION_CONTEXT(2) 
PARAMETRIC_REPRESENTATION_CONTEXT() REPRESENTATION_CONTEXT('2D SPACE',''
  ) );
#1427 = ORIENTED_EDGE('',*,*,#1428,.T.);
#1428 = EDGE_CURVE('',#1406,#1406,#1429,.T.);
#1429 = SURFACE_CURVE('',#1430,(#1435,#1442),.PCURVE_S1.);
#1430 = CIRCLE('',#1431,8.1);
#1431 = AXIS2_PLACEMENT_3D('',#1432,#1433,#1434);
#1432 = CARTESIAN_POINT('',(-47.5,0.,14.124515496597));
#1433 = DIRECTION('',(0.,0.,1.));
#1434 = DIRECTION('',(1.,0.,-0.));
#1435 = PCURVE('',#96,#1436);
#1436 = DEFINITIONAL_REPRESENTATION('',(#1437),#1441);
#1437 = LINE('',#1438,#1439);
#1438 = CARTESIAN_POINT('',(0.,0.));
#1439 = VECTOR('',#1440,1.);
#1440 = DIRECTION('',(1.,0.));
#1441 = ( GEOMETRIC_REPRESENTATION_CONTEXT(2) 
PARAMETRIC_REPRESENTATION_CONTEXT() REPRESENTATION_CONTEXT('2D SPACE',''
  ) );
#1442 = PCURVE('',#1443,#1448);
#1443 = PLANE('',#1444);
#1444 = AXIS2_PLACEMENT_3D('',#1445,#1446,#1447);
#1445 = CARTESIAN_POINT('',(-47.5,0.,14.124515496597));
#1446 = DIRECTION('',(0.,0.,1.));
#1447 = DIRECTION('',(1.,0.,-0.));
#1448 = DEFINITIONAL_REPRESENTATION('',(#1449),#1453);
#1449 = CIRCLE('',#1450,8.1);
#1450 = AXIS2_PLACEMENT_2D('',#1451,#1452);
#1451 = CARTESIAN_POINT('',(0.,0.));
#1452 = DIRECTION('',(1.,0.));
#1453 = ( GEOMETRIC_REPRESENTATION_CONTEXT(2) 
PARAMETRIC_REPRESENTATION_CONTEXT() REPRESENTATION_CONTEXT('2D SPACE',''
  ) );
#1454 = ORIENTED_EDGE('',*,*,#1405,.T.);
#1455 = ADVANCED_FACE('',(#1456),#1443,.T.);
#1456 = FACE_BOUND('',#1457,.F.);
#1457 = EDGE_LOOP('',(#1458));
#1458 = ORIENTED_EDGE('',*,*,#1428,.F.);
#1459 = ADVANCED_FACE('',(#1460),#45,.F.);
#1460 = FACE_BOUND('',#1461,.F.);
#1461 = EDGE_LOOP('',(#1462,#1463,#1464,#1465,#1466));
#1462 = ORIENTED_EDGE('',*,*,#21,.T.);
#1463 = ORIENTED_EDGE('',*,*,#109,.T.);
#1464 = ORIENTED_EDGE('',*,*,#1380,.T.);
#1465 = ORIENTED_EDGE('',*,*,#1209,.F.);
#1466 = ORIENTED_EDGE('',*,*,#1039,.T.);
#1467 = ( GEOMETRIC_REPRESENTATION_CONTEXT(3) 
GLOBAL_UNCERTAINTY_ASSIGNED_CONTEXT((#1471)) 
GLOBAL_UNIT_ASSIGNED_CONTEXT((#1468,#1469,#1470)) REPRESENTATION_CONTEXT
('Context #1','3D Context with UNIT and UNCERTAINTY') );
#1468 = ( LENGTH_UNIT() NAMED_UNIT(*) SI_UNIT(.MILLI.,.METRE.) );
#1469 = ( NAMED_UNIT(*) PLANE_ANGLE_UNIT() SI_UNIT($,.RADIAN.) );
#1470 = ( NAMED_UNIT(*) SI_UNIT($,.STERADIAN.) SOLID_ANGLE_UNIT() );
#1471 = UNCERTAINTY_MEASURE_WITH_UNIT(LENGTH_MEASURE(1.E-07),#1468,
  'distance_accuracy_value','confusion accuracy');
#1472 = PRODUCT_RELATED_PRODUCT_CATEGORY('part',$,(#7));
ENDSEC;
END-ISO-10303-21;
